0
SECTION
2
HEADER
0
ENDSEC
0
SECTION
2
TABLES
0
TABLE
2
LTYPE
0
LTYPE
72
65
70
64
2
CONTINUOUS
3
______
73
0
40
0
0
ENDTAB
0
TABLE
2
LAYER
0
ENDTAB
0
ENDSEC
0
SECTION
2
ENTITIES
0
CIRCLE
8
0
10
0
20
0
40
2
0
CIRCLE
8
0
10
0
20
0
40
2
0
LINE
8
layer0
10
10.4198698
20
2.9157647
11
10.2642316
21
2.7645963
0
LINE
8
layer0
10
10.2642316
20
2.7645963
11
10.115621
21
2.6318948
0
LINE
8
layer0
10
10.115621
20
2.6318948
11
9.9739908
21
2.5156578
0
LINE
8
layer0
10
9.9739908
20
2.5156578
11
9.8396357
21
2.4145351
0
LINE
8
layer0
10
9.8396357
20
2.4145351
11
9.7160532
21
2.3293943
0
LINE
8
layer0
10
9.7160532
20
2.3293943
11
9.601953
21
2.2576417
0
LINE
8
layer0
10
9.601953
20
2.2576417
11
9.5009091
21
2.1998535
0
LINE
8
layer0
10
9.5009091
20
2.1998535
11
9.4117299
21
2.1536439
0
LINE
8
layer0
10
9.4117299
20
2.1536439
11
9.3358263
21
2.1182238
0
LINE
8
layer0
10
9.3358263
20
2.1182238
11
9.223134
21
2.0736359
0
LINE
8
layer0
10
9.223134
20
2.0736359
11
9.1098397
21
2.0398164
0
LINE
8
layer0
10
9.1098397
20
2.0398164
11
9.0054616
21
2.0007775
0
LINE
8
layer0
10
9.0054616
20
2.0007775
11
8.9203554
21
1.9572986
0
LINE
8
layer0
10
8.9203554
20
1.9572986
11
8.885085
21
1.9343891
0
LINE
8
layer0
10
8.885085
20
1.9343891
11
8.8546783
21
1.9109438
0
LINE
8
layer0
10
8.8546783
20
1.9109438
11
8.8291534
21
1.8871681
0
LINE
8
layer0
10
8.8291534
20
1.8871681
11
8.8084987
21
1.8632626
0
LINE
8
layer0
10
8.8084987
20
1.8632626
11
8.7927075
21
1.8393985
0
LINE
8
layer0
10
8.7927075
20
1.8393985
11
8.7817666
21
1.8157863
0
LINE
8
layer0
10
8.7817666
20
1.8157863
11
8.7756561
21
1.7926151
0
LINE
8
layer0
10
8.7756561
20
1.7926151
11
8.7743563
21
1.7700743
0
LINE
8
layer0
10
8.7743563
20
1.7700743
11
8.7765159
21
1.7536904
0
LINE
8
layer0
10
8.7765159
20
1.7536904
11
8.8044853
21
1.6075263
0
LINE
8
layer0
10
8.8044853
20
1.6075263
11
8.8398106
21
1.4000885
0
LINE
8
layer0
10
8.8398106
20
1.4000885
11
8.8703161
21
1.1918873
0
LINE
8
layer0
10
8.8703161
20
1.1918873
11
8.8888827
21
1.0442339
0
LINE
8
layer0
10
8.8888827
20
1.0442339
11
8.8918917
21
1.0279845
0
LINE
8
layer0
10
8.8918917
20
1.0279845
11
8.9000935
21
1.0069486
0
LINE
8
layer0
10
8.9000935
20
1.0069486
11
8.9130651
21
0.9867997
0
LINE
8
layer0
10
8.9130651
20
0.9867997
11
8.9307672
21
0.9677241
0
LINE
8
layer0
10
8.9307672
20
0.9677241
11
8.9531599
21
0.9499077
0
LINE
8
layer0
10
8.9531599
20
0.9499077
11
8.9801909
21
0.933555
0
LINE
8
layer0
10
8.9801909
20
0.933555
11
9.0118136
21
0.9188306
0
LINE
8
layer0
10
9.0118136
20
0.9188306
11
9.0479771
21
0.9059289
0
LINE
8
layer0
10
9.0479771
20
0.9059289
11
9.0886007
21
0.8950398
0
LINE
8
layer0
10
9.0886007
20
0.8950398
11
9.1829772
21
0.8799882
0
LINE
8
layer0
10
9.1829772
20
0.8799882
11
9.2943103
21
0.8751146
0
LINE
8
layer0
10
9.2943103
20
0.8751146
11
9.4125104
21
0.8779602
0
LINE
8
layer0
10
9.4125104
20
0.8779602
11
9.5334656
21
0.8703784
0
LINE
8
layer0
10
9.5334656
20
0.8703784
11
9.6165996
21
0.8601475
0
LINE
8
layer0
10
9.6165996
20
0.8601475
11
9.7156936
21
0.8437574
0
LINE
8
layer0
10
9.7156936
20
0.8437574
11
9.8296496
21
0.8200218
0
LINE
8
layer0
10
9.8296496
20
0.8200218
11
9.9603381
21
0.7870399
0
LINE
8
layer0
10
9.9603381
20
0.7870399
11
10.1041821
21
0.7442553
0
LINE
8
layer0
10
10.1041821
20
0.7442553
11
10.26321
21
0.6895999
0
LINE
8
layer0
10
10.26321
20
0.6895999
11
10.4338275
21
0.6228181
0
LINE
8
layer0
10
10.4338275
20
0.6228181
11
10.6161716
21
0.5425346
0
LINE
8
layer0
10
10.6161716
20
0.5425346
11
10.8109059
21
0.4468599
0
LINE
8
layer0
10
10.8109059
20
0.4468599
11
10.9945019
21
0.3472613
0
ARC
8
layer0
10
-0.0000153
20
0
40
11
50
358.1909164
51
361.809083
0
LINE
8
layer0
10
10.9945019
20
-0.3472613
11
10.8109059
21
-0.4468599
0
LINE
8
layer0
10
10.8109059
20
-0.4468599
11
10.6161716
21
-0.5425346
0
LINE
8
layer0
10
10.6161716
20
-0.5425346
11
10.4338275
21
-0.6228181
0
LINE
8
layer0
10
10.4338275
20
-0.6228181
11
10.26321
21
-0.6895999
0
LINE
8
layer0
10
10.26321
20
-0.6895999
11
10.1041821
21
-0.7442553
0
LINE
8
layer0
10
10.1041821
20
-0.7442553
11
9.9603381
21
-0.7870399
0
LINE
8
layer0
10
9.9603381
20
-0.7870399
11
9.8296496
21
-0.8200218
0
LINE
8
layer0
10
9.8296496
20
-0.8200218
11
9.7156936
21
-0.8437574
0
LINE
8
layer0
10
9.7156936
20
-0.8437574
11
9.6165996
21
-0.8601475
0
LINE
8
layer0
10
9.6165996
20
-0.8601475
11
9.5334656
21
-0.8703784
0
LINE
8
layer0
10
9.5334656
20
-0.8703784
11
9.4125104
21
-0.8779602
0
LINE
8
layer0
10
9.4125104
20
-0.8779602
11
9.2943103
21
-0.8751146
0
LINE
8
layer0
10
9.2943103
20
-0.8751146
11
9.1829772
21
-0.8799882
0
LINE
8
layer0
10
9.1829772
20
-0.8799882
11
9.0886007
21
-0.8950398
0
LINE
8
layer0
10
9.0886007
20
-0.8950398
11
9.0479771
21
-0.9059289
0
LINE
8
layer0
10
9.0479771
20
-0.9059289
11
9.0118136
21
-0.9188306
0
LINE
8
layer0
10
9.0118136
20
-0.9188306
11
8.9801909
21
-0.933555
0
LINE
8
layer0
10
8.9801909
20
-0.933555
11
8.9531599
21
-0.9499077
0
LINE
8
layer0
10
8.9531599
20
-0.9499077
11
8.9307672
21
-0.9677241
0
LINE
8
layer0
10
8.9307672
20
-0.9677241
11
8.9130651
21
-0.9867997
0
LINE
8
layer0
10
8.9130651
20
-0.9867997
11
8.9000935
21
-1.0069486
0
LINE
8
layer0
10
8.9000935
20
-1.0069486
11
8.8918917
21
-1.0279845
0
LINE
8
layer0
10
8.8918917
20
-1.0279845
11
8.8888827
21
-1.0442339
0
LINE
8
layer0
10
8.8888827
20
-1.0442339
11
8.8703161
21
-1.1918873
0
LINE
8
layer0
10
8.8703161
20
-1.1918873
11
8.8398106
21
-1.4000885
0
LINE
8
layer0
10
8.8398106
20
-1.4000885
11
8.8044853
21
-1.6075263
0
LINE
8
layer0
10
8.8044853
20
-1.6075263
11
8.7765159
21
-1.7536904
0
LINE
8
layer0
10
8.7765159
20
-1.7536904
11
8.7743563
21
-1.7700743
0
LINE
8
layer0
10
8.7743563
20
-1.7700743
11
8.7756561
21
-1.7926151
0
LINE
8
layer0
10
8.7756561
20
-1.7926151
11
8.7817666
21
-1.8157863
0
LINE
8
layer0
10
8.7817666
20
-1.8157863
11
8.7927075
21
-1.8393985
0
LINE
8
layer0
10
8.7927075
20
-1.8393985
11
8.8084987
21
-1.8632626
0
LINE
8
layer0
10
8.8084987
20
-1.8632626
11
8.8291534
21
-1.8871681
0
LINE
8
layer0
10
8.8291534
20
-1.8871681
11
8.8546783
21
-1.9109438
0
LINE
8
layer0
10
8.8546783
20
-1.9109438
11
8.885085
21
-1.9343891
0
LINE
8
layer0
10
8.885085
20
-1.9343891
11
8.9203554
21
-1.9572986
0
LINE
8
layer0
10
8.9203554
20
-1.9572986
11
9.0054616
21
-2.0007775
0
LINE
8
layer0
10
9.0054616
20
-2.0007775
11
9.1098397
21
-2.0398164
0
LINE
8
layer0
10
9.1098397
20
-2.0398164
11
9.223134
21
-2.0736359
0
LINE
8
layer0
10
9.223134
20
-2.0736359
11
9.3358263
21
-2.1182238
0
LINE
8
layer0
10
9.3358263
20
-2.1182238
11
9.4117299
21
-2.1536439
0
LINE
8
layer0
10
9.4117299
20
-2.1536439
11
9.5009091
21
-2.1998535
0
LINE
8
layer0
10
9.5009091
20
-2.1998535
11
9.601953
21
-2.2576417
0
LINE
8
layer0
10
9.601953
20
-2.2576417
11
9.7160532
21
-2.3293943
0
LINE
8
layer0
10
9.7160532
20
-2.3293943
11
9.8396357
21
-2.4145351
0
LINE
8
layer0
10
9.8396357
20
-2.4145351
11
9.9739908
21
-2.5156578
0
LINE
8
layer0
10
9.9739908
20
-2.5156578
11
10.115621
21
-2.6318948
0
LINE
8
layer0
10
10.115621
20
-2.6318948
11
10.2642316
21
-2.7645963
0
LINE
8
layer0
10
10.2642316
20
-2.7645963
11
10.4198698
21
-2.9157647
0
LINE
8
layer0
10
10.4198698
20
-2.9157647
11
10.5637023
21
-3.0672228
0
ARC
8
layer0
10
-0.0000147
20
0.0000046
40
11
50
340.1909176
51
343.8090839
0
LINE
8
layer0
10
10.349083
20
-3.7277531
11
10.1436952
21
-3.7657426
0
LINE
8
layer0
10
10.1436952
20
-3.7657426
11
9.9289267
21
-3.7965585
0
LINE
8
layer0
10
9.9289267
20
-3.7965585
11
9.7306982
21
-3.8165653
0
LINE
8
layer0
10
9.7306982
20
-3.8165653
11
9.5477946
21
-3.8273548
0
LINE
8
layer0
10
9.5477946
20
-3.8273548
11
9.3796606
21
-3.8301929
0
LINE
8
layer0
10
9.3796606
20
-3.8301929
11
9.2296358
21
-3.8264332
0
LINE
8
layer0
10
9.2296358
20
-3.8264332
11
9.0951517
21
-3.8174159
0
LINE
8
layer0
10
9.0951517
20
-3.8174159
11
8.9794383
21
-3.8047754
0
LINE
8
layer0
10
8.9794383
20
-3.8047754
11
8.8801295
21
-3.7897415
0
LINE
8
layer0
10
8.8801295
20
-3.7897415
11
8.7979029
21
-3.7737819
0
LINE
8
layer0
10
8.7979029
20
-3.7737819
11
8.6805247
21
-3.7436154
0
LINE
8
layer0
10
8.6805247
20
-3.7436154
11
8.5689891
21
-3.7043833
0
LINE
8
layer0
10
8.5689891
20
-3.7043833
11
8.461599
21
-3.6746146
0
LINE
8
layer0
10
8.461599
20
-3.6746146
11
8.3671904
21
-3.6597655
0
LINE
8
layer0
10
8.3671904
20
-3.6597655
11
8.3251901
21
-3.6575683
0
LINE
8
layer0
10
8.3251901
20
-3.6575683
11
8.2868098
21
-3.6586634
0
LINE
8
layer0
10
8.2868098
20
-3.6586634
11
8.2521847
21
-3.6628951
0
LINE
8
layer0
10
8.2521847
20
-3.6628951
11
8.2214235
21
-3.6700945
0
LINE
8
layer0
10
8.2214235
20
-3.6700945
11
8.1946211
21
-3.6801191
0
LINE
8
layer0
10
8.1946211
20
-3.6801191
11
8.1718908
21
-3.6927909
0
LINE
8
layer0
10
8.1718908
20
-3.6927909
11
8.1533277
21
-3.7079451
0
LINE
8
layer0
10
8.1533277
20
-3.7079451
11
8.1390269
21
-3.725417
0
LINE
8
layer0
10
8.1390269
20
-3.725417
11
8.1311438
21
-3.7399412
0
LINE
8
layer0
10
8.1311438
20
-3.7399412
11
8.0678585
21
-3.8746306
0
LINE
8
layer0
10
8.0678585
20
-3.8746306
11
7.9745084
21
-4.063215
0
LINE
8
layer0
10
7.9745084
20
-4.063215
11
7.8768102
21
-4.2495839
0
LINE
8
layer0
10
7.8768102
20
-4.2495839
11
7.8050425
21
-4.3799512
0
LINE
8
layer0
10
7.8050425
20
-4.3799512
11
7.7979257
21
-4.3948659
0
LINE
8
layer0
10
7.7979257
20
-4.3948659
11
7.7921964
21
-4.4167052
0
LINE
8
layer0
10
7.7921964
20
-4.4167052
11
7.7908475
21
-4.4406305
0
LINE
8
layer0
10
7.7908475
20
-4.4406305
11
7.7939563
21
-4.466468
0
LINE
8
layer0
10
7.7939563
20
-4.466468
11
7.8016003
21
-4.4940439
0
LINE
8
layer0
10
7.8016003
20
-4.4940439
11
7.8138569
21
-4.5231619
0
LINE
8
layer0
10
7.8138569
20
-4.5231619
11
7.8307854
21
-4.5536616
0
LINE
8
layer0
10
7.8307854
20
-4.5536616
11
7.8524589
21
-4.5853556
0
LINE
8
layer0
10
7.8524589
20
-4.5853556
11
7.8789236
21
-4.618043
0
LINE
8
layer0
10
7.8789236
20
-4.618043
11
7.9464287
21
-4.6856931
0
LINE
8
layer0
10
7.9464287
20
-4.6856931
11
8.0336344
21
-4.755076
0
LINE
8
layer0
10
8.0336344
20
-4.755076
11
8.1309329
21
-4.8222501
0
LINE
8
layer0
10
8.1309329
20
-4.8222501
11
8.2243313
21
-4.8994796
0
LINE
8
layer0
10
8.2243313
20
-4.8994796
11
8.2855745
21
-4.9566215
0
LINE
8
layer0
10
8.2855745
20
-4.9566215
11
8.3561094
21
-5.0281273
0
LINE
8
layer0
10
8.3561094
20
-5.0281273
11
8.4343503
21
-5.1143115
0
LINE
8
layer0
10
8.4343503
20
-5.1143115
11
8.5206933
21
-5.2178112
0
LINE
8
layer0
10
8.5206933
20
-5.2178112
11
8.6119173
21
-5.336974
0
LINE
8
layer0
10
8.6119173
20
-5.336974
11
8.7084479
21
-5.4746654
0
LINE
8
layer0
10
8.7084479
20
-5.4746654
11
8.8072271
21
-5.6289795
0
LINE
8
layer0
10
8.8072271
20
-5.6289795
11
8.9075571
21
-5.8011094
0
LINE
8
layer0
10
8.9075571
20
-5.8011094
11
9.0088642
21
-5.9929738
0
LINE
8
layer0
10
9.0088642
20
-5.9929738
11
9.098854
21
-6.1814657
0
ARC
8
layer0
10
-0.000012
20
0.0000096
40
11
50
322.1909135
51
325.8090798
0
LINE
8
layer0
10
8.6906238
20
-6.7433464
11
8.483549
21
-6.7160083
0
LINE
8
layer0
10
8.483549
20
-6.7160083
11
8.2697694
21
-6.6789488
0
LINE
8
layer0
10
8.2697694
20
-6.6789488
11
8.0750604
21
-6.6367204
0
LINE
8
layer0
10
8.0750604
20
-6.6367204
11
7.8977746
21
-6.5904615
0
LINE
8
layer0
10
7.8977746
20
-6.5904615
11
7.7369927
21
-6.5412044
0
LINE
8
layer0
10
7.7369927
20
-6.5412044
11
7.5954723
21
-6.4912685
0
LINE
8
layer0
10
7.5954723
20
-6.4912685
11
7.4703569
21
-6.4411347
0
LINE
8
layer0
10
7.4703569
20
-6.4411347
11
7.3642131
21
-6.3933555
0
LINE
8
layer0
10
7.3642131
20
-6.3933555
11
7.2744105
21
-6.3483693
0
LINE
8
layer0
10
7.2744105
20
-6.3483693
11
7.2011401
21
-6.3077814
0
LINE
8
layer0
10
7.2011401
20
-6.3077814
11
7.0988288
21
-6.2428195
0
LINE
8
layer0
10
7.0988288
20
-6.2428195
11
7.0048755
21
-6.1710411
0
LINE
8
layer0
10
7.0048755
20
-6.1710411
11
6.9119405
21
-6.109544
0
LINE
8
layer0
10
6.9119405
20
-6.109544
11
6.8267412
21
-6.0662479
0
LINE
8
layer0
10
6.8267412
20
-6.0662479
11
6.7874756
21
-6.0511794
0
LINE
8
layer0
10
6.7874756
20
-6.0511794
11
6.7506353
21
-6.0403607
0
LINE
8
layer0
10
6.7506353
20
-6.0403607
11
6.7163972
21
-6.0336856
0
LINE
8
layer0
10
6.7163972
20
-6.0336856
11
6.6849168
21
-6.0310269
0
LINE
8
layer0
10
6.6849168
20
-6.0310269
11
6.6563285
21
-6.0322785
0
LINE
8
layer0
10
6.6563285
20
-6.0322785
11
6.6307948
21
-6.037306
0
LINE
8
layer0
10
6.6307948
20
-6.037306
11
6.6084573
21
-6.0459822
0
LINE
8
layer0
10
6.6084573
20
-6.0459822
11
6.5894574
21
-6.0581798
0
LINE
8
layer0
10
6.5894574
20
-6.0581798
11
6.5774719
21
-6.0695571
0
LINE
8
layer0
10
6.5774719
20
-6.0695571
11
6.4756627
21
-6.178098
0
LINE
8
layer0
10
6.4756627
20
-6.178098
11
6.3286057
21
-6.3286057
0
LINE
8
layer0
10
6.3286057
20
-6.3286057
11
6.178098
21
-6.4756627
0
LINE
8
layer0
10
6.178098
20
-6.4756627
11
6.0695571
21
-6.5774719
0
LINE
8
layer0
10
6.0695571
20
-6.5774719
11
6.0581798
21
-6.5894574
0
LINE
8
layer0
10
6.0581798
20
-6.5894574
11
6.0459822
21
-6.6084573
0
LINE
8
layer0
10
6.0459822
20
-6.6084573
11
6.037306
21
-6.6307948
0
LINE
8
layer0
10
6.037306
20
-6.6307948
11
6.0322785
21
-6.6563285
0
LINE
8
layer0
10
6.0322785
20
-6.6563285
11
6.0310269
21
-6.6849168
0
LINE
8
layer0
10
6.0310269
20
-6.6849168
11
6.0336856
21
-6.7163972
0
LINE
8
layer0
10
6.0336856
20
-6.7163972
11
6.0403607
21
-6.7506353
0
LINE
8
layer0
10
6.0403607
20
-6.7506353
11
6.0511794
21
-6.7874756
0
LINE
8
layer0
10
6.0511794
20
-6.7874756
11
6.0662479
21
-6.8267412
0
LINE
8
layer0
10
6.0662479
20
-6.8267412
11
6.109544
21
-6.9119405
0
LINE
8
layer0
10
6.109544
20
-6.9119405
11
6.1710411
21
-7.0048755
0
LINE
8
layer0
10
6.1710411
20
-7.0048755
11
6.2428195
21
-7.0988288
0
LINE
8
layer0
10
6.2428195
20
-7.0988288
11
6.3077814
21
-7.2011401
0
LINE
8
layer0
10
6.3077814
20
-7.2011401
11
6.3483693
21
-7.2744105
0
LINE
8
layer0
10
6.3483693
20
-7.2744105
11
6.3933555
21
-7.3642131
0
LINE
8
layer0
10
6.3933555
20
-7.3642131
11
6.4411347
21
-7.4703569
0
LINE
8
layer0
10
6.4411347
20
-7.4703569
11
6.4912685
21
-7.5954723
0
LINE
8
layer0
10
6.4912685
20
-7.5954723
11
6.5412044
21
-7.7369927
0
LINE
8
layer0
10
6.5412044
20
-7.7369927
11
6.5904615
21
-7.8977746
0
LINE
8
layer0
10
6.5904615
20
-7.8977746
11
6.6367204
21
-8.0750604
0
LINE
8
layer0
10
6.6367204
20
-8.0750604
11
6.6789488
21
-8.2697694
0
LINE
8
layer0
10
6.6789488
20
-8.2697694
11
6.7160083
21
-8.483549
0
LINE
8
layer0
10
6.7160083
20
-8.483549
11
6.7433464
21
-8.6906238
0
ARC
8
layer0
10
-0.0000095
20
0.000012
40
11
50
304.1909202
51
307.8090865
0
LINE
8
layer0
10
6.1814657
20
-9.098854
11
5.9929738
21
-9.0088642
0
LINE
8
layer0
10
5.9929738
20
-9.0088642
11
5.8011094
21
-8.9075571
0
LINE
8
layer0
10
5.8011094
20
-8.9075571
11
5.6289795
21
-8.8072271
0
LINE
8
layer0
10
5.6289795
20
-8.8072271
11
5.4746654
21
-8.7084479
0
LINE
8
layer0
10
5.4746654
20
-8.7084479
11
5.336974
21
-8.6119173
0
LINE
8
layer0
10
5.336974
20
-8.6119173
11
5.2178112
21
-8.5206933
0
LINE
8
layer0
10
5.2178112
20
-8.5206933
11
5.1143115
21
-8.4343503
0
LINE
8
layer0
10
5.1143115
20
-8.4343503
11
5.0281273
21
-8.3561094
0
LINE
8
layer0
10
5.0281273
20
-8.3561094
11
4.9566215
21
-8.2855745
0
LINE
8
layer0
10
4.9566215
20
-8.2855745
11
4.8994796
21
-8.2243313
0
LINE
8
layer0
10
4.8994796
20
-8.2243313
11
4.8222501
21
-8.1309329
0
LINE
8
layer0
10
4.8222501
20
-8.1309329
11
4.755076
21
-8.0336344
0
LINE
8
layer0
10
4.755076
20
-8.0336344
11
4.6856931
21
-7.9464287
0
LINE
8
layer0
10
4.6856931
20
-7.9464287
11
4.618043
21
-7.8789236
0
LINE
8
layer0
10
4.618043
20
-7.8789236
11
4.5853556
21
-7.8524589
0
LINE
8
layer0
10
4.5853556
20
-7.8524589
11
4.5536616
21
-7.8307854
0
LINE
8
layer0
10
4.5536616
20
-7.8307854
11
4.5231619
21
-7.8138569
0
LINE
8
layer0
10
4.5231619
20
-7.8138569
11
4.4940439
21
-7.8016003
0
LINE
8
layer0
10
4.4940439
20
-7.8016003
11
4.466468
21
-7.7939563
0
LINE
8
layer0
10
4.466468
20
-7.7939563
11
4.4406305
21
-7.7908475
0
LINE
8
layer0
10
4.4406305
20
-7.7908475
11
4.4167052
21
-7.7921964
0
LINE
8
layer0
10
4.4167052
20
-7.7921964
11
4.3948659
21
-7.7979257
0
LINE
8
layer0
10
4.3948659
20
-7.7979257
11
4.3799512
21
-7.8050425
0
LINE
8
layer0
10
4.3799512
20
-7.8050425
11
4.2495839
21
-7.8768102
0
LINE
8
layer0
10
4.2495839
20
-7.8768102
11
4.063215
21
-7.9745084
0
LINE
8
layer0
10
4.063215
20
-7.9745084
11
3.8746306
21
-8.0678585
0
LINE
8
layer0
10
3.8746306
20
-8.0678585
11
3.7399412
21
-8.1311438
0
LINE
8
layer0
10
3.7399412
20
-8.1311438
11
3.725417
21
-8.1390269
0
LINE
8
layer0
10
3.725417
20
-8.1390269
11
3.7079451
21
-8.1533277
0
LINE
8
layer0
10
3.7079451
20
-8.1533277
11
3.6927909
21
-8.1718908
0
LINE
8
layer0
10
3.6927909
20
-8.1718908
11
3.6801191
21
-8.1946211
0
LINE
8
layer0
10
3.6801191
20
-8.1946211
11
3.6700945
21
-8.2214235
0
LINE
8
layer0
10
3.6700945
20
-8.2214235
11
3.6628951
21
-8.2521847
0
LINE
8
layer0
10
3.6628951
20
-8.2521847
11
3.6586634
21
-8.2868098
0
LINE
8
layer0
10
3.6586634
20
-8.2868098
11
3.6575683
21
-8.3251901
0
LINE
8
layer0
10
3.6575683
20
-8.3251901
11
3.6597655
21
-8.3671904
0
LINE
8
layer0
10
3.6597655
20
-8.3671904
11
3.6746146
21
-8.461599
0
LINE
8
layer0
10
3.6746146
20
-8.461599
11
3.7043833
21
-8.5689891
0
LINE
8
layer0
10
3.7043833
20
-8.5689891
11
3.7436154
21
-8.6805247
0
LINE
8
layer0
10
3.7436154
20
-8.6805247
11
3.7737819
21
-8.7979029
0
LINE
8
layer0
10
3.7737819
20
-8.7979029
11
3.7897415
21
-8.8801295
0
LINE
8
layer0
10
3.7897415
20
-8.8801295
11
3.8047754
21
-8.9794383
0
LINE
8
layer0
10
3.8047754
20
-8.9794383
11
3.8174159
21
-9.0951517
0
LINE
8
layer0
10
3.8174159
20
-9.0951517
11
3.8264332
21
-9.2296358
0
LINE
8
layer0
10
3.8264332
20
-9.2296358
11
3.8301929
21
-9.3796606
0
LINE
8
layer0
10
3.8301929
20
-9.3796606
11
3.8273548
21
-9.5477946
0
LINE
8
layer0
10
3.8273548
20
-9.5477946
11
3.8165653
21
-9.7306982
0
LINE
8
layer0
10
3.8165653
20
-9.7306982
11
3.7965585
21
-9.9289267
0
LINE
8
layer0
10
3.7965585
20
-9.9289267
11
3.7657426
21
-10.1436952
0
LINE
8
layer0
10
3.7657426
20
-10.1436952
11
3.7277531
21
-10.349083
0
ARC
8
layer0
10
-0.0000047
20
0.0000146
40
11
50
286.1909167
51
289.8090831
0
LINE
8
layer0
10
3.0672228
20
-10.5637023
11
2.9157647
21
-10.4198698
0
LINE
8
layer0
10
2.9157647
20
-10.4198698
11
2.7645963
21
-10.2642316
0
LINE
8
layer0
10
2.7645963
20
-10.2642316
11
2.6318948
21
-10.115621
0
LINE
8
layer0
10
2.6318948
20
-10.115621
11
2.5156578
21
-9.9739908
0
LINE
8
layer0
10
2.5156578
20
-9.9739908
11
2.4145351
21
-9.8396357
0
LINE
8
layer0
10
2.4145351
20
-9.8396357
11
2.3293943
21
-9.7160532
0
LINE
8
layer0
10
2.3293943
20
-9.7160532
11
2.2576417
21
-9.601953
0
LINE
8
layer0
10
2.2576417
20
-9.601953
11
2.1998535
21
-9.5009091
0
LINE
8
layer0
10
2.1998535
20
-9.5009091
11
2.1536439
21
-9.4117299
0
LINE
8
layer0
10
2.1536439
20
-9.4117299
11
2.1182238
21
-9.3358263
0
LINE
8
layer0
10
2.1182238
20
-9.3358263
11
2.0736359
21
-9.223134
0
LINE
8
layer0
10
2.0736359
20
-9.223134
11
2.0398164
21
-9.1098397
0
LINE
8
layer0
10
2.0398164
20
-9.1098397
11
2.0007775
21
-9.0054616
0
LINE
8
layer0
10
2.0007775
20
-9.0054616
11
1.9572986
21
-8.9203554
0
LINE
8
layer0
10
1.9572986
20
-8.9203554
11
1.9343891
21
-8.885085
0
LINE
8
layer0
10
1.9343891
20
-8.885085
11
1.9109438
21
-8.8546783
0
LINE
8
layer0
10
1.9109438
20
-8.8546783
11
1.8871681
21
-8.8291534
0
LINE
8
layer0
10
1.8871681
20
-8.8291534
11
1.8632626
21
-8.8084987
0
LINE
8
layer0
10
1.8632626
20
-8.8084987
11
1.8393985
21
-8.7927075
0
LINE
8
layer0
10
1.8393985
20
-8.7927075
11
1.8157863
21
-8.7817666
0
LINE
8
layer0
10
1.8157863
20
-8.7817666
11
1.7926151
21
-8.7756561
0
LINE
8
layer0
10
1.7926151
20
-8.7756561
11
1.7700743
21
-8.7743563
0
LINE
8
layer0
10
1.7700743
20
-8.7743563
11
1.7536904
21
-8.7765159
0
LINE
8
layer0
10
1.7536904
20
-8.7765159
11
1.6075263
21
-8.8044853
0
LINE
8
layer0
10
1.6075263
20
-8.8044853
11
1.4000885
21
-8.8398106
0
LINE
8
layer0
10
1.4000885
20
-8.8398106
11
1.1918873
21
-8.8703161
0
LINE
8
layer0
10
1.1918873
20
-8.8703161
11
1.0442339
21
-8.8888827
0
LINE
8
layer0
10
1.0442339
20
-8.8888827
11
1.0279845
21
-8.8918917
0
LINE
8
layer0
10
1.0279845
20
-8.8918917
11
1.0069486
21
-8.9000935
0
LINE
8
layer0
10
1.0069486
20
-8.9000935
11
0.9867997
21
-8.9130651
0
LINE
8
layer0
10
0.9867997
20
-8.9130651
11
0.9677241
21
-8.9307672
0
LINE
8
layer0
10
0.9677241
20
-8.9307672
11
0.9499077
21
-8.9531599
0
LINE
8
layer0
10
0.9499077
20
-8.9531599
11
0.933555
21
-8.9801909
0
LINE
8
layer0
10
0.933555
20
-8.9801909
11
0.9188306
21
-9.0118136
0
LINE
8
layer0
10
0.9188306
20
-9.0118136
11
0.9059289
21
-9.0479771
0
LINE
8
layer0
10
0.9059289
20
-9.0479771
11
0.8950398
21
-9.0886007
0
LINE
8
layer0
10
0.8950398
20
-9.0886007
11
0.8799882
21
-9.1829772
0
LINE
8
layer0
10
0.8799882
20
-9.1829772
11
0.8751146
21
-9.2943103
0
LINE
8
layer0
10
0.8751146
20
-9.2943103
11
0.8779602
21
-9.4125104
0
LINE
8
layer0
10
0.8779602
20
-9.4125104
11
0.8703784
21
-9.5334656
0
LINE
8
layer0
10
0.8703784
20
-9.5334656
11
0.8601475
21
-9.6165996
0
LINE
8
layer0
10
0.8601475
20
-9.6165996
11
0.8437574
21
-9.7156936
0
LINE
8
layer0
10
0.8437574
20
-9.7156936
11
0.8200218
21
-9.8296496
0
LINE
8
layer0
10
0.8200218
20
-9.8296496
11
0.7870399
21
-9.9603381
0
LINE
8
layer0
10
0.7870399
20
-9.9603381
11
0.7442553
21
-10.1041821
0
LINE
8
layer0
10
0.7442553
20
-10.1041821
11
0.6895999
21
-10.26321
0
LINE
8
layer0
10
0.6895999
20
-10.26321
11
0.6228181
21
-10.4338275
0
LINE
8
layer0
10
0.6228181
20
-10.4338275
11
0.5425346
21
-10.6161716
0
LINE
8
layer0
10
0.5425346
20
-10.6161716
11
0.4468599
21
-10.8109059
0
LINE
8
layer0
10
0.4468599
20
-10.8109059
11
0.3472613
21
-10.9945019
0
ARC
8
layer0
10
0
20
0.0000153
40
11
50
268.1909164
51
271.809083
0
LINE
8
layer0
10
-0.3472613
20
-10.9945019
11
-0.4468599
21
-10.8109059
0
LINE
8
layer0
10
-0.4468599
20
-10.8109059
11
-0.5425346
21
-10.6161716
0
LINE
8
layer0
10
-0.5425346
20
-10.6161716
11
-0.6228181
21
-10.4338275
0
LINE
8
layer0
10
-0.6228181
20
-10.4338275
11
-0.6895999
21
-10.26321
0
LINE
8
layer0
10
-0.6895999
20
-10.26321
11
-0.7442553
21
-10.1041821
0
LINE
8
layer0
10
-0.7442553
20
-10.1041821
11
-0.7870399
21
-9.9603381
0
LINE
8
layer0
10
-0.7870399
20
-9.9603381
11
-0.8200218
21
-9.8296496
0
LINE
8
layer0
10
-0.8200218
20
-9.8296496
11
-0.8437574
21
-9.7156936
0
LINE
8
layer0
10
-0.8437574
20
-9.7156936
11
-0.8601475
21
-9.6165996
0
LINE
8
layer0
10
-0.8601475
20
-9.6165996
11
-0.8703784
21
-9.5334656
0
LINE
8
layer0
10
-0.8703784
20
-9.5334656
11
-0.8779602
21
-9.4125104
0
LINE
8
layer0
10
-0.8779602
20
-9.4125104
11
-0.8751146
21
-9.2943103
0
LINE
8
layer0
10
-0.8751146
20
-9.2943103
11
-0.8799882
21
-9.1829772
0
LINE
8
layer0
10
-0.8799882
20
-9.1829772
11
-0.8950398
21
-9.0886007
0
LINE
8
layer0
10
-0.8950398
20
-9.0886007
11
-0.9059289
21
-9.0479771
0
LINE
8
layer0
10
-0.9059289
20
-9.0479771
11
-0.9188306
21
-9.0118136
0
LINE
8
layer0
10
-0.9188306
20
-9.0118136
11
-0.933555
21
-8.9801909
0
LINE
8
layer0
10
-0.933555
20
-8.9801909
11
-0.9499077
21
-8.9531599
0
LINE
8
layer0
10
-0.9499077
20
-8.9531599
11
-0.9677241
21
-8.9307672
0
LINE
8
layer0
10
-0.9677241
20
-8.9307672
11
-0.9867997
21
-8.9130651
0
LINE
8
layer0
10
-0.9867997
20
-8.9130651
11
-1.0069486
21
-8.9000935
0
LINE
8
layer0
10
-1.0069486
20
-8.9000935
11
-1.0279845
21
-8.8918917
0
LINE
8
layer0
10
-1.0279845
20
-8.8918917
11
-1.0442339
21
-8.8888827
0
LINE
8
layer0
10
-1.0442339
20
-8.8888827
11
-1.1918873
21
-8.8703161
0
LINE
8
layer0
10
-1.1918873
20
-8.8703161
11
-1.4000885
21
-8.8398106
0
LINE
8
layer0
10
-1.4000885
20
-8.8398106
11
-1.6075263
21
-8.8044853
0
LINE
8
layer0
10
-1.6075263
20
-8.8044853
11
-1.7536904
21
-8.7765159
0
LINE
8
layer0
10
-1.7536904
20
-8.7765159
11
-1.7700743
21
-8.7743563
0
LINE
8
layer0
10
-1.7700743
20
-8.7743563
11
-1.7926151
21
-8.7756561
0
LINE
8
layer0
10
-1.7926151
20
-8.7756561
11
-1.8157863
21
-8.7817666
0
LINE
8
layer0
10
-1.8157863
20
-8.7817666
11
-1.8393985
21
-8.7927075
0
LINE
8
layer0
10
-1.8393985
20
-8.7927075
11
-1.8632626
21
-8.8084987
0
LINE
8
layer0
10
-1.8632626
20
-8.8084987
11
-1.8871681
21
-8.8291534
0
LINE
8
layer0
10
-1.8871681
20
-8.8291534
11
-1.9109438
21
-8.8546783
0
LINE
8
layer0
10
-1.9109438
20
-8.8546783
11
-1.9343891
21
-8.885085
0
LINE
8
layer0
10
-1.9343891
20
-8.885085
11
-1.9572986
21
-8.9203554
0
LINE
8
layer0
10
-1.9572986
20
-8.9203554
11
-2.0007775
21
-9.0054616
0
LINE
8
layer0
10
-2.0007775
20
-9.0054616
11
-2.0398164
21
-9.1098397
0
LINE
8
layer0
10
-2.0398164
20
-9.1098397
11
-2.0736359
21
-9.223134
0
LINE
8
layer0
10
-2.0736359
20
-9.223134
11
-2.1182238
21
-9.3358263
0
LINE
8
layer0
10
-2.1182238
20
-9.3358263
11
-2.1536439
21
-9.4117299
0
LINE
8
layer0
10
-2.1536439
20
-9.4117299
11
-2.1998535
21
-9.5009091
0
LINE
8
layer0
10
-2.1998535
20
-9.5009091
11
-2.2576417
21
-9.601953
0
LINE
8
layer0
10
-2.2576417
20
-9.601953
11
-2.3293943
21
-9.7160532
0
LINE
8
layer0
10
-2.3293943
20
-9.7160532
11
-2.4145351
21
-9.8396357
0
LINE
8
layer0
10
-2.4145351
20
-9.8396357
11
-2.5156578
21
-9.9739908
0
LINE
8
layer0
10
-2.5156578
20
-9.9739908
11
-2.6318948
21
-10.115621
0
LINE
8
layer0
10
-2.6318948
20
-10.115621
11
-2.7645963
21
-10.2642316
0
LINE
8
layer0
10
-2.7645963
20
-10.2642316
11
-2.9157647
21
-10.4198698
0
LINE
8
layer0
10
-2.9157647
20
-10.4198698
11
-3.0672228
21
-10.5637023
0
ARC
8
layer0
10
0.0000046
20
0.0000147
40
11
50
250.1909176
51
253.8090839
0
LINE
8
layer0
10
-3.7277531
20
-10.349083
11
-3.7657426
21
-10.1436952
0
LINE
8
layer0
10
-3.7657426
20
-10.1436952
11
-3.7965585
21
-9.9289267
0
LINE
8
layer0
10
-3.7965585
20
-9.9289267
11
-3.8165653
21
-9.7306982
0
LINE
8
layer0
10
-3.8165653
20
-9.7306982
11
-3.8273548
21
-9.5477946
0
LINE
8
layer0
10
-3.8273548
20
-9.5477946
11
-3.8301929
21
-9.3796606
0
LINE
8
layer0
10
-3.8301929
20
-9.3796606
11
-3.8264332
21
-9.2296358
0
LINE
8
layer0
10
-3.8264332
20
-9.2296358
11
-3.8174159
21
-9.0951517
0
LINE
8
layer0
10
-3.8174159
20
-9.0951517
11
-3.8047754
21
-8.9794383
0
LINE
8
layer0
10
-3.8047754
20
-8.9794383
11
-3.7897415
21
-8.8801295
0
LINE
8
layer0
10
-3.7897415
20
-8.8801295
11
-3.7737819
21
-8.7979029
0
LINE
8
layer0
10
-3.7737819
20
-8.7979029
11
-3.7436154
21
-8.6805247
0
LINE
8
layer0
10
-3.7436154
20
-8.6805247
11
-3.7043833
21
-8.5689891
0
LINE
8
layer0
10
-3.7043833
20
-8.5689891
11
-3.6746146
21
-8.461599
0
LINE
8
layer0
10
-3.6746146
20
-8.461599
11
-3.6597655
21
-8.3671904
0
LINE
8
layer0
10
-3.6597655
20
-8.3671904
11
-3.6575683
21
-8.3251901
0
LINE
8
layer0
10
-3.6575683
20
-8.3251901
11
-3.6586634
21
-8.2868098
0
LINE
8
layer0
10
-3.6586634
20
-8.2868098
11
-3.6628951
21
-8.2521847
0
LINE
8
layer0
10
-3.6628951
20
-8.2521847
11
-3.6700945
21
-8.2214235
0
LINE
8
layer0
10
-3.6700945
20
-8.2214235
11
-3.6801191
21
-8.1946211
0
LINE
8
layer0
10
-3.6801191
20
-8.1946211
11
-3.6927909
21
-8.1718908
0
LINE
8
layer0
10
-3.6927909
20
-8.1718908
11
-3.7079451
21
-8.1533277
0
LINE
8
layer0
10
-3.7079451
20
-8.1533277
11
-3.725417
21
-8.1390269
0
LINE
8
layer0
10
-3.725417
20
-8.1390269
11
-3.7399412
21
-8.1311438
0
LINE
8
layer0
10
-3.7399412
20
-8.1311438
11
-3.8746306
21
-8.0678585
0
LINE
8
layer0
10
-3.8746306
20
-8.0678585
11
-4.063215
21
-7.9745084
0
LINE
8
layer0
10
-4.063215
20
-7.9745084
11
-4.2495839
21
-7.8768102
0
LINE
8
layer0
10
-4.2495839
20
-7.8768102
11
-4.3799512
21
-7.8050425
0
LINE
8
layer0
10
-4.3799512
20
-7.8050425
11
-4.3948659
21
-7.7979257
0
LINE
8
layer0
10
-4.3948659
20
-7.7979257
11
-4.4167052
21
-7.7921964
0
LINE
8
layer0
10
-4.4167052
20
-7.7921964
11
-4.4406305
21
-7.7908475
0
LINE
8
layer0
10
-4.4406305
20
-7.7908475
11
-4.466468
21
-7.7939563
0
LINE
8
layer0
10
-4.466468
20
-7.7939563
11
-4.4940439
21
-7.8016003
0
LINE
8
layer0
10
-4.4940439
20
-7.8016003
11
-4.5231619
21
-7.8138569
0
LINE
8
layer0
10
-4.5231619
20
-7.8138569
11
-4.5536616
21
-7.8307854
0
LINE
8
layer0
10
-4.5536616
20
-7.8307854
11
-4.5853556
21
-7.8524589
0
LINE
8
layer0
10
-4.5853556
20
-7.8524589
11
-4.618043
21
-7.8789236
0
LINE
8
layer0
10
-4.618043
20
-7.8789236
11
-4.6856931
21
-7.9464287
0
LINE
8
layer0
10
-4.6856931
20
-7.9464287
11
-4.755076
21
-8.0336344
0
LINE
8
layer0
10
-4.755076
20
-8.0336344
11
-4.8222501
21
-8.1309329
0
LINE
8
layer0
10
-4.8222501
20
-8.1309329
11
-4.8994796
21
-8.2243313
0
LINE
8
layer0
10
-4.8994796
20
-8.2243313
11
-4.9566215
21
-8.2855745
0
LINE
8
layer0
10
-4.9566215
20
-8.2855745
11
-5.0281273
21
-8.3561094
0
LINE
8
layer0
10
-5.0281273
20
-8.3561094
11
-5.1143115
21
-8.4343503
0
LINE
8
layer0
10
-5.1143115
20
-8.4343503
11
-5.2178112
21
-8.5206933
0
LINE
8
layer0
10
-5.2178112
20
-8.5206933
11
-5.336974
21
-8.6119173
0
LINE
8
layer0
10
-5.336974
20
-8.6119173
11
-5.4746654
21
-8.7084479
0
LINE
8
layer0
10
-5.4746654
20
-8.7084479
11
-5.6289795
21
-8.8072271
0
LINE
8
layer0
10
-5.6289795
20
-8.8072271
11
-5.8011094
21
-8.9075571
0
LINE
8
layer0
10
-5.8011094
20
-8.9075571
11
-5.9929738
21
-9.0088642
0
LINE
8
layer0
10
-5.9929738
20
-9.0088642
11
-6.1814657
21
-9.098854
0
ARC
8
layer0
10
0.0000096
20
0.000012
40
11
50
232.1909135
51
235.8090798
0
LINE
8
layer0
10
-6.7433464
20
-8.6906238
11
-6.7160083
21
-8.483549
0
LINE
8
layer0
10
-6.7160083
20
-8.483549
11
-6.6789488
21
-8.2697694
0
LINE
8
layer0
10
-6.6789488
20
-8.2697694
11
-6.6367204
21
-8.0750604
0
LINE
8
layer0
10
-6.6367204
20
-8.0750604
11
-6.5904615
21
-7.8977746
0
LINE
8
layer0
10
-6.5904615
20
-7.8977746
11
-6.5412044
21
-7.7369927
0
LINE
8
layer0
10
-6.5412044
20
-7.7369927
11
-6.4912685
21
-7.5954723
0
LINE
8
layer0
10
-6.4912685
20
-7.5954723
11
-6.4411347
21
-7.4703569
0
LINE
8
layer0
10
-6.4411347
20
-7.4703569
11
-6.3933555
21
-7.3642131
0
LINE
8
layer0
10
-6.3933555
20
-7.3642131
11
-6.3483693
21
-7.2744105
0
LINE
8
layer0
10
-6.3483693
20
-7.2744105
11
-6.3077814
21
-7.2011401
0
LINE
8
layer0
10
-6.3077814
20
-7.2011401
11
-6.2428195
21
-7.0988288
0
LINE
8
layer0
10
-6.2428195
20
-7.0988288
11
-6.1710411
21
-7.0048755
0
LINE
8
layer0
10
-6.1710411
20
-7.0048755
11
-6.109544
21
-6.9119405
0
LINE
8
layer0
10
-6.109544
20
-6.9119405
11
-6.0662479
21
-6.8267412
0
LINE
8
layer0
10
-6.0662479
20
-6.8267412
11
-6.0511794
21
-6.7874756
0
LINE
8
layer0
10
-6.0511794
20
-6.7874756
11
-6.0403607
21
-6.7506353
0
LINE
8
layer0
10
-6.0403607
20
-6.7506353
11
-6.0336856
21
-6.7163972
0
LINE
8
layer0
10
-6.0336856
20
-6.7163972
11
-6.0310269
21
-6.6849168
0
LINE
8
layer0
10
-6.0310269
20
-6.6849168
11
-6.0322785
21
-6.6563285
0
LINE
8
layer0
10
-6.0322785
20
-6.6563285
11
-6.037306
21
-6.6307948
0
LINE
8
layer0
10
-6.037306
20
-6.6307948
11
-6.0459822
21
-6.6084573
0
LINE
8
layer0
10
-6.0459822
20
-6.6084573
11
-6.0581798
21
-6.5894574
0
LINE
8
layer0
10
-6.0581798
20
-6.5894574
11
-6.0695571
21
-6.5774719
0
LINE
8
layer0
10
-6.0695571
20
-6.5774719
11
-6.178098
21
-6.4756627
0
LINE
8
layer0
10
-6.178098
20
-6.4756627
11
-6.3286057
21
-6.3286057
0
LINE
8
layer0
10
-6.3286057
20
-6.3286057
11
-6.4756627
21
-6.178098
0
LINE
8
layer0
10
-6.4756627
20
-6.178098
11
-6.5774719
21
-6.0695571
0
LINE
8
layer0
10
-6.5774719
20
-6.0695571
11
-6.5894574
21
-6.0581798
0
LINE
8
layer0
10
-6.5894574
20
-6.0581798
11
-6.6084573
21
-6.0459822
0
LINE
8
layer0
10
-6.6084573
20
-6.0459822
11
-6.6307948
21
-6.037306
0
LINE
8
layer0
10
-6.6307948
20
-6.037306
11
-6.6563285
21
-6.0322785
0
LINE
8
layer0
10
-6.6563285
20
-6.0322785
11
-6.6849168
21
-6.0310269
0
LINE
8
layer0
10
-6.6849168
20
-6.0310269
11
-6.7163972
21
-6.0336856
0
LINE
8
layer0
10
-6.7163972
20
-6.0336856
11
-6.7506353
21
-6.0403607
0
LINE
8
layer0
10
-6.7506353
20
-6.0403607
11
-6.7874756
21
-6.0511794
0
LINE
8
layer0
10
-6.7874756
20
-6.0511794
11
-6.8267412
21
-6.0662479
0
LINE
8
layer0
10
-6.8267412
20
-6.0662479
11
-6.9119405
21
-6.109544
0
LINE
8
layer0
10
-6.9119405
20
-6.109544
11
-7.0048755
21
-6.1710411
0
LINE
8
layer0
10
-7.0048755
20
-6.1710411
11
-7.0988288
21
-6.2428195
0
LINE
8
layer0
10
-7.0988288
20
-6.2428195
11
-7.2011401
21
-6.3077814
0
LINE
8
layer0
10
-7.2011401
20
-6.3077814
11
-7.2744105
21
-6.3483693
0
LINE
8
layer0
10
-7.2744105
20
-6.3483693
11
-7.3642131
21
-6.3933555
0
LINE
8
layer0
10
-7.3642131
20
-6.3933555
11
-7.4703569
21
-6.4411347
0
LINE
8
layer0
10
-7.4703569
20
-6.4411347
11
-7.5954723
21
-6.4912685
0
LINE
8
layer0
10
-7.5954723
20
-6.4912685
11
-7.7369927
21
-6.5412044
0
LINE
8
layer0
10
-7.7369927
20
-6.5412044
11
-7.8977746
21
-6.5904615
0
LINE
8
layer0
10
-7.8977746
20
-6.5904615
11
-8.0750604
21
-6.6367204
0
LINE
8
layer0
10
-8.0750604
20
-6.6367204
11
-8.2697694
21
-6.6789488
0
LINE
8
layer0
10
-8.2697694
20
-6.6789488
11
-8.483549
21
-6.7160083
0
LINE
8
layer0
10
-8.483549
20
-6.7160083
11
-8.6906238
21
-6.7433464
0
ARC
8
layer0
10
0.000012
20
0.0000095
40
11
50
214.1909202
51
217.8090865
0
LINE
8
layer0
10
-9.098854
20
-6.1814657
11
-9.0088642
21
-5.9929738
0
LINE
8
layer0
10
-9.0088642
20
-5.9929738
11
-8.9075571
21
-5.8011094
0
LINE
8
layer0
10
-8.9075571
20
-5.8011094
11
-8.8072271
21
-5.6289795
0
LINE
8
layer0
10
-8.8072271
20
-5.6289795
11
-8.7084479
21
-5.4746654
0
LINE
8
layer0
10
-8.7084479
20
-5.4746654
11
-8.6119173
21
-5.336974
0
LINE
8
layer0
10
-8.6119173
20
-5.336974
11
-8.5206933
21
-5.2178112
0
LINE
8
layer0
10
-8.5206933
20
-5.2178112
11
-8.4343503
21
-5.1143115
0
LINE
8
layer0
10
-8.4343503
20
-5.1143115
11
-8.3561094
21
-5.0281273
0
LINE
8
layer0
10
-8.3561094
20
-5.0281273
11
-8.2855745
21
-4.9566215
0
LINE
8
layer0
10
-8.2855745
20
-4.9566215
11
-8.2243313
21
-4.8994796
0
LINE
8
layer0
10
-8.2243313
20
-4.8994796
11
-8.1309329
21
-4.8222501
0
LINE
8
layer0
10
-8.1309329
20
-4.8222501
11
-8.0336344
21
-4.755076
0
LINE
8
layer0
10
-8.0336344
20
-4.755076
11
-7.9464287
21
-4.6856931
0
LINE
8
layer0
10
-7.9464287
20
-4.6856931
11
-7.8789236
21
-4.618043
0
LINE
8
layer0
10
-7.8789236
20
-4.618043
11
-7.8524589
21
-4.5853556
0
LINE
8
layer0
10
-7.8524589
20
-4.5853556
11
-7.8307854
21
-4.5536616
0
LINE
8
layer0
10
-7.8307854
20
-4.5536616
11
-7.8138569
21
-4.5231619
0
LINE
8
layer0
10
-7.8138569
20
-4.5231619
11
-7.8016003
21
-4.4940439
0
LINE
8
layer0
10
-7.8016003
20
-4.4940439
11
-7.7939563
21
-4.466468
0
LINE
8
layer0
10
-7.7939563
20
-4.466468
11
-7.7908475
21
-4.4406305
0
LINE
8
layer0
10
-7.7908475
20
-4.4406305
11
-7.7921964
21
-4.4167052
0
LINE
8
layer0
10
-7.7921964
20
-4.4167052
11
-7.7979257
21
-4.3948659
0
LINE
8
layer0
10
-7.7979257
20
-4.3948659
11
-7.8050425
21
-4.3799512
0
LINE
8
layer0
10
-7.8050425
20
-4.3799512
11
-7.8768102
21
-4.2495839
0
LINE
8
layer0
10
-7.8768102
20
-4.2495839
11
-7.9745084
21
-4.063215
0
LINE
8
layer0
10
-7.9745084
20
-4.063215
11
-8.0678585
21
-3.8746306
0
LINE
8
layer0
10
-8.0678585
20
-3.8746306
11
-8.1311438
21
-3.7399412
0
LINE
8
layer0
10
-8.1311438
20
-3.7399412
11
-8.1390269
21
-3.725417
0
LINE
8
layer0
10
-8.1390269
20
-3.725417
11
-8.1533277
21
-3.7079451
0
LINE
8
layer0
10
-8.1533277
20
-3.7079451
11
-8.1718908
21
-3.6927909
0
LINE
8
layer0
10
-8.1718908
20
-3.6927909
11
-8.1946211
21
-3.6801191
0
LINE
8
layer0
10
-8.1946211
20
-3.6801191
11
-8.2214235
21
-3.6700945
0
LINE
8
layer0
10
-8.2214235
20
-3.6700945
11
-8.2521847
21
-3.6628951
0
LINE
8
layer0
10
-8.2521847
20
-3.6628951
11
-8.2868098
21
-3.6586634
0
LINE
8
layer0
10
-8.2868098
20
-3.6586634
11
-8.3251901
21
-3.6575683
0
LINE
8
layer0
10
-8.3251901
20
-3.6575683
11
-8.3671904
21
-3.6597655
0
LINE
8
layer0
10
-8.3671904
20
-3.6597655
11
-8.461599
21
-3.6746146
0
LINE
8
layer0
10
-8.461599
20
-3.6746146
11
-8.5689891
21
-3.7043833
0
LINE
8
layer0
10
-8.5689891
20
-3.7043833
11
-8.6805247
21
-3.7436154
0
LINE
8
layer0
10
-8.6805247
20
-3.7436154
11
-8.7979029
21
-3.7737819
0
LINE
8
layer0
10
-8.7979029
20
-3.7737819
11
-8.8801295
21
-3.7897415
0
LINE
8
layer0
10
-8.8801295
20
-3.7897415
11
-8.9794383
21
-3.8047754
0
LINE
8
layer0
10
-8.9794383
20
-3.8047754
11
-9.0951517
21
-3.8174159
0
LINE
8
layer0
10
-9.0951517
20
-3.8174159
11
-9.2296358
21
-3.8264332
0
LINE
8
layer0
10
-9.2296358
20
-3.8264332
11
-9.3796606
21
-3.8301929
0
LINE
8
layer0
10
-9.3796606
20
-3.8301929
11
-9.5477946
21
-3.8273548
0
LINE
8
layer0
10
-9.5477946
20
-3.8273548
11
-9.7306982
21
-3.8165653
0
LINE
8
layer0
10
-9.7306982
20
-3.8165653
11
-9.9289267
21
-3.7965585
0
LINE
8
layer0
10
-9.9289267
20
-3.7965585
11
-10.1436952
21
-3.7657426
0
LINE
8
layer0
10
-10.1436952
20
-3.7657426
11
-10.349083
21
-3.7277531
0
ARC
8
layer0
10
0.0000146
20
0.0000047
40
11
50
196.1909167
51
199.8090831
0
LINE
8
layer0
10
-10.5637023
20
-3.0672228
11
-10.4198698
21
-2.9157647
0
LINE
8
layer0
10
-10.4198698
20
-2.9157647
11
-10.2642316
21
-2.7645963
0
LINE
8
layer0
10
-10.2642316
20
-2.7645963
11
-10.115621
21
-2.6318948
0
LINE
8
layer0
10
-10.115621
20
-2.6318948
11
-9.9739908
21
-2.5156578
0
LINE
8
layer0
10
-9.9739908
20
-2.5156578
11
-9.8396357
21
-2.4145351
0
LINE
8
layer0
10
-9.8396357
20
-2.4145351
11
-9.7160532
21
-2.3293943
0
LINE
8
layer0
10
-9.7160532
20
-2.3293943
11
-9.601953
21
-2.2576417
0
LINE
8
layer0
10
-9.601953
20
-2.2576417
11
-9.5009091
21
-2.1998535
0
LINE
8
layer0
10
-9.5009091
20
-2.1998535
11
-9.4117299
21
-2.1536439
0
LINE
8
layer0
10
-9.4117299
20
-2.1536439
11
-9.3358263
21
-2.1182238
0
LINE
8
layer0
10
-9.3358263
20
-2.1182238
11
-9.223134
21
-2.0736359
0
LINE
8
layer0
10
-9.223134
20
-2.0736359
11
-9.1098397
21
-2.0398164
0
LINE
8
layer0
10
-9.1098397
20
-2.0398164
11
-9.0054616
21
-2.0007775
0
LINE
8
layer0
10
-9.0054616
20
-2.0007775
11
-8.9203554
21
-1.9572986
0
LINE
8
layer0
10
-8.9203554
20
-1.9572986
11
-8.885085
21
-1.9343891
0
LINE
8
layer0
10
-8.885085
20
-1.9343891
11
-8.8546783
21
-1.9109438
0
LINE
8
layer0
10
-8.8546783
20
-1.9109438
11
-8.8291534
21
-1.8871681
0
LINE
8
layer0
10
-8.8291534
20
-1.8871681
11
-8.8084987
21
-1.8632626
0
LINE
8
layer0
10
-8.8084987
20
-1.8632626
11
-8.7927075
21
-1.8393985
0
LINE
8
layer0
10
-8.7927075
20
-1.8393985
11
-8.7817666
21
-1.8157863
0
LINE
8
layer0
10
-8.7817666
20
-1.8157863
11
-8.7756561
21
-1.7926151
0
LINE
8
layer0
10
-8.7756561
20
-1.7926151
11
-8.7743563
21
-1.7700743
0
LINE
8
layer0
10
-8.7743563
20
-1.7700743
11
-8.7765159
21
-1.7536904
0
LINE
8
layer0
10
-8.7765159
20
-1.7536904
11
-8.8044853
21
-1.6075263
0
LINE
8
layer0
10
-8.8044853
20
-1.6075263
11
-8.8398106
21
-1.4000885
0
LINE
8
layer0
10
-8.8398106
20
-1.4000885
11
-8.8703161
21
-1.1918873
0
LINE
8
layer0
10
-8.8703161
20
-1.1918873
11
-8.8888827
21
-1.0442339
0
LINE
8
layer0
10
-8.8888827
20
-1.0442339
11
-8.8918917
21
-1.0279845
0
LINE
8
layer0
10
-8.8918917
20
-1.0279845
11
-8.9000935
21
-1.0069486
0
LINE
8
layer0
10
-8.9000935
20
-1.0069486
11
-8.9130651
21
-0.9867997
0
LINE
8
layer0
10
-8.9130651
20
-0.9867997
11
-8.9307672
21
-0.9677241
0
LINE
8
layer0
10
-8.9307672
20
-0.9677241
11
-8.9531599
21
-0.9499077
0
LINE
8
layer0
10
-8.9531599
20
-0.9499077
11
-8.9801909
21
-0.933555
0
LINE
8
layer0
10
-8.9801909
20
-0.933555
11
-9.0118136
21
-0.9188306
0
LINE
8
layer0
10
-9.0118136
20
-0.9188306
11
-9.0479771
21
-0.9059289
0
LINE
8
layer0
10
-9.0479771
20
-0.9059289
11
-9.0886007
21
-0.8950398
0
LINE
8
layer0
10
-9.0886007
20
-0.8950398
11
-9.1829772
21
-0.8799882
0
LINE
8
layer0
10
-9.1829772
20
-0.8799882
11
-9.2943103
21
-0.8751146
0
LINE
8
layer0
10
-9.2943103
20
-0.8751146
11
-9.4125104
21
-0.8779602
0
LINE
8
layer0
10
-9.4125104
20
-0.8779602
11
-9.5334656
21
-0.8703784
0
LINE
8
layer0
10
-9.5334656
20
-0.8703784
11
-9.6165996
21
-0.8601475
0
LINE
8
layer0
10
-9.6165996
20
-0.8601475
11
-9.7156936
21
-0.8437574
0
LINE
8
layer0
10
-9.7156936
20
-0.8437574
11
-9.8296496
21
-0.8200218
0
LINE
8
layer0
10
-9.8296496
20
-0.8200218
11
-9.9603381
21
-0.7870399
0
LINE
8
layer0
10
-9.9603381
20
-0.7870399
11
-10.1041821
21
-0.7442553
0
LINE
8
layer0
10
-10.1041821
20
-0.7442553
11
-10.26321
21
-0.6895999
0
LINE
8
layer0
10
-10.26321
20
-0.6895999
11
-10.4338275
21
-0.6228181
0
LINE
8
layer0
10
-10.4338275
20
-0.6228181
11
-10.6161716
21
-0.5425346
0
LINE
8
layer0
10
-10.6161716
20
-0.5425346
11
-10.8109059
21
-0.4468599
0
LINE
8
layer0
10
-10.8109059
20
-0.4468599
11
-10.9945019
21
-0.3472613
0
ARC
8
layer0
10
0.0000153
20
0
40
11
50
178.1909164
51
181.809083
0
LINE
8
layer0
10
-10.9945019
20
0.3472613
11
-10.8109059
21
0.4468599
0
LINE
8
layer0
10
-10.8109059
20
0.4468599
11
-10.6161716
21
0.5425346
0
LINE
8
layer0
10
-10.6161716
20
0.5425346
11
-10.4338275
21
0.6228181
0
LINE
8
layer0
10
-10.4338275
20
0.6228181
11
-10.26321
21
0.6895999
0
LINE
8
layer0
10
-10.26321
20
0.6895999
11
-10.1041821
21
0.7442553
0
LINE
8
layer0
10
-10.1041821
20
0.7442553
11
-9.9603381
21
0.7870399
0
LINE
8
layer0
10
-9.9603381
20
0.7870399
11
-9.8296496
21
0.8200218
0
LINE
8
layer0
10
-9.8296496
20
0.8200218
11
-9.7156936
21
0.8437574
0
LINE
8
layer0
10
-9.7156936
20
0.8437574
11
-9.6165996
21
0.8601475
0
LINE
8
layer0
10
-9.6165996
20
0.8601475
11
-9.5334656
21
0.8703784
0
LINE
8
layer0
10
-9.5334656
20
0.8703784
11
-9.4125104
21
0.8779602
0
LINE
8
layer0
10
-9.4125104
20
0.8779602
11
-9.2943103
21
0.8751146
0
LINE
8
layer0
10
-9.2943103
20
0.8751146
11
-9.1829772
21
0.8799882
0
LINE
8
layer0
10
-9.1829772
20
0.8799882
11
-9.0886007
21
0.8950398
0
LINE
8
layer0
10
-9.0886007
20
0.8950398
11
-9.0479771
21
0.9059289
0
LINE
8
layer0
10
-9.0479771
20
0.9059289
11
-9.0118136
21
0.9188306
0
LINE
8
layer0
10
-9.0118136
20
0.9188306
11
-8.9801909
21
0.933555
0
LINE
8
layer0
10
-8.9801909
20
0.933555
11
-8.9531599
21
0.9499077
0
LINE
8
layer0
10
-8.9531599
20
0.9499077
11
-8.9307672
21
0.9677241
0
LINE
8
layer0
10
-8.9307672
20
0.9677241
11
-8.9130651
21
0.9867997
0
LINE
8
layer0
10
-8.9130651
20
0.9867997
11
-8.9000935
21
1.0069486
0
LINE
8
layer0
10
-8.9000935
20
1.0069486
11
-8.8918917
21
1.0279845
0
LINE
8
layer0
10
-8.8918917
20
1.0279845
11
-8.8888827
21
1.0442339
0
LINE
8
layer0
10
-8.8888827
20
1.0442339
11
-8.8703161
21
1.1918873
0
LINE
8
layer0
10
-8.8703161
20
1.1918873
11
-8.8398106
21
1.4000885
0
LINE
8
layer0
10
-8.8398106
20
1.4000885
11
-8.8044853
21
1.6075263
0
LINE
8
layer0
10
-8.8044853
20
1.6075263
11
-8.7765159
21
1.7536904
0
LINE
8
layer0
10
-8.7765159
20
1.7536904
11
-8.7743563
21
1.7700743
0
LINE
8
layer0
10
-8.7743563
20
1.7700743
11
-8.7756561
21
1.7926151
0
LINE
8
layer0
10
-8.7756561
20
1.7926151
11
-8.7817666
21
1.8157863
0
LINE
8
layer0
10
-8.7817666
20
1.8157863
11
-8.7927075
21
1.8393985
0
LINE
8
layer0
10
-8.7927075
20
1.8393985
11
-8.8084987
21
1.8632626
0
LINE
8
layer0
10
-8.8084987
20
1.8632626
11
-8.8291534
21
1.8871681
0
LINE
8
layer0
10
-8.8291534
20
1.8871681
11
-8.8546783
21
1.9109438
0
LINE
8
layer0
10
-8.8546783
20
1.9109438
11
-8.885085
21
1.9343891
0
LINE
8
layer0
10
-8.885085
20
1.9343891
11
-8.9203554
21
1.9572986
0
LINE
8
layer0
10
-8.9203554
20
1.9572986
11
-9.0054616
21
2.0007775
0
LINE
8
layer0
10
-9.0054616
20
2.0007775
11
-9.1098397
21
2.0398164
0
LINE
8
layer0
10
-9.1098397
20
2.0398164
11
-9.223134
21
2.0736359
0
LINE
8
layer0
10
-9.223134
20
2.0736359
11
-9.3358263
21
2.1182238
0
LINE
8
layer0
10
-9.3358263
20
2.1182238
11
-9.4117299
21
2.1536439
0
LINE
8
layer0
10
-9.4117299
20
2.1536439
11
-9.5009091
21
2.1998535
0
LINE
8
layer0
10
-9.5009091
20
2.1998535
11
-9.601953
21
2.2576417
0
LINE
8
layer0
10
-9.601953
20
2.2576417
11
-9.7160532
21
2.3293943
0
LINE
8
layer0
10
-9.7160532
20
2.3293943
11
-9.8396357
21
2.4145351
0
LINE
8
layer0
10
-9.8396357
20
2.4145351
11
-9.9739908
21
2.5156578
0
LINE
8
layer0
10
-9.9739908
20
2.5156578
11
-10.115621
21
2.6318948
0
LINE
8
layer0
10
-10.115621
20
2.6318948
11
-10.2642316
21
2.7645963
0
LINE
8
layer0
10
-10.2642316
20
2.7645963
11
-10.4198698
21
2.9157647
0
LINE
8
layer0
10
-10.4198698
20
2.9157647
11
-10.5637023
21
3.0672228
0
ARC
8
layer0
10
0.0000147
20
-0.0000046
40
11
50
160.1909176
51
163.8090839
0
LINE
8
layer0
10
-10.349083
20
3.7277531
11
-10.1436952
21
3.7657426
0
LINE
8
layer0
10
-10.1436952
20
3.7657426
11
-9.9289267
21
3.7965585
0
LINE
8
layer0
10
-9.9289267
20
3.7965585
11
-9.7306982
21
3.8165653
0
LINE
8
layer0
10
-9.7306982
20
3.8165653
11
-9.5477946
21
3.8273548
0
LINE
8
layer0
10
-9.5477946
20
3.8273548
11
-9.3796606
21
3.8301929
0
LINE
8
layer0
10
-9.3796606
20
3.8301929
11
-9.2296358
21
3.8264332
0
LINE
8
layer0
10
-9.2296358
20
3.8264332
11
-9.0951517
21
3.8174159
0
LINE
8
layer0
10
-9.0951517
20
3.8174159
11
-8.9794383
21
3.8047754
0
LINE
8
layer0
10
-8.9794383
20
3.8047754
11
-8.8801295
21
3.7897415
0
LINE
8
layer0
10
-8.8801295
20
3.7897415
11
-8.7979029
21
3.7737819
0
LINE
8
layer0
10
-8.7979029
20
3.7737819
11
-8.6805247
21
3.7436154
0
LINE
8
layer0
10
-8.6805247
20
3.7436154
11
-8.5689891
21
3.7043833
0
LINE
8
layer0
10
-8.5689891
20
3.7043833
11
-8.461599
21
3.6746146
0
LINE
8
layer0
10
-8.461599
20
3.6746146
11
-8.3671904
21
3.6597655
0
LINE
8
layer0
10
-8.3671904
20
3.6597655
11
-8.3251901
21
3.6575683
0
LINE
8
layer0
10
-8.3251901
20
3.6575683
11
-8.2868098
21
3.6586634
0
LINE
8
layer0
10
-8.2868098
20
3.6586634
11
-8.2521847
21
3.6628951
0
LINE
8
layer0
10
-8.2521847
20
3.6628951
11
-8.2214235
21
3.6700945
0
LINE
8
layer0
10
-8.2214235
20
3.6700945
11
-8.1946211
21
3.6801191
0
LINE
8
layer0
10
-8.1946211
20
3.6801191
11
-8.1718908
21
3.6927909
0
LINE
8
layer0
10
-8.1718908
20
3.6927909
11
-8.1533277
21
3.7079451
0
LINE
8
layer0
10
-8.1533277
20
3.7079451
11
-8.1390269
21
3.725417
0
LINE
8
layer0
10
-8.1390269
20
3.725417
11
-8.1311438
21
3.7399412
0
LINE
8
layer0
10
-8.1311438
20
3.7399412
11
-8.0678585
21
3.8746306
0
LINE
8
layer0
10
-8.0678585
20
3.8746306
11
-7.9745084
21
4.063215
0
LINE
8
layer0
10
-7.9745084
20
4.063215
11
-7.8768102
21
4.2495839
0
LINE
8
layer0
10
-7.8768102
20
4.2495839
11
-7.8050425
21
4.3799512
0
LINE
8
layer0
10
-7.8050425
20
4.3799512
11
-7.7979257
21
4.3948659
0
LINE
8
layer0
10
-7.7979257
20
4.3948659
11
-7.7921964
21
4.4167052
0
LINE
8
layer0
10
-7.7921964
20
4.4167052
11
-7.7908475
21
4.4406305
0
LINE
8
layer0
10
-7.7908475
20
4.4406305
11
-7.7939563
21
4.466468
0
LINE
8
layer0
10
-7.7939563
20
4.466468
11
-7.8016003
21
4.4940439
0
LINE
8
layer0
10
-7.8016003
20
4.4940439
11
-7.8138569
21
4.5231619
0
LINE
8
layer0
10
-7.8138569
20
4.5231619
11
-7.8307854
21
4.5536616
0
LINE
8
layer0
10
-7.8307854
20
4.5536616
11
-7.8524589
21
4.5853556
0
LINE
8
layer0
10
-7.8524589
20
4.5853556
11
-7.8789236
21
4.618043
0
LINE
8
layer0
10
-7.8789236
20
4.618043
11
-7.9464287
21
4.6856931
0
LINE
8
layer0
10
-7.9464287
20
4.6856931
11
-8.0336344
21
4.755076
0
LINE
8
layer0
10
-8.0336344
20
4.755076
11
-8.1309329
21
4.8222501
0
LINE
8
layer0
10
-8.1309329
20
4.8222501
11
-8.2243313
21
4.8994796
0
LINE
8
layer0
10
-8.2243313
20
4.8994796
11
-8.2855745
21
4.9566215
0
LINE
8
layer0
10
-8.2855745
20
4.9566215
11
-8.3561094
21
5.0281273
0
LINE
8
layer0
10
-8.3561094
20
5.0281273
11
-8.4343503
21
5.1143115
0
LINE
8
layer0
10
-8.4343503
20
5.1143115
11
-8.5206933
21
5.2178112
0
LINE
8
layer0
10
-8.5206933
20
5.2178112
11
-8.6119173
21
5.336974
0
LINE
8
layer0
10
-8.6119173
20
5.336974
11
-8.7084479
21
5.4746654
0
LINE
8
layer0
10
-8.7084479
20
5.4746654
11
-8.8072271
21
5.6289795
0
LINE
8
layer0
10
-8.8072271
20
5.6289795
11
-8.9075571
21
5.8011094
0
LINE
8
layer0
10
-8.9075571
20
5.8011094
11
-9.0088642
21
5.9929738
0
LINE
8
layer0
10
-9.0088642
20
5.9929738
11
-9.098854
21
6.1814657
0
ARC
8
layer0
10
0.000012
20
-0.0000096
40
11
50
142.1909135
51
145.8090798
0
LINE
8
layer0
10
-8.6906238
20
6.7433464
11
-8.483549
21
6.7160083
0
LINE
8
layer0
10
-8.483549
20
6.7160083
11
-8.2697694
21
6.6789488
0
LINE
8
layer0
10
-8.2697694
20
6.6789488
11
-8.0750604
21
6.6367204
0
LINE
8
layer0
10
-8.0750604
20
6.6367204
11
-7.8977746
21
6.5904615
0
LINE
8
layer0
10
-7.8977746
20
6.5904615
11
-7.7369927
21
6.5412044
0
LINE
8
layer0
10
-7.7369927
20
6.5412044
11
-7.5954723
21
6.4912685
0
LINE
8
layer0
10
-7.5954723
20
6.4912685
11
-7.4703569
21
6.4411347
0
LINE
8
layer0
10
-7.4703569
20
6.4411347
11
-7.3642131
21
6.3933555
0
LINE
8
layer0
10
-7.3642131
20
6.3933555
11
-7.2744105
21
6.3483693
0
LINE
8
layer0
10
-7.2744105
20
6.3483693
11
-7.2011401
21
6.3077814
0
LINE
8
layer0
10
-7.2011401
20
6.3077814
11
-7.0988288
21
6.2428195
0
LINE
8
layer0
10
-7.0988288
20
6.2428195
11
-7.0048755
21
6.1710411
0
LINE
8
layer0
10
-7.0048755
20
6.1710411
11
-6.9119405
21
6.109544
0
LINE
8
layer0
10
-6.9119405
20
6.109544
11
-6.8267412
21
6.0662479
0
LINE
8
layer0
10
-6.8267412
20
6.0662479
11
-6.7874756
21
6.0511794
0
LINE
8
layer0
10
-6.7874756
20
6.0511794
11
-6.7506353
21
6.0403607
0
LINE
8
layer0
10
-6.7506353
20
6.0403607
11
-6.7163972
21
6.0336856
0
LINE
8
layer0
10
-6.7163972
20
6.0336856
11
-6.6849168
21
6.0310269
0
LINE
8
layer0
10
-6.6849168
20
6.0310269
11
-6.6563285
21
6.0322785
0
LINE
8
layer0
10
-6.6563285
20
6.0322785
11
-6.6307948
21
6.037306
0
LINE
8
layer0
10
-6.6307948
20
6.037306
11
-6.6084573
21
6.0459822
0
LINE
8
layer0
10
-6.6084573
20
6.0459822
11
-6.5894574
21
6.0581798
0
LINE
8
layer0
10
-6.5894574
20
6.0581798
11
-6.5774719
21
6.0695571
0
LINE
8
layer0
10
-6.5774719
20
6.0695571
11
-6.4756627
21
6.178098
0
LINE
8
layer0
10
-6.4756627
20
6.178098
11
-6.3286057
21
6.3286057
0
LINE
8
layer0
10
-6.3286057
20
6.3286057
11
-6.178098
21
6.4756627
0
LINE
8
layer0
10
-6.178098
20
6.4756627
11
-6.0695571
21
6.5774719
0
LINE
8
layer0
10
-6.0695571
20
6.5774719
11
-6.0581798
21
6.5894574
0
LINE
8
layer0
10
-6.0581798
20
6.5894574
11
-6.0459822
21
6.6084573
0
LINE
8
layer0
10
-6.0459822
20
6.6084573
11
-6.037306
21
6.6307948
0
LINE
8
layer0
10
-6.037306
20
6.6307948
11
-6.0322785
21
6.6563285
0
LINE
8
layer0
10
-6.0322785
20
6.6563285
11
-6.0310269
21
6.6849168
0
LINE
8
layer0
10
-6.0310269
20
6.6849168
11
-6.0336856
21
6.7163972
0
LINE
8
layer0
10
-6.0336856
20
6.7163972
11
-6.0403607
21
6.7506353
0
LINE
8
layer0
10
-6.0403607
20
6.7506353
11
-6.0511794
21
6.7874756
0
LINE
8
layer0
10
-6.0511794
20
6.7874756
11
-6.0662479
21
6.8267412
0
LINE
8
layer0
10
-6.0662479
20
6.8267412
11
-6.109544
21
6.9119405
0
LINE
8
layer0
10
-6.109544
20
6.9119405
11
-6.1710411
21
7.0048755
0
LINE
8
layer0
10
-6.1710411
20
7.0048755
11
-6.2428195
21
7.0988288
0
LINE
8
layer0
10
-6.2428195
20
7.0988288
11
-6.3077814
21
7.2011401
0
LINE
8
layer0
10
-6.3077814
20
7.2011401
11
-6.3483693
21
7.2744105
0
LINE
8
layer0
10
-6.3483693
20
7.2744105
11
-6.3933555
21
7.3642131
0
LINE
8
layer0
10
-6.3933555
20
7.3642131
11
-6.4411347
21
7.4703569
0
LINE
8
layer0
10
-6.4411347
20
7.4703569
11
-6.4912685
21
7.5954723
0
LINE
8
layer0
10
-6.4912685
20
7.5954723
11
-6.5412044
21
7.7369927
0
LINE
8
layer0
10
-6.5412044
20
7.7369927
11
-6.5904615
21
7.8977746
0
LINE
8
layer0
10
-6.5904615
20
7.8977746
11
-6.6367204
21
8.0750604
0
LINE
8
layer0
10
-6.6367204
20
8.0750604
11
-6.6789488
21
8.2697694
0
LINE
8
layer0
10
-6.6789488
20
8.2697694
11
-6.7160083
21
8.483549
0
LINE
8
layer0
10
-6.7160083
20
8.483549
11
-6.7433464
21
8.6906238
0
ARC
8
layer0
10
0.0000095
20
-0.000012
40
11
50
124.1909202
51
127.8090865
0
LINE
8
layer0
10
-6.1814657
20
9.098854
11
-5.9929738
21
9.0088642
0
LINE
8
layer0
10
-5.9929738
20
9.0088642
11
-5.8011094
21
8.9075571
0
LINE
8
layer0
10
-5.8011094
20
8.9075571
11
-5.6289795
21
8.8072271
0
LINE
8
layer0
10
-5.6289795
20
8.8072271
11
-5.4746654
21
8.7084479
0
LINE
8
layer0
10
-5.4746654
20
8.7084479
11
-5.336974
21
8.6119173
0
LINE
8
layer0
10
-5.336974
20
8.6119173
11
-5.2178112
21
8.5206933
0
LINE
8
layer0
10
-5.2178112
20
8.5206933
11
-5.1143115
21
8.4343503
0
LINE
8
layer0
10
-5.1143115
20
8.4343503
11
-5.0281273
21
8.3561094
0
LINE
8
layer0
10
-5.0281273
20
8.3561094
11
-4.9566215
21
8.2855745
0
LINE
8
layer0
10
-4.9566215
20
8.2855745
11
-4.8994796
21
8.2243313
0
LINE
8
layer0
10
-4.8994796
20
8.2243313
11
-4.8222501
21
8.1309329
0
LINE
8
layer0
10
-4.8222501
20
8.1309329
11
-4.755076
21
8.0336344
0
LINE
8
layer0
10
-4.755076
20
8.0336344
11
-4.6856931
21
7.9464287
0
LINE
8
layer0
10
-4.6856931
20
7.9464287
11
-4.618043
21
7.8789236
0
LINE
8
layer0
10
-4.618043
20
7.8789236
11
-4.5853556
21
7.8524589
0
LINE
8
layer0
10
-4.5853556
20
7.8524589
11
-4.5536616
21
7.8307854
0
LINE
8
layer0
10
-4.5536616
20
7.8307854
11
-4.5231619
21
7.8138569
0
LINE
8
layer0
10
-4.5231619
20
7.8138569
11
-4.4940439
21
7.8016003
0
LINE
8
layer0
10
-4.4940439
20
7.8016003
11
-4.466468
21
7.7939563
0
LINE
8
layer0
10
-4.466468
20
7.7939563
11
-4.4406305
21
7.7908475
0
LINE
8
layer0
10
-4.4406305
20
7.7908475
11
-4.4167052
21
7.7921964
0
LINE
8
layer0
10
-4.4167052
20
7.7921964
11
-4.3948659
21
7.7979257
0
LINE
8
layer0
10
-4.3948659
20
7.7979257
11
-4.3799512
21
7.8050425
0
LINE
8
layer0
10
-4.3799512
20
7.8050425
11
-4.2495839
21
7.8768102
0
LINE
8
layer0
10
-4.2495839
20
7.8768102
11
-4.063215
21
7.9745084
0
LINE
8
layer0
10
-4.063215
20
7.9745084
11
-3.8746306
21
8.0678585
0
LINE
8
layer0
10
-3.8746306
20
8.0678585
11
-3.7399412
21
8.1311438
0
LINE
8
layer0
10
-3.7399412
20
8.1311438
11
-3.725417
21
8.1390269
0
LINE
8
layer0
10
-3.725417
20
8.1390269
11
-3.7079451
21
8.1533277
0
LINE
8
layer0
10
-3.7079451
20
8.1533277
11
-3.6927909
21
8.1718908
0
LINE
8
layer0
10
-3.6927909
20
8.1718908
11
-3.6801191
21
8.1946211
0
LINE
8
layer0
10
-3.6801191
20
8.1946211
11
-3.6700945
21
8.2214235
0
LINE
8
layer0
10
-3.6700945
20
8.2214235
11
-3.6628951
21
8.2521847
0
LINE
8
layer0
10
-3.6628951
20
8.2521847
11
-3.6586634
21
8.2868098
0
LINE
8
layer0
10
-3.6586634
20
8.2868098
11
-3.6575683
21
8.3251901
0
LINE
8
layer0
10
-3.6575683
20
8.3251901
11
-3.6597655
21
8.3671904
0
LINE
8
layer0
10
-3.6597655
20
8.3671904
11
-3.6746146
21
8.461599
0
LINE
8
layer0
10
-3.6746146
20
8.461599
11
-3.7043833
21
8.5689891
0
LINE
8
layer0
10
-3.7043833
20
8.5689891
11
-3.7436154
21
8.6805247
0
LINE
8
layer0
10
-3.7436154
20
8.6805247
11
-3.7737819
21
8.7979029
0
LINE
8
layer0
10
-3.7737819
20
8.7979029
11
-3.7897415
21
8.8801295
0
LINE
8
layer0
10
-3.7897415
20
8.8801295
11
-3.8047754
21
8.9794383
0
LINE
8
layer0
10
-3.8047754
20
8.9794383
11
-3.8174159
21
9.0951517
0
LINE
8
layer0
10
-3.8174159
20
9.0951517
11
-3.8264332
21
9.2296358
0
LINE
8
layer0
10
-3.8264332
20
9.2296358
11
-3.8301929
21
9.3796606
0
LINE
8
layer0
10
-3.8301929
20
9.3796606
11
-3.8273548
21
9.5477946
0
LINE
8
layer0
10
-3.8273548
20
9.5477946
11
-3.8165653
21
9.7306982
0
LINE
8
layer0
10
-3.8165653
20
9.7306982
11
-3.7965585
21
9.9289267
0
LINE
8
layer0
10
-3.7965585
20
9.9289267
11
-3.7657426
21
10.1436952
0
LINE
8
layer0
10
-3.7657426
20
10.1436952
11
-3.7277531
21
10.349083
0
ARC
8
layer0
10
0.0000047
20
-0.0000146
40
11
50
106.1909167
51
109.8090831
0
LINE
8
layer0
10
-3.0672228
20
10.5637023
11
-2.9157647
21
10.4198698
0
LINE
8
layer0
10
-2.9157647
20
10.4198698
11
-2.7645963
21
10.2642316
0
LINE
8
layer0
10
-2.7645963
20
10.2642316
11
-2.6318948
21
10.115621
0
LINE
8
layer0
10
-2.6318948
20
10.115621
11
-2.5156578
21
9.9739908
0
LINE
8
layer0
10
-2.5156578
20
9.9739908
11
-2.4145351
21
9.8396357
0
LINE
8
layer0
10
-2.4145351
20
9.8396357
11
-2.3293943
21
9.7160532
0
LINE
8
layer0
10
-2.3293943
20
9.7160532
11
-2.2576417
21
9.601953
0
LINE
8
layer0
10
-2.2576417
20
9.601953
11
-2.1998535
21
9.5009091
0
LINE
8
layer0
10
-2.1998535
20
9.5009091
11
-2.1536439
21
9.4117299
0
LINE
8
layer0
10
-2.1536439
20
9.4117299
11
-2.1182238
21
9.3358263
0
LINE
8
layer0
10
-2.1182238
20
9.3358263
11
-2.0736359
21
9.223134
0
LINE
8
layer0
10
-2.0736359
20
9.223134
11
-2.0398164
21
9.1098397
0
LINE
8
layer0
10
-2.0398164
20
9.1098397
11
-2.0007775
21
9.0054616
0
LINE
8
layer0
10
-2.0007775
20
9.0054616
11
-1.9572986
21
8.9203554
0
LINE
8
layer0
10
-1.9572986
20
8.9203554
11
-1.9343891
21
8.885085
0
LINE
8
layer0
10
-1.9343891
20
8.885085
11
-1.9109438
21
8.8546783
0
LINE
8
layer0
10
-1.9109438
20
8.8546783
11
-1.8871681
21
8.8291534
0
LINE
8
layer0
10
-1.8871681
20
8.8291534
11
-1.8632626
21
8.8084987
0
LINE
8
layer0
10
-1.8632626
20
8.8084987
11
-1.8393985
21
8.7927075
0
LINE
8
layer0
10
-1.8393985
20
8.7927075
11
-1.8157863
21
8.7817666
0
LINE
8
layer0
10
-1.8157863
20
8.7817666
11
-1.7926151
21
8.7756561
0
LINE
8
layer0
10
-1.7926151
20
8.7756561
11
-1.7700743
21
8.7743563
0
LINE
8
layer0
10
-1.7700743
20
8.7743563
11
-1.7536904
21
8.7765159
0
LINE
8
layer0
10
-1.7536904
20
8.7765159
11
-1.6075263
21
8.8044853
0
LINE
8
layer0
10
-1.6075263
20
8.8044853
11
-1.4000885
21
8.8398106
0
LINE
8
layer0
10
-1.4000885
20
8.8398106
11
-1.1918873
21
8.8703161
0
LINE
8
layer0
10
-1.1918873
20
8.8703161
11
-1.0442339
21
8.8888827
0
LINE
8
layer0
10
-1.0442339
20
8.8888827
11
-1.0279845
21
8.8918917
0
LINE
8
layer0
10
-1.0279845
20
8.8918917
11
-1.0069486
21
8.9000935
0
LINE
8
layer0
10
-1.0069486
20
8.9000935
11
-0.9867997
21
8.9130651
0
LINE
8
layer0
10
-0.9867997
20
8.9130651
11
-0.9677241
21
8.9307672
0
LINE
8
layer0
10
-0.9677241
20
8.9307672
11
-0.9499077
21
8.9531599
0
LINE
8
layer0
10
-0.9499077
20
8.9531599
11
-0.933555
21
8.9801909
0
LINE
8
layer0
10
-0.933555
20
8.9801909
11
-0.9188306
21
9.0118136
0
LINE
8
layer0
10
-0.9188306
20
9.0118136
11
-0.9059289
21
9.0479771
0
LINE
8
layer0
10
-0.9059289
20
9.0479771
11
-0.8950398
21
9.0886007
0
LINE
8
layer0
10
-0.8950398
20
9.0886007
11
-0.8799882
21
9.1829772
0
LINE
8
layer0
10
-0.8799882
20
9.1829772
11
-0.8751146
21
9.2943103
0
LINE
8
layer0
10
-0.8751146
20
9.2943103
11
-0.8779602
21
9.4125104
0
LINE
8
layer0
10
-0.8779602
20
9.4125104
11
-0.8703784
21
9.5334656
0
LINE
8
layer0
10
-0.8703784
20
9.5334656
11
-0.8601475
21
9.6165996
0
LINE
8
layer0
10
-0.8601475
20
9.6165996
11
-0.8437574
21
9.7156936
0
LINE
8
layer0
10
-0.8437574
20
9.7156936
11
-0.8200218
21
9.8296496
0
LINE
8
layer0
10
-0.8200218
20
9.8296496
11
-0.7870399
21
9.9603381
0
LINE
8
layer0
10
-0.7870399
20
9.9603381
11
-0.7442553
21
10.1041821
0
LINE
8
layer0
10
-0.7442553
20
10.1041821
11
-0.6895999
21
10.26321
0
LINE
8
layer0
10
-0.6895999
20
10.26321
11
-0.6228181
21
10.4338275
0
LINE
8
layer0
10
-0.6228181
20
10.4338275
11
-0.5425346
21
10.6161716
0
LINE
8
layer0
10
-0.5425346
20
10.6161716
11
-0.4468599
21
10.8109059
0
LINE
8
layer0
10
-0.4468599
20
10.8109059
11
-0.3472613
21
10.9945019
0
ARC
8
layer0
10
1e-7
20
-0.0000153
40
11
50
88.190917
51
91.8090836
0
LINE
8
layer0
10
0.3472613
20
10.9945019
11
0.4468599
21
10.8109059
0
LINE
8
layer0
10
0.4468599
20
10.8109059
11
0.5425346
21
10.6161716
0
LINE
8
layer0
10
0.5425346
20
10.6161716
11
0.6228181
21
10.4338275
0
LINE
8
layer0
10
0.6228181
20
10.4338275
11
0.6895999
21
10.26321
0
LINE
8
layer0
10
0.6895999
20
10.26321
11
0.7442553
21
10.1041821
0
LINE
8
layer0
10
0.7442553
20
10.1041821
11
0.7870399
21
9.9603381
0
LINE
8
layer0
10
0.7870399
20
9.9603381
11
0.8200218
21
9.8296496
0
LINE
8
layer0
10
0.8200218
20
9.8296496
11
0.8437574
21
9.7156936
0
LINE
8
layer0
10
0.8437574
20
9.7156936
11
0.8601475
21
9.6165996
0
LINE
8
layer0
10
0.8601475
20
9.6165996
11
0.8703784
21
9.5334656
0
LINE
8
layer0
10
0.8703784
20
9.5334656
11
0.8779602
21
9.4125104
0
LINE
8
layer0
10
0.8779602
20
9.4125104
11
0.8751146
21
9.2943103
0
LINE
8
layer0
10
0.8751146
20
9.2943103
11
0.8799882
21
9.1829772
0
LINE
8
layer0
10
0.8799882
20
9.1829772
11
0.8950398
21
9.0886007
0
LINE
8
layer0
10
0.8950398
20
9.0886007
11
0.9059289
21
9.0479771
0
LINE
8
layer0
10
0.9059289
20
9.0479771
11
0.9188306
21
9.0118136
0
LINE
8
layer0
10
0.9188306
20
9.0118136
11
0.933555
21
8.9801909
0
LINE
8
layer0
10
0.933555
20
8.9801909
11
0.9499077
21
8.9531599
0
LINE
8
layer0
10
0.9499077
20
8.9531599
11
0.9677241
21
8.9307672
0
LINE
8
layer0
10
0.9677241
20
8.9307672
11
0.9867997
21
8.9130651
0
LINE
8
layer0
10
0.9867997
20
8.9130651
11
1.0069486
21
8.9000935
0
LINE
8
layer0
10
1.0069486
20
8.9000935
11
1.0279845
21
8.8918917
0
LINE
8
layer0
10
1.0279845
20
8.8918917
11
1.0442339
21
8.8888827
0
LINE
8
layer0
10
1.0442339
20
8.8888827
11
1.1918873
21
8.8703161
0
LINE
8
layer0
10
1.1918873
20
8.8703161
11
1.4000885
21
8.8398106
0
LINE
8
layer0
10
1.4000885
20
8.8398106
11
1.6075263
21
8.8044853
0
LINE
8
layer0
10
1.6075263
20
8.8044853
11
1.7536904
21
8.7765159
0
LINE
8
layer0
10
1.7536904
20
8.7765159
11
1.7700743
21
8.7743563
0
LINE
8
layer0
10
1.7700743
20
8.7743563
11
1.7926151
21
8.7756561
0
LINE
8
layer0
10
1.7926151
20
8.7756561
11
1.8157863
21
8.7817666
0
LINE
8
layer0
10
1.8157863
20
8.7817666
11
1.8393985
21
8.7927075
0
LINE
8
layer0
10
1.8393985
20
8.7927075
11
1.8632626
21
8.8084987
0
LINE
8
layer0
10
1.8632626
20
8.8084987
11
1.8871681
21
8.8291534
0
LINE
8
layer0
10
1.8871681
20
8.8291534
11
1.9109438
21
8.8546783
0
LINE
8
layer0
10
1.9109438
20
8.8546783
11
1.9343891
21
8.885085
0
LINE
8
layer0
10
1.9343891
20
8.885085
11
1.9572986
21
8.9203554
0
LINE
8
layer0
10
1.9572986
20
8.9203554
11
2.0007775
21
9.0054616
0
LINE
8
layer0
10
2.0007775
20
9.0054616
11
2.0398164
21
9.1098397
0
LINE
8
layer0
10
2.0398164
20
9.1098397
11
2.0736359
21
9.223134
0
LINE
8
layer0
10
2.0736359
20
9.223134
11
2.1182238
21
9.3358263
0
LINE
8
layer0
10
2.1182238
20
9.3358263
11
2.1536439
21
9.4117299
0
LINE
8
layer0
10
2.1536439
20
9.4117299
11
2.1998535
21
9.5009091
0
LINE
8
layer0
10
2.1998535
20
9.5009091
11
2.2576417
21
9.601953
0
LINE
8
layer0
10
2.2576417
20
9.601953
11
2.3293943
21
9.7160532
0
LINE
8
layer0
10
2.3293943
20
9.7160532
11
2.4145351
21
9.8396357
0
LINE
8
layer0
10
2.4145351
20
9.8396357
11
2.5156578
21
9.9739908
0
LINE
8
layer0
10
2.5156578
20
9.9739908
11
2.6318948
21
10.115621
0
LINE
8
layer0
10
2.6318948
20
10.115621
11
2.7645963
21
10.2642316
0
LINE
8
layer0
10
2.7645963
20
10.2642316
11
2.9157647
21
10.4198698
0
LINE
8
layer0
10
2.9157647
20
10.4198698
11
3.0672228
21
10.5637023
0
ARC
8
layer0
10
-0.0000046
20
-0.0000147
40
11
50
70.1909176
51
73.8090839
0
LINE
8
layer0
10
3.7277531
20
10.349083
11
3.7657426
21
10.1436952
0
LINE
8
layer0
10
3.7657426
20
10.1436952
11
3.7965585
21
9.9289267
0
LINE
8
layer0
10
3.7965585
20
9.9289267
11
3.8165653
21
9.7306982
0
LINE
8
layer0
10
3.8165653
20
9.7306982
11
3.8273548
21
9.5477946
0
LINE
8
layer0
10
3.8273548
20
9.5477946
11
3.8301929
21
9.3796606
0
LINE
8
layer0
10
3.8301929
20
9.3796606
11
3.8264332
21
9.2296358
0
LINE
8
layer0
10
3.8264332
20
9.2296358
11
3.8174159
21
9.0951517
0
LINE
8
layer0
10
3.8174159
20
9.0951517
11
3.8047754
21
8.9794383
0
LINE
8
layer0
10
3.8047754
20
8.9794383
11
3.7897415
21
8.8801295
0
LINE
8
layer0
10
3.7897415
20
8.8801295
11
3.7737819
21
8.7979029
0
LINE
8
layer0
10
3.7737819
20
8.7979029
11
3.7436154
21
8.6805247
0
LINE
8
layer0
10
3.7436154
20
8.6805247
11
3.7043833
21
8.5689891
0
LINE
8
layer0
10
3.7043833
20
8.5689891
11
3.6746146
21
8.461599
0
LINE
8
layer0
10
3.6746146
20
8.461599
11
3.6597655
21
8.3671904
0
LINE
8
layer0
10
3.6597655
20
8.3671904
11
3.6575683
21
8.3251901
0
LINE
8
layer0
10
3.6575683
20
8.3251901
11
3.6586634
21
8.2868098
0
LINE
8
layer0
10
3.6586634
20
8.2868098
11
3.6628951
21
8.2521847
0
LINE
8
layer0
10
3.6628951
20
8.2521847
11
3.6700945
21
8.2214235
0
LINE
8
layer0
10
3.6700945
20
8.2214235
11
3.6801191
21
8.1946211
0
LINE
8
layer0
10
3.6801191
20
8.1946211
11
3.6927909
21
8.1718908
0
LINE
8
layer0
10
3.6927909
20
8.1718908
11
3.7079451
21
8.1533277
0
LINE
8
layer0
10
3.7079451
20
8.1533277
11
3.725417
21
8.1390269
0
LINE
8
layer0
10
3.725417
20
8.1390269
11
3.7399412
21
8.1311438
0
LINE
8
layer0
10
3.7399412
20
8.1311438
11
3.8746306
21
8.0678585
0
LINE
8
layer0
10
3.8746306
20
8.0678585
11
4.063215
21
7.9745084
0
LINE
8
layer0
10
4.063215
20
7.9745084
11
4.2495839
21
7.8768102
0
LINE
8
layer0
10
4.2495839
20
7.8768102
11
4.3799512
21
7.8050425
0
LINE
8
layer0
10
4.3799512
20
7.8050425
11
4.3948659
21
7.7979257
0
LINE
8
layer0
10
4.3948659
20
7.7979257
11
4.4167052
21
7.7921964
0
LINE
8
layer0
10
4.4167052
20
7.7921964
11
4.4406305
21
7.7908475
0
LINE
8
layer0
10
4.4406305
20
7.7908475
11
4.466468
21
7.7939563
0
LINE
8
layer0
10
4.466468
20
7.7939563
11
4.4940439
21
7.8016003
0
LINE
8
layer0
10
4.4940439
20
7.8016003
11
4.5231619
21
7.8138569
0
LINE
8
layer0
10
4.5231619
20
7.8138569
11
4.5536616
21
7.8307854
0
LINE
8
layer0
10
4.5536616
20
7.8307854
11
4.5853556
21
7.8524589
0
LINE
8
layer0
10
4.5853556
20
7.8524589
11
4.618043
21
7.8789236
0
LINE
8
layer0
10
4.618043
20
7.8789236
11
4.6856931
21
7.9464287
0
LINE
8
layer0
10
4.6856931
20
7.9464287
11
4.755076
21
8.0336344
0
LINE
8
layer0
10
4.755076
20
8.0336344
11
4.8222501
21
8.1309329
0
LINE
8
layer0
10
4.8222501
20
8.1309329
11
4.8994796
21
8.2243313
0
LINE
8
layer0
10
4.8994796
20
8.2243313
11
4.9566215
21
8.2855745
0
LINE
8
layer0
10
4.9566215
20
8.2855745
11
5.0281273
21
8.3561094
0
LINE
8
layer0
10
5.0281273
20
8.3561094
11
5.1143115
21
8.4343503
0
LINE
8
layer0
10
5.1143115
20
8.4343503
11
5.2178112
21
8.5206933
0
LINE
8
layer0
10
5.2178112
20
8.5206933
11
5.336974
21
8.6119173
0
LINE
8
layer0
10
5.336974
20
8.6119173
11
5.4746654
21
8.7084479
0
LINE
8
layer0
10
5.4746654
20
8.7084479
11
5.6289795
21
8.8072271
0
LINE
8
layer0
10
5.6289795
20
8.8072271
11
5.8011094
21
8.9075571
0
LINE
8
layer0
10
5.8011094
20
8.9075571
11
5.9929738
21
9.0088642
0
LINE
8
layer0
10
5.9929738
20
9.0088642
11
6.1814657
21
9.098854
0
ARC
8
layer0
10
-0.0000096
20
-0.000012
40
11
50
52.1909135
51
55.8090798
0
LINE
8
layer0
10
6.7433464
20
8.6906238
11
6.7160083
21
8.483549
0
LINE
8
layer0
10
6.7160083
20
8.483549
11
6.6789488
21
8.2697694
0
LINE
8
layer0
10
6.6789488
20
8.2697694
11
6.6367204
21
8.0750604
0
LINE
8
layer0
10
6.6367204
20
8.0750604
11
6.5904615
21
7.8977746
0
LINE
8
layer0
10
6.5904615
20
7.8977746
11
6.5412044
21
7.7369927
0
LINE
8
layer0
10
6.5412044
20
7.7369927
11
6.4912685
21
7.5954723
0
LINE
8
layer0
10
6.4912685
20
7.5954723
11
6.4411347
21
7.4703569
0
LINE
8
layer0
10
6.4411347
20
7.4703569
11
6.3933555
21
7.3642131
0
LINE
8
layer0
10
6.3933555
20
7.3642131
11
6.3483693
21
7.2744105
0
LINE
8
layer0
10
6.3483693
20
7.2744105
11
6.3077814
21
7.2011401
0
LINE
8
layer0
10
6.3077814
20
7.2011401
11
6.2428195
21
7.0988288
0
LINE
8
layer0
10
6.2428195
20
7.0988288
11
6.1710411
21
7.0048755
0
LINE
8
layer0
10
6.1710411
20
7.0048755
11
6.109544
21
6.9119405
0
LINE
8
layer0
10
6.109544
20
6.9119405
11
6.0662479
21
6.8267412
0
LINE
8
layer0
10
6.0662479
20
6.8267412
11
6.0511794
21
6.7874756
0
LINE
8
layer0
10
6.0511794
20
6.7874756
11
6.0403607
21
6.7506353
0
LINE
8
layer0
10
6.0403607
20
6.7506353
11
6.0336856
21
6.7163972
0
LINE
8
layer0
10
6.0336856
20
6.7163972
11
6.0310269
21
6.6849168
0
LINE
8
layer0
10
6.0310269
20
6.6849168
11
6.0322785
21
6.6563285
0
LINE
8
layer0
10
6.0322785
20
6.6563285
11
6.037306
21
6.6307948
0
LINE
8
layer0
10
6.037306
20
6.6307948
11
6.0459822
21
6.6084573
0
LINE
8
layer0
10
6.0459822
20
6.6084573
11
6.0581798
21
6.5894574
0
LINE
8
layer0
10
6.0581798
20
6.5894574
11
6.0695571
21
6.5774719
0
LINE
8
layer0
10
6.0695571
20
6.5774719
11
6.178098
21
6.4756627
0
LINE
8
layer0
10
6.178098
20
6.4756627
11
6.3286057
21
6.3286057
0
LINE
8
layer0
10
6.3286057
20
6.3286057
11
6.4756627
21
6.178098
0
LINE
8
layer0
10
6.4756627
20
6.178098
11
6.5774719
21
6.0695571
0
LINE
8
layer0
10
6.5774719
20
6.0695571
11
6.5894574
21
6.0581798
0
LINE
8
layer0
10
6.5894574
20
6.0581798
11
6.6084573
21
6.0459822
0
LINE
8
layer0
10
6.6084573
20
6.0459822
11
6.6307948
21
6.037306
0
LINE
8
layer0
10
6.6307948
20
6.037306
11
6.6563285
21
6.0322785
0
LINE
8
layer0
10
6.6563285
20
6.0322785
11
6.6849168
21
6.0310269
0
LINE
8
layer0
10
6.6849168
20
6.0310269
11
6.7163972
21
6.0336856
0
LINE
8
layer0
10
6.7163972
20
6.0336856
11
6.7506353
21
6.0403607
0
LINE
8
layer0
10
6.7506353
20
6.0403607
11
6.7874756
21
6.0511794
0
LINE
8
layer0
10
6.7874756
20
6.0511794
11
6.8267412
21
6.0662479
0
LINE
8
layer0
10
6.8267412
20
6.0662479
11
6.9119405
21
6.109544
0
LINE
8
layer0
10
6.9119405
20
6.109544
11
7.0048755
21
6.1710411
0
LINE
8
layer0
10
7.0048755
20
6.1710411
11
7.0988288
21
6.2428195
0
LINE
8
layer0
10
7.0988288
20
6.2428195
11
7.2011401
21
6.3077814
0
LINE
8
layer0
10
7.2011401
20
6.3077814
11
7.2744105
21
6.3483693
0
LINE
8
layer0
10
7.2744105
20
6.3483693
11
7.3642131
21
6.3933555
0
LINE
8
layer0
10
7.3642131
20
6.3933555
11
7.4703569
21
6.4411347
0
LINE
8
layer0
10
7.4703569
20
6.4411347
11
7.5954723
21
6.4912685
0
LINE
8
layer0
10
7.5954723
20
6.4912685
11
7.7369927
21
6.5412044
0
LINE
8
layer0
10
7.7369927
20
6.5412044
11
7.8977746
21
6.5904615
0
LINE
8
layer0
10
7.8977746
20
6.5904615
11
8.0750604
21
6.6367204
0
LINE
8
layer0
10
8.0750604
20
6.6367204
11
8.2697694
21
6.6789488
0
LINE
8
layer0
10
8.2697694
20
6.6789488
11
8.483549
21
6.7160083
0
LINE
8
layer0
10
8.483549
20
6.7160083
11
8.6906238
21
6.7433464
0
ARC
8
layer0
10
-0.000012
20
-0.0000095
40
11
50
34.1909202
51
37.8090865
0
LINE
8
layer0
10
9.098854
20
6.1814657
11
9.0088642
21
5.9929738
0
LINE
8
layer0
10
9.0088642
20
5.9929738
11
8.9075571
21
5.8011094
0
LINE
8
layer0
10
8.9075571
20
5.8011094
11
8.8072271
21
5.6289795
0
LINE
8
layer0
10
8.8072271
20
5.6289795
11
8.7084479
21
5.4746654
0
LINE
8
layer0
10
8.7084479
20
5.4746654
11
8.6119173
21
5.336974
0
LINE
8
layer0
10
8.6119173
20
5.336974
11
8.5206933
21
5.2178112
0
LINE
8
layer0
10
8.5206933
20
5.2178112
11
8.4343503
21
5.1143115
0
LINE
8
layer0
10
8.4343503
20
5.1143115
11
8.3561094
21
5.0281273
0
LINE
8
layer0
10
8.3561094
20
5.0281273
11
8.2855745
21
4.9566215
0
LINE
8
layer0
10
8.2855745
20
4.9566215
11
8.2243313
21
4.8994796
0
LINE
8
layer0
10
8.2243313
20
4.8994796
11
8.1309329
21
4.8222501
0
LINE
8
layer0
10
8.1309329
20
4.8222501
11
8.0336344
21
4.755076
0
LINE
8
layer0
10
8.0336344
20
4.755076
11
7.9464287
21
4.6856931
0
LINE
8
layer0
10
7.9464287
20
4.6856931
11
7.8789236
21
4.618043
0
LINE
8
layer0
10
7.8789236
20
4.618043
11
7.8524589
21
4.5853556
0
LINE
8
layer0
10
7.8524589
20
4.5853556
11
7.8307854
21
4.5536616
0
LINE
8
layer0
10
7.8307854
20
4.5536616
11
7.8138569
21
4.5231619
0
LINE
8
layer0
10
7.8138569
20
4.5231619
11
7.8016003
21
4.4940439
0
LINE
8
layer0
10
7.8016003
20
4.4940439
11
7.7939563
21
4.466468
0
LINE
8
layer0
10
7.7939563
20
4.466468
11
7.7908475
21
4.4406305
0
LINE
8
layer0
10
7.7908475
20
4.4406305
11
7.7921964
21
4.4167052
0
LINE
8
layer0
10
7.7921964
20
4.4167052
11
7.7979257
21
4.3948659
0
LINE
8
layer0
10
7.7979257
20
4.3948659
11
7.8050425
21
4.3799512
0
LINE
8
layer0
10
7.8050425
20
4.3799512
11
7.8768102
21
4.2495839
0
LINE
8
layer0
10
7.8768102
20
4.2495839
11
7.9745084
21
4.063215
0
LINE
8
layer0
10
7.9745084
20
4.063215
11
8.0678585
21
3.8746306
0
LINE
8
layer0
10
8.0678585
20
3.8746306
11
8.1311438
21
3.7399412
0
LINE
8
layer0
10
8.1311438
20
3.7399412
11
8.1390269
21
3.725417
0
LINE
8
layer0
10
8.1390269
20
3.725417
11
8.1533277
21
3.7079451
0
LINE
8
layer0
10
8.1533277
20
3.7079451
11
8.1718908
21
3.6927909
0
LINE
8
layer0
10
8.1718908
20
3.6927909
11
8.1946211
21
3.6801191
0
LINE
8
layer0
10
8.1946211
20
3.6801191
11
8.2214235
21
3.6700945
0
LINE
8
layer0
10
8.2214235
20
3.6700945
11
8.2521847
21
3.6628951
0
LINE
8
layer0
10
8.2521847
20
3.6628951
11
8.2868098
21
3.6586634
0
LINE
8
layer0
10
8.2868098
20
3.6586634
11
8.3251901
21
3.6575683
0
LINE
8
layer0
10
8.3251901
20
3.6575683
11
8.3671904
21
3.6597655
0
LINE
8
layer0
10
8.3671904
20
3.6597655
11
8.461599
21
3.6746146
0
LINE
8
layer0
10
8.461599
20
3.6746146
11
8.5689891
21
3.7043833
0
LINE
8
layer0
10
8.5689891
20
3.7043833
11
8.6805247
21
3.7436154
0
LINE
8
layer0
10
8.6805247
20
3.7436154
11
8.7979029
21
3.7737819
0
LINE
8
layer0
10
8.7979029
20
3.7737819
11
8.8801295
21
3.7897415
0
LINE
8
layer0
10
8.8801295
20
3.7897415
11
8.9794383
21
3.8047754
0
LINE
8
layer0
10
8.9794383
20
3.8047754
11
9.0951517
21
3.8174159
0
LINE
8
layer0
10
9.0951517
20
3.8174159
11
9.2296358
21
3.8264332
0
LINE
8
layer0
10
9.2296358
20
3.8264332
11
9.3796606
21
3.8301929
0
LINE
8
layer0
10
9.3796606
20
3.8301929
11
9.5477946
21
3.8273548
0
LINE
8
layer0
10
9.5477946
20
3.8273548
11
9.7306982
21
3.8165653
0
LINE
8
layer0
10
9.7306982
20
3.8165653
11
9.9289267
21
3.7965585
0
LINE
8
layer0
10
9.9289267
20
3.7965585
11
10.1436952
21
3.7657426
0
LINE
8
layer0
10
10.1436952
20
3.7657426
11
10.349083
21
3.7277531
0
ARC
8
layer0
10
-0.0000146
20
-0.0000047
40
11
50
16.1909167
51
19.8090831
0
LINE
8
layer0
10
10.5637023
20
3.0672228
11
10.4198698
21
2.9157647
0
LINE
8
layer1
10
10.4198698
20
2.9157647
11
10.2642316
21
2.7645963
0
LINE
8
layer1
10
10.2642316
20
2.7645963
11
10.115621
21
2.6318948
0
LINE
8
layer1
10
10.115621
20
2.6318948
11
9.9739908
21
2.5156578
0
LINE
8
layer1
10
9.9739908
20
2.5156578
11
9.8396357
21
2.4145351
0
LINE
8
layer1
10
9.8396357
20
2.4145351
11
9.7160532
21
2.3293943
0
LINE
8
layer1
10
9.7160532
20
2.3293943
11
9.601953
21
2.2576417
0
LINE
8
layer1
10
9.601953
20
2.2576417
11
9.5009091
21
2.1998535
0
LINE
8
layer1
10
9.5009091
20
2.1998535
11
9.4117299
21
2.1536439
0
LINE
8
layer1
10
9.4117299
20
2.1536439
11
9.3358263
21
2.1182238
0
LINE
8
layer1
10
9.3358263
20
2.1182238
11
9.223134
21
2.0736359
0
LINE
8
layer1
10
9.223134
20
2.0736359
11
9.1098397
21
2.0398164
0
LINE
8
layer1
10
9.1098397
20
2.0398164
11
9.0054616
21
2.0007775
0
LINE
8
layer1
10
9.0054616
20
2.0007775
11
8.9203554
21
1.9572986
0
LINE
8
layer1
10
8.9203554
20
1.9572986
11
8.885085
21
1.9343891
0
LINE
8
layer1
10
8.885085
20
1.9343891
11
8.8546783
21
1.9109438
0
LINE
8
layer1
10
8.8546783
20
1.9109438
11
8.8291534
21
1.8871681
0
LINE
8
layer1
10
8.8291534
20
1.8871681
11
8.8084987
21
1.8632626
0
LINE
8
layer1
10
8.8084987
20
1.8632626
11
8.7927075
21
1.8393985
0
LINE
8
layer1
10
8.7927075
20
1.8393985
11
8.7817666
21
1.8157863
0
LINE
8
layer1
10
8.7817666
20
1.8157863
11
8.7756561
21
1.7926151
0
LINE
8
layer1
10
8.7756561
20
1.7926151
11
8.7743563
21
1.7700743
0
LINE
8
layer1
10
8.7743563
20
1.7700743
11
8.7765159
21
1.7536904
0
LINE
8
layer1
10
8.7765159
20
1.7536904
11
8.8044853
21
1.6075263
0
LINE
8
layer1
10
8.8044853
20
1.6075263
11
8.8398106
21
1.4000885
0
LINE
8
layer1
10
8.8398106
20
1.4000885
11
8.8703161
21
1.1918873
0
LINE
8
layer1
10
8.8703161
20
1.1918873
11
8.8888827
21
1.0442339
0
LINE
8
layer1
10
8.8888827
20
1.0442339
11
8.8918917
21
1.0279845
0
LINE
8
layer1
10
8.8918917
20
1.0279845
11
8.9000935
21
1.0069486
0
LINE
8
layer1
10
8.9000935
20
1.0069486
11
8.9130651
21
0.9867997
0
LINE
8
layer1
10
8.9130651
20
0.9867997
11
8.9307672
21
0.9677241
0
LINE
8
layer1
10
8.9307672
20
0.9677241
11
8.9531599
21
0.9499077
0
LINE
8
layer1
10
8.9531599
20
0.9499077
11
8.9801909
21
0.933555
0
LINE
8
layer1
10
8.9801909
20
0.933555
11
9.0118136
21
0.9188306
0
LINE
8
layer1
10
9.0118136
20
0.9188306
11
9.0479771
21
0.9059289
0
LINE
8
layer1
10
9.0479771
20
0.9059289
11
9.0886007
21
0.8950398
0
LINE
8
layer1
10
9.0886007
20
0.8950398
11
9.1829772
21
0.8799882
0
LINE
8
layer1
10
9.1829772
20
0.8799882
11
9.2943103
21
0.8751146
0
LINE
8
layer1
10
9.2943103
20
0.8751146
11
9.4125104
21
0.8779602
0
LINE
8
layer1
10
9.4125104
20
0.8779602
11
9.5334656
21
0.8703784
0
LINE
8
layer1
10
9.5334656
20
0.8703784
11
9.6165996
21
0.8601475
0
LINE
8
layer1
10
9.6165996
20
0.8601475
11
9.7156936
21
0.8437574
0
LINE
8
layer1
10
9.7156936
20
0.8437574
11
9.8296496
21
0.8200218
0
LINE
8
layer1
10
9.8296496
20
0.8200218
11
9.9603381
21
0.7870399
0
LINE
8
layer1
10
9.9603381
20
0.7870399
11
10.1041821
21
0.7442553
0
LINE
8
layer1
10
10.1041821
20
0.7442553
11
10.26321
21
0.6895999
0
LINE
8
layer1
10
10.26321
20
0.6895999
11
10.4338275
21
0.6228181
0
LINE
8
layer1
10
10.4338275
20
0.6228181
11
10.6161716
21
0.5425346
0
LINE
8
layer1
10
10.6161716
20
0.5425346
11
10.8109059
21
0.4468599
0
LINE
8
layer1
10
10.8109059
20
0.4468599
11
10.9945019
21
0.3472613
0
ARC
8
layer1
10
-0.0000153
20
0
40
11
50
358.1909164
51
361.809083
0
LINE
8
layer1
10
10.9945019
20
-0.3472613
11
10.8109059
21
-0.4468599
0
LINE
8
layer1
10
10.8109059
20
-0.4468599
11
10.6161716
21
-0.5425346
0
LINE
8
layer1
10
10.6161716
20
-0.5425346
11
10.4338275
21
-0.6228181
0
LINE
8
layer1
10
10.4338275
20
-0.6228181
11
10.26321
21
-0.6895999
0
LINE
8
layer1
10
10.26321
20
-0.6895999
11
10.1041821
21
-0.7442553
0
LINE
8
layer1
10
10.1041821
20
-0.7442553
11
9.9603381
21
-0.7870399
0
LINE
8
layer1
10
9.9603381
20
-0.7870399
11
9.8296496
21
-0.8200218
0
LINE
8
layer1
10
9.8296496
20
-0.8200218
11
9.7156936
21
-0.8437574
0
LINE
8
layer1
10
9.7156936
20
-0.8437574
11
9.6165996
21
-0.8601475
0
LINE
8
layer1
10
9.6165996
20
-0.8601475
11
9.5334656
21
-0.8703784
0
LINE
8
layer1
10
9.5334656
20
-0.8703784
11
9.4125104
21
-0.8779602
0
LINE
8
layer1
10
9.4125104
20
-0.8779602
11
9.2943103
21
-0.8751146
0
LINE
8
layer1
10
9.2943103
20
-0.8751146
11
9.1829772
21
-0.8799882
0
LINE
8
layer1
10
9.1829772
20
-0.8799882
11
9.0886007
21
-0.8950398
0
LINE
8
layer1
10
9.0886007
20
-0.8950398
11
9.0479771
21
-0.9059289
0
LINE
8
layer1
10
9.0479771
20
-0.9059289
11
9.0118136
21
-0.9188306
0
LINE
8
layer1
10
9.0118136
20
-0.9188306
11
8.9801909
21
-0.933555
0
LINE
8
layer1
10
8.9801909
20
-0.933555
11
8.9531599
21
-0.9499077
0
LINE
8
layer1
10
8.9531599
20
-0.9499077
11
8.9307672
21
-0.9677241
0
LINE
8
layer1
10
8.9307672
20
-0.9677241
11
8.9130651
21
-0.9867997
0
LINE
8
layer1
10
8.9130651
20
-0.9867997
11
8.9000935
21
-1.0069486
0
LINE
8
layer1
10
8.9000935
20
-1.0069486
11
8.8918917
21
-1.0279845
0
LINE
8
layer1
10
8.8918917
20
-1.0279845
11
8.8888827
21
-1.0442339
0
LINE
8
layer1
10
8.8888827
20
-1.0442339
11
8.8703161
21
-1.1918873
0
LINE
8
layer1
10
8.8703161
20
-1.1918873
11
8.8398106
21
-1.4000885
0
LINE
8
layer1
10
8.8398106
20
-1.4000885
11
8.8044853
21
-1.6075263
0
LINE
8
layer1
10
8.8044853
20
-1.6075263
11
8.7765159
21
-1.7536904
0
LINE
8
layer1
10
8.7765159
20
-1.7536904
11
8.7743563
21
-1.7700743
0
LINE
8
layer1
10
8.7743563
20
-1.7700743
11
8.7756561
21
-1.7926151
0
LINE
8
layer1
10
8.7756561
20
-1.7926151
11
8.7817666
21
-1.8157863
0
LINE
8
layer1
10
8.7817666
20
-1.8157863
11
8.7927075
21
-1.8393985
0
LINE
8
layer1
10
8.7927075
20
-1.8393985
11
8.8084987
21
-1.8632626
0
LINE
8
layer1
10
8.8084987
20
-1.8632626
11
8.8291534
21
-1.8871681
0
LINE
8
layer1
10
8.8291534
20
-1.8871681
11
8.8546783
21
-1.9109438
0
LINE
8
layer1
10
8.8546783
20
-1.9109438
11
8.885085
21
-1.9343891
0
LINE
8
layer1
10
8.885085
20
-1.9343891
11
8.9203554
21
-1.9572986
0
LINE
8
layer1
10
8.9203554
20
-1.9572986
11
9.0054616
21
-2.0007775
0
LINE
8
layer1
10
9.0054616
20
-2.0007775
11
9.1098397
21
-2.0398164
0
LINE
8
layer1
10
9.1098397
20
-2.0398164
11
9.223134
21
-2.0736359
0
LINE
8
layer1
10
9.223134
20
-2.0736359
11
9.3358263
21
-2.1182238
0
LINE
8
layer1
10
9.3358263
20
-2.1182238
11
9.4117299
21
-2.1536439
0
LINE
8
layer1
10
9.4117299
20
-2.1536439
11
9.5009091
21
-2.1998535
0
LINE
8
layer1
10
9.5009091
20
-2.1998535
11
9.601953
21
-2.2576417
0
LINE
8
layer1
10
9.601953
20
-2.2576417
11
9.7160532
21
-2.3293943
0
LINE
8
layer1
10
9.7160532
20
-2.3293943
11
9.8396357
21
-2.4145351
0
LINE
8
layer1
10
9.8396357
20
-2.4145351
11
9.9739908
21
-2.5156578
0
LINE
8
layer1
10
9.9739908
20
-2.5156578
11
10.115621
21
-2.6318948
0
LINE
8
layer1
10
10.115621
20
-2.6318948
11
10.2642316
21
-2.7645963
0
LINE
8
layer1
10
10.2642316
20
-2.7645963
11
10.4198698
21
-2.9157647
0
LINE
8
layer1
10
10.4198698
20
-2.9157647
11
10.5637023
21
-3.0672228
0
ARC
8
layer1
10
-0.0000147
20
0.0000046
40
11
50
340.1909176
51
343.8090839
0
LINE
8
layer1
10
10.349083
20
-3.7277531
11
10.1436952
21
-3.7657426
0
LINE
8
layer1
10
10.1436952
20
-3.7657426
11
9.9289267
21
-3.7965585
0
LINE
8
layer1
10
9.9289267
20
-3.7965585
11
9.7306982
21
-3.8165653
0
LINE
8
layer1
10
9.7306982
20
-3.8165653
11
9.5477946
21
-3.8273548
0
LINE
8
layer1
10
9.5477946
20
-3.8273548
11
9.3796606
21
-3.8301929
0
LINE
8
layer1
10
9.3796606
20
-3.8301929
11
9.2296358
21
-3.8264332
0
LINE
8
layer1
10
9.2296358
20
-3.8264332
11
9.0951517
21
-3.8174159
0
LINE
8
layer1
10
9.0951517
20
-3.8174159
11
8.9794383
21
-3.8047754
0
LINE
8
layer1
10
8.9794383
20
-3.8047754
11
8.8801295
21
-3.7897415
0
LINE
8
layer1
10
8.8801295
20
-3.7897415
11
8.7979029
21
-3.7737819
0
LINE
8
layer1
10
8.7979029
20
-3.7737819
11
8.6805247
21
-3.7436154
0
LINE
8
layer1
10
8.6805247
20
-3.7436154
11
8.5689891
21
-3.7043833
0
LINE
8
layer1
10
8.5689891
20
-3.7043833
11
8.461599
21
-3.6746146
0
LINE
8
layer1
10
8.461599
20
-3.6746146
11
8.3671904
21
-3.6597655
0
LINE
8
layer1
10
8.3671904
20
-3.6597655
11
8.3251901
21
-3.6575683
0
LINE
8
layer1
10
8.3251901
20
-3.6575683
11
8.2868098
21
-3.6586634
0
LINE
8
layer1
10
8.2868098
20
-3.6586634
11
8.2521847
21
-3.6628951
0
LINE
8
layer1
10
8.2521847
20
-3.6628951
11
8.2214235
21
-3.6700945
0
LINE
8
layer1
10
8.2214235
20
-3.6700945
11
8.1946211
21
-3.6801191
0
LINE
8
layer1
10
8.1946211
20
-3.6801191
11
8.1718908
21
-3.6927909
0
LINE
8
layer1
10
8.1718908
20
-3.6927909
11
8.1533277
21
-3.7079451
0
LINE
8
layer1
10
8.1533277
20
-3.7079451
11
8.1390269
21
-3.725417
0
LINE
8
layer1
10
8.1390269
20
-3.725417
11
8.1311438
21
-3.7399412
0
LINE
8
layer1
10
8.1311438
20
-3.7399412
11
8.0678585
21
-3.8746306
0
LINE
8
layer1
10
8.0678585
20
-3.8746306
11
7.9745084
21
-4.063215
0
LINE
8
layer1
10
7.9745084
20
-4.063215
11
7.8768102
21
-4.2495839
0
LINE
8
layer1
10
7.8768102
20
-4.2495839
11
7.8050425
21
-4.3799512
0
LINE
8
layer1
10
7.8050425
20
-4.3799512
11
7.7979257
21
-4.3948659
0
LINE
8
layer1
10
7.7979257
20
-4.3948659
11
7.7921964
21
-4.4167052
0
LINE
8
layer1
10
7.7921964
20
-4.4167052
11
7.7908475
21
-4.4406305
0
LINE
8
layer1
10
7.7908475
20
-4.4406305
11
7.7939563
21
-4.466468
0
LINE
8
layer1
10
7.7939563
20
-4.466468
11
7.8016003
21
-4.4940439
0
LINE
8
layer1
10
7.8016003
20
-4.4940439
11
7.8138569
21
-4.5231619
0
LINE
8
layer1
10
7.8138569
20
-4.5231619
11
7.8307854
21
-4.5536616
0
LINE
8
layer1
10
7.8307854
20
-4.5536616
11
7.8524589
21
-4.5853556
0
LINE
8
layer1
10
7.8524589
20
-4.5853556
11
7.8789236
21
-4.618043
0
LINE
8
layer1
10
7.8789236
20
-4.618043
11
7.9464287
21
-4.6856931
0
LINE
8
layer1
10
7.9464287
20
-4.6856931
11
8.0336344
21
-4.755076
0
LINE
8
layer1
10
8.0336344
20
-4.755076
11
8.1309329
21
-4.8222501
0
LINE
8
layer1
10
8.1309329
20
-4.8222501
11
8.2243313
21
-4.8994796
0
LINE
8
layer1
10
8.2243313
20
-4.8994796
11
8.2855745
21
-4.9566215
0
LINE
8
layer1
10
8.2855745
20
-4.9566215
11
8.3561094
21
-5.0281273
0
LINE
8
layer1
10
8.3561094
20
-5.0281273
11
8.4343503
21
-5.1143115
0
LINE
8
layer1
10
8.4343503
20
-5.1143115
11
8.5206933
21
-5.2178112
0
LINE
8
layer1
10
8.5206933
20
-5.2178112
11
8.6119173
21
-5.336974
0
LINE
8
layer1
10
8.6119173
20
-5.336974
11
8.7084479
21
-5.4746654
0
LINE
8
layer1
10
8.7084479
20
-5.4746654
11
8.8072271
21
-5.6289795
0
LINE
8
layer1
10
8.8072271
20
-5.6289795
11
8.9075571
21
-5.8011094
0
LINE
8
layer1
10
8.9075571
20
-5.8011094
11
9.0088642
21
-5.9929738
0
LINE
8
layer1
10
9.0088642
20
-5.9929738
11
9.098854
21
-6.1814657
0
ARC
8
layer1
10
-0.000012
20
0.0000096
40
11
50
322.1909135
51
325.8090798
0
LINE
8
layer1
10
8.6906238
20
-6.7433464
11
8.483549
21
-6.7160083
0
LINE
8
layer1
10
8.483549
20
-6.7160083
11
8.2697694
21
-6.6789488
0
LINE
8
layer1
10
8.2697694
20
-6.6789488
11
8.0750604
21
-6.6367204
0
LINE
8
layer1
10
8.0750604
20
-6.6367204
11
7.8977746
21
-6.5904615
0
LINE
8
layer1
10
7.8977746
20
-6.5904615
11
7.7369927
21
-6.5412044
0
LINE
8
layer1
10
7.7369927
20
-6.5412044
11
7.5954723
21
-6.4912685
0
LINE
8
layer1
10
7.5954723
20
-6.4912685
11
7.4703569
21
-6.4411347
0
LINE
8
layer1
10
7.4703569
20
-6.4411347
11
7.3642131
21
-6.3933555
0
LINE
8
layer1
10
7.3642131
20
-6.3933555
11
7.2744105
21
-6.3483693
0
LINE
8
layer1
10
7.2744105
20
-6.3483693
11
7.2011401
21
-6.3077814
0
LINE
8
layer1
10
7.2011401
20
-6.3077814
11
7.0988288
21
-6.2428195
0
LINE
8
layer1
10
7.0988288
20
-6.2428195
11
7.0048755
21
-6.1710411
0
LINE
8
layer1
10
7.0048755
20
-6.1710411
11
6.9119405
21
-6.109544
0
LINE
8
layer1
10
6.9119405
20
-6.109544
11
6.8267412
21
-6.0662479
0
LINE
8
layer1
10
6.8267412
20
-6.0662479
11
6.7874756
21
-6.0511794
0
LINE
8
layer1
10
6.7874756
20
-6.0511794
11
6.7506353
21
-6.0403607
0
LINE
8
layer1
10
6.7506353
20
-6.0403607
11
6.7163972
21
-6.0336856
0
LINE
8
layer1
10
6.7163972
20
-6.0336856
11
6.6849168
21
-6.0310269
0
LINE
8
layer1
10
6.6849168
20
-6.0310269
11
6.6563285
21
-6.0322785
0
LINE
8
layer1
10
6.6563285
20
-6.0322785
11
6.6307948
21
-6.037306
0
LINE
8
layer1
10
6.6307948
20
-6.037306
11
6.6084573
21
-6.0459822
0
LINE
8
layer1
10
6.6084573
20
-6.0459822
11
6.5894574
21
-6.0581798
0
LINE
8
layer1
10
6.5894574
20
-6.0581798
11
6.5774719
21
-6.0695571
0
LINE
8
layer1
10
6.5774719
20
-6.0695571
11
6.4756627
21
-6.178098
0
LINE
8
layer1
10
6.4756627
20
-6.178098
11
6.3286057
21
-6.3286057
0
LINE
8
layer1
10
6.3286057
20
-6.3286057
11
6.178098
21
-6.4756627
0
LINE
8
layer1
10
6.178098
20
-6.4756627
11
6.0695571
21
-6.5774719
0
LINE
8
layer1
10
6.0695571
20
-6.5774719
11
6.0581798
21
-6.5894574
0
LINE
8
layer1
10
6.0581798
20
-6.5894574
11
6.0459822
21
-6.6084573
0
LINE
8
layer1
10
6.0459822
20
-6.6084573
11
6.037306
21
-6.6307948
0
LINE
8
layer1
10
6.037306
20
-6.6307948
11
6.0322785
21
-6.6563285
0
LINE
8
layer1
10
6.0322785
20
-6.6563285
11
6.0310269
21
-6.6849168
0
LINE
8
layer1
10
6.0310269
20
-6.6849168
11
6.0336856
21
-6.7163972
0
LINE
8
layer1
10
6.0336856
20
-6.7163972
11
6.0403607
21
-6.7506353
0
LINE
8
layer1
10
6.0403607
20
-6.7506353
11
6.0511794
21
-6.7874756
0
LINE
8
layer1
10
6.0511794
20
-6.7874756
11
6.0662479
21
-6.8267412
0
LINE
8
layer1
10
6.0662479
20
-6.8267412
11
6.109544
21
-6.9119405
0
LINE
8
layer1
10
6.109544
20
-6.9119405
11
6.1710411
21
-7.0048755
0
LINE
8
layer1
10
6.1710411
20
-7.0048755
11
6.2428195
21
-7.0988288
0
LINE
8
layer1
10
6.2428195
20
-7.0988288
11
6.3077814
21
-7.2011401
0
LINE
8
layer1
10
6.3077814
20
-7.2011401
11
6.3483693
21
-7.2744105
0
LINE
8
layer1
10
6.3483693
20
-7.2744105
11
6.3933555
21
-7.3642131
0
LINE
8
layer1
10
6.3933555
20
-7.3642131
11
6.4411347
21
-7.4703569
0
LINE
8
layer1
10
6.4411347
20
-7.4703569
11
6.4912685
21
-7.5954723
0
LINE
8
layer1
10
6.4912685
20
-7.5954723
11
6.5412044
21
-7.7369927
0
LINE
8
layer1
10
6.5412044
20
-7.7369927
11
6.5904615
21
-7.8977746
0
LINE
8
layer1
10
6.5904615
20
-7.8977746
11
6.6367204
21
-8.0750604
0
LINE
8
layer1
10
6.6367204
20
-8.0750604
11
6.6789488
21
-8.2697694
0
LINE
8
layer1
10
6.6789488
20
-8.2697694
11
6.7160083
21
-8.483549
0
LINE
8
layer1
10
6.7160083
20
-8.483549
11
6.7433464
21
-8.6906238
0
ARC
8
layer1
10
-0.0000095
20
0.000012
40
11
50
304.1909202
51
307.8090865
0
LINE
8
layer1
10
6.1814657
20
-9.098854
11
5.9929738
21
-9.0088642
0
LINE
8
layer1
10
5.9929738
20
-9.0088642
11
5.8011094
21
-8.9075571
0
LINE
8
layer1
10
5.8011094
20
-8.9075571
11
5.6289795
21
-8.8072271
0
LINE
8
layer1
10
5.6289795
20
-8.8072271
11
5.4746654
21
-8.7084479
0
LINE
8
layer1
10
5.4746654
20
-8.7084479
11
5.336974
21
-8.6119173
0
LINE
8
layer1
10
5.336974
20
-8.6119173
11
5.2178112
21
-8.5206933
0
LINE
8
layer1
10
5.2178112
20
-8.5206933
11
5.1143115
21
-8.4343503
0
LINE
8
layer1
10
5.1143115
20
-8.4343503
11
5.0281273
21
-8.3561094
0
LINE
8
layer1
10
5.0281273
20
-8.3561094
11
4.9566215
21
-8.2855745
0
LINE
8
layer1
10
4.9566215
20
-8.2855745
11
4.8994796
21
-8.2243313
0
LINE
8
layer1
10
4.8994796
20
-8.2243313
11
4.8222501
21
-8.1309329
0
LINE
8
layer1
10
4.8222501
20
-8.1309329
11
4.755076
21
-8.0336344
0
LINE
8
layer1
10
4.755076
20
-8.0336344
11
4.6856931
21
-7.9464287
0
LINE
8
layer1
10
4.6856931
20
-7.9464287
11
4.618043
21
-7.8789236
0
LINE
8
layer1
10
4.618043
20
-7.8789236
11
4.5853556
21
-7.8524589
0
LINE
8
layer1
10
4.5853556
20
-7.8524589
11
4.5536616
21
-7.8307854
0
LINE
8
layer1
10
4.5536616
20
-7.8307854
11
4.5231619
21
-7.8138569
0
LINE
8
layer1
10
4.5231619
20
-7.8138569
11
4.4940439
21
-7.8016003
0
LINE
8
layer1
10
4.4940439
20
-7.8016003
11
4.466468
21
-7.7939563
0
LINE
8
layer1
10
4.466468
20
-7.7939563
11
4.4406305
21
-7.7908475
0
LINE
8
layer1
10
4.4406305
20
-7.7908475
11
4.4167052
21
-7.7921964
0
LINE
8
layer1
10
4.4167052
20
-7.7921964
11
4.3948659
21
-7.7979257
0
LINE
8
layer1
10
4.3948659
20
-7.7979257
11
4.3799512
21
-7.8050425
0
LINE
8
layer1
10
4.3799512
20
-7.8050425
11
4.2495839
21
-7.8768102
0
LINE
8
layer1
10
4.2495839
20
-7.8768102
11
4.063215
21
-7.9745084
0
LINE
8
layer1
10
4.063215
20
-7.9745084
11
3.8746306
21
-8.0678585
0
LINE
8
layer1
10
3.8746306
20
-8.0678585
11
3.7399412
21
-8.1311438
0
LINE
8
layer1
10
3.7399412
20
-8.1311438
11
3.725417
21
-8.1390269
0
LINE
8
layer1
10
3.725417
20
-8.1390269
11
3.7079451
21
-8.1533277
0
LINE
8
layer1
10
3.7079451
20
-8.1533277
11
3.6927909
21
-8.1718908
0
LINE
8
layer1
10
3.6927909
20
-8.1718908
11
3.6801191
21
-8.1946211
0
LINE
8
layer1
10
3.6801191
20
-8.1946211
11
3.6700945
21
-8.2214235
0
LINE
8
layer1
10
3.6700945
20
-8.2214235
11
3.6628951
21
-8.2521847
0
LINE
8
layer1
10
3.6628951
20
-8.2521847
11
3.6586634
21
-8.2868098
0
LINE
8
layer1
10
3.6586634
20
-8.2868098
11
3.6575683
21
-8.3251901
0
LINE
8
layer1
10
3.6575683
20
-8.3251901
11
3.6597655
21
-8.3671904
0
LINE
8
layer1
10
3.6597655
20
-8.3671904
11
3.6746146
21
-8.461599
0
LINE
8
layer1
10
3.6746146
20
-8.461599
11
3.7043833
21
-8.5689891
0
LINE
8
layer1
10
3.7043833
20
-8.5689891
11
3.7436154
21
-8.6805247
0
LINE
8
layer1
10
3.7436154
20
-8.6805247
11
3.7737819
21
-8.7979029
0
LINE
8
layer1
10
3.7737819
20
-8.7979029
11
3.7897415
21
-8.8801295
0
LINE
8
layer1
10
3.7897415
20
-8.8801295
11
3.8047754
21
-8.9794383
0
LINE
8
layer1
10
3.8047754
20
-8.9794383
11
3.8174159
21
-9.0951517
0
LINE
8
layer1
10
3.8174159
20
-9.0951517
11
3.8264332
21
-9.2296358
0
LINE
8
layer1
10
3.8264332
20
-9.2296358
11
3.8301929
21
-9.3796606
0
LINE
8
layer1
10
3.8301929
20
-9.3796606
11
3.8273548
21
-9.5477946
0
LINE
8
layer1
10
3.8273548
20
-9.5477946
11
3.8165653
21
-9.7306982
0
LINE
8
layer1
10
3.8165653
20
-9.7306982
11
3.7965585
21
-9.9289267
0
LINE
8
layer1
10
3.7965585
20
-9.9289267
11
3.7657426
21
-10.1436952
0
LINE
8
layer1
10
3.7657426
20
-10.1436952
11
3.7277531
21
-10.349083
0
ARC
8
layer1
10
-0.0000047
20
0.0000146
40
11
50
286.1909167
51
289.8090831
0
LINE
8
layer1
10
3.0672228
20
-10.5637023
11
2.9157647
21
-10.4198698
0
LINE
8
layer1
10
2.9157647
20
-10.4198698
11
2.7645963
21
-10.2642316
0
LINE
8
layer1
10
2.7645963
20
-10.2642316
11
2.6318948
21
-10.115621
0
LINE
8
layer1
10
2.6318948
20
-10.115621
11
2.5156578
21
-9.9739908
0
LINE
8
layer1
10
2.5156578
20
-9.9739908
11
2.4145351
21
-9.8396357
0
LINE
8
layer1
10
2.4145351
20
-9.8396357
11
2.3293943
21
-9.7160532
0
LINE
8
layer1
10
2.3293943
20
-9.7160532
11
2.2576417
21
-9.601953
0
LINE
8
layer1
10
2.2576417
20
-9.601953
11
2.1998535
21
-9.5009091
0
LINE
8
layer1
10
2.1998535
20
-9.5009091
11
2.1536439
21
-9.4117299
0
LINE
8
layer1
10
2.1536439
20
-9.4117299
11
2.1182238
21
-9.3358263
0
LINE
8
layer1
10
2.1182238
20
-9.3358263
11
2.0736359
21
-9.223134
0
LINE
8
layer1
10
2.0736359
20
-9.223134
11
2.0398164
21
-9.1098397
0
LINE
8
layer1
10
2.0398164
20
-9.1098397
11
2.0007775
21
-9.0054616
0
LINE
8
layer1
10
2.0007775
20
-9.0054616
11
1.9572986
21
-8.9203554
0
LINE
8
layer1
10
1.9572986
20
-8.9203554
11
1.9343891
21
-8.885085
0
LINE
8
layer1
10
1.9343891
20
-8.885085
11
1.9109438
21
-8.8546783
0
LINE
8
layer1
10
1.9109438
20
-8.8546783
11
1.8871681
21
-8.8291534
0
LINE
8
layer1
10
1.8871681
20
-8.8291534
11
1.8632626
21
-8.8084987
0
LINE
8
layer1
10
1.8632626
20
-8.8084987
11
1.8393985
21
-8.7927075
0
LINE
8
layer1
10
1.8393985
20
-8.7927075
11
1.8157863
21
-8.7817666
0
LINE
8
layer1
10
1.8157863
20
-8.7817666
11
1.7926151
21
-8.7756561
0
LINE
8
layer1
10
1.7926151
20
-8.7756561
11
1.7700743
21
-8.7743563
0
LINE
8
layer1
10
1.7700743
20
-8.7743563
11
1.7536904
21
-8.7765159
0
LINE
8
layer1
10
1.7536904
20
-8.7765159
11
1.6075263
21
-8.8044853
0
LINE
8
layer1
10
1.6075263
20
-8.8044853
11
1.4000885
21
-8.8398106
0
LINE
8
layer1
10
1.4000885
20
-8.8398106
11
1.1918873
21
-8.8703161
0
LINE
8
layer1
10
1.1918873
20
-8.8703161
11
1.0442339
21
-8.8888827
0
LINE
8
layer1
10
1.0442339
20
-8.8888827
11
1.0279845
21
-8.8918917
0
LINE
8
layer1
10
1.0279845
20
-8.8918917
11
1.0069486
21
-8.9000935
0
LINE
8
layer1
10
1.0069486
20
-8.9000935
11
0.9867997
21
-8.9130651
0
LINE
8
layer1
10
0.9867997
20
-8.9130651
11
0.9677241
21
-8.9307672
0
LINE
8
layer1
10
0.9677241
20
-8.9307672
11
0.9499077
21
-8.9531599
0
LINE
8
layer1
10
0.9499077
20
-8.9531599
11
0.933555
21
-8.9801909
0
LINE
8
layer1
10
0.933555
20
-8.9801909
11
0.9188306
21
-9.0118136
0
LINE
8
layer1
10
0.9188306
20
-9.0118136
11
0.9059289
21
-9.0479771
0
LINE
8
layer1
10
0.9059289
20
-9.0479771
11
0.8950398
21
-9.0886007
0
LINE
8
layer1
10
0.8950398
20
-9.0886007
11
0.8799882
21
-9.1829772
0
LINE
8
layer1
10
0.8799882
20
-9.1829772
11
0.8751146
21
-9.2943103
0
LINE
8
layer1
10
0.8751146
20
-9.2943103
11
0.8779602
21
-9.4125104
0
LINE
8
layer1
10
0.8779602
20
-9.4125104
11
0.8703784
21
-9.5334656
0
LINE
8
layer1
10
0.8703784
20
-9.5334656
11
0.8601475
21
-9.6165996
0
LINE
8
layer1
10
0.8601475
20
-9.6165996
11
0.8437574
21
-9.7156936
0
LINE
8
layer1
10
0.8437574
20
-9.7156936
11
0.8200218
21
-9.8296496
0
LINE
8
layer1
10
0.8200218
20
-9.8296496
11
0.7870399
21
-9.9603381
0
LINE
8
layer1
10
0.7870399
20
-9.9603381
11
0.7442553
21
-10.1041821
0
LINE
8
layer1
10
0.7442553
20
-10.1041821
11
0.6895999
21
-10.26321
0
LINE
8
layer1
10
0.6895999
20
-10.26321
11
0.6228181
21
-10.4338275
0
LINE
8
layer1
10
0.6228181
20
-10.4338275
11
0.5425346
21
-10.6161716
0
LINE
8
layer1
10
0.5425346
20
-10.6161716
11
0.4468599
21
-10.8109059
0
LINE
8
layer1
10
0.4468599
20
-10.8109059
11
0.3472613
21
-10.9945019
0
ARC
8
layer1
10
0
20
0.0000153
40
11
50
268.1909164
51
271.809083
0
LINE
8
layer1
10
-0.3472613
20
-10.9945019
11
-0.4468599
21
-10.8109059
0
LINE
8
layer1
10
-0.4468599
20
-10.8109059
11
-0.5425346
21
-10.6161716
0
LINE
8
layer1
10
-0.5425346
20
-10.6161716
11
-0.6228181
21
-10.4338275
0
LINE
8
layer1
10
-0.6228181
20
-10.4338275
11
-0.6895999
21
-10.26321
0
LINE
8
layer1
10
-0.6895999
20
-10.26321
11
-0.7442553
21
-10.1041821
0
LINE
8
layer1
10
-0.7442553
20
-10.1041821
11
-0.7870399
21
-9.9603381
0
LINE
8
layer1
10
-0.7870399
20
-9.9603381
11
-0.8200218
21
-9.8296496
0
LINE
8
layer1
10
-0.8200218
20
-9.8296496
11
-0.8437574
21
-9.7156936
0
LINE
8
layer1
10
-0.8437574
20
-9.7156936
11
-0.8601475
21
-9.6165996
0
LINE
8
layer1
10
-0.8601475
20
-9.6165996
11
-0.8703784
21
-9.5334656
0
LINE
8
layer1
10
-0.8703784
20
-9.5334656
11
-0.8779602
21
-9.4125104
0
LINE
8
layer1
10
-0.8779602
20
-9.4125104
11
-0.8751146
21
-9.2943103
0
LINE
8
layer1
10
-0.8751146
20
-9.2943103
11
-0.8799882
21
-9.1829772
0
LINE
8
layer1
10
-0.8799882
20
-9.1829772
11
-0.8950398
21
-9.0886007
0
LINE
8
layer1
10
-0.8950398
20
-9.0886007
11
-0.9059289
21
-9.0479771
0
LINE
8
layer1
10
-0.9059289
20
-9.0479771
11
-0.9188306
21
-9.0118136
0
LINE
8
layer1
10
-0.9188306
20
-9.0118136
11
-0.933555
21
-8.9801909
0
LINE
8
layer1
10
-0.933555
20
-8.9801909
11
-0.9499077
21
-8.9531599
0
LINE
8
layer1
10
-0.9499077
20
-8.9531599
11
-0.9677241
21
-8.9307672
0
LINE
8
layer1
10
-0.9677241
20
-8.9307672
11
-0.9867997
21
-8.9130651
0
LINE
8
layer1
10
-0.9867997
20
-8.9130651
11
-1.0069486
21
-8.9000935
0
LINE
8
layer1
10
-1.0069486
20
-8.9000935
11
-1.0279845
21
-8.8918917
0
LINE
8
layer1
10
-1.0279845
20
-8.8918917
11
-1.0442339
21
-8.8888827
0
LINE
8
layer1
10
-1.0442339
20
-8.8888827
11
-1.1918873
21
-8.8703161
0
LINE
8
layer1
10
-1.1918873
20
-8.8703161
11
-1.4000885
21
-8.8398106
0
LINE
8
layer1
10
-1.4000885
20
-8.8398106
11
-1.6075263
21
-8.8044853
0
LINE
8
layer1
10
-1.6075263
20
-8.8044853
11
-1.7536904
21
-8.7765159
0
LINE
8
layer1
10
-1.7536904
20
-8.7765159
11
-1.7700743
21
-8.7743563
0
LINE
8
layer1
10
-1.7700743
20
-8.7743563
11
-1.7926151
21
-8.7756561
0
LINE
8
layer1
10
-1.7926151
20
-8.7756561
11
-1.8157863
21
-8.7817666
0
LINE
8
layer1
10
-1.8157863
20
-8.7817666
11
-1.8393985
21
-8.7927075
0
LINE
8
layer1
10
-1.8393985
20
-8.7927075
11
-1.8632626
21
-8.8084987
0
LINE
8
layer1
10
-1.8632626
20
-8.8084987
11
-1.8871681
21
-8.8291534
0
LINE
8
layer1
10
-1.8871681
20
-8.8291534
11
-1.9109438
21
-8.8546783
0
LINE
8
layer1
10
-1.9109438
20
-8.8546783
11
-1.9343891
21
-8.885085
0
LINE
8
layer1
10
-1.9343891
20
-8.885085
11
-1.9572986
21
-8.9203554
0
LINE
8
layer1
10
-1.9572986
20
-8.9203554
11
-2.0007775
21
-9.0054616
0
LINE
8
layer1
10
-2.0007775
20
-9.0054616
11
-2.0398164
21
-9.1098397
0
LINE
8
layer1
10
-2.0398164
20
-9.1098397
11
-2.0736359
21
-9.223134
0
LINE
8
layer1
10
-2.0736359
20
-9.223134
11
-2.1182238
21
-9.3358263
0
LINE
8
layer1
10
-2.1182238
20
-9.3358263
11
-2.1536439
21
-9.4117299
0
LINE
8
layer1
10
-2.1536439
20
-9.4117299
11
-2.1998535
21
-9.5009091
0
LINE
8
layer1
10
-2.1998535
20
-9.5009091
11
-2.2576417
21
-9.601953
0
LINE
8
layer1
10
-2.2576417
20
-9.601953
11
-2.3293943
21
-9.7160532
0
LINE
8
layer1
10
-2.3293943
20
-9.7160532
11
-2.4145351
21
-9.8396357
0
LINE
8
layer1
10
-2.4145351
20
-9.8396357
11
-2.5156578
21
-9.9739908
0
LINE
8
layer1
10
-2.5156578
20
-9.9739908
11
-2.6318948
21
-10.115621
0
LINE
8
layer1
10
-2.6318948
20
-10.115621
11
-2.7645963
21
-10.2642316
0
LINE
8
layer1
10
-2.7645963
20
-10.2642316
11
-2.9157647
21
-10.4198698
0
LINE
8
layer1
10
-2.9157647
20
-10.4198698
11
-3.0672228
21
-10.5637023
0
ARC
8
layer1
10
0.0000046
20
0.0000147
40
11
50
250.1909176
51
253.8090839
0
LINE
8
layer1
10
-3.7277531
20
-10.349083
11
-3.7657426
21
-10.1436952
0
LINE
8
layer1
10
-3.7657426
20
-10.1436952
11
-3.7965585
21
-9.9289267
0
LINE
8
layer1
10
-3.7965585
20
-9.9289267
11
-3.8165653
21
-9.7306982
0
LINE
8
layer1
10
-3.8165653
20
-9.7306982
11
-3.8273548
21
-9.5477946
0
LINE
8
layer1
10
-3.8273548
20
-9.5477946
11
-3.8301929
21
-9.3796606
0
LINE
8
layer1
10
-3.8301929
20
-9.3796606
11
-3.8264332
21
-9.2296358
0
LINE
8
layer1
10
-3.8264332
20
-9.2296358
11
-3.8174159
21
-9.0951517
0
LINE
8
layer1
10
-3.8174159
20
-9.0951517
11
-3.8047754
21
-8.9794383
0
LINE
8
layer1
10
-3.8047754
20
-8.9794383
11
-3.7897415
21
-8.8801295
0
LINE
8
layer1
10
-3.7897415
20
-8.8801295
11
-3.7737819
21
-8.7979029
0
LINE
8
layer1
10
-3.7737819
20
-8.7979029
11
-3.7436154
21
-8.6805247
0
LINE
8
layer1
10
-3.7436154
20
-8.6805247
11
-3.7043833
21
-8.5689891
0
LINE
8
layer1
10
-3.7043833
20
-8.5689891
11
-3.6746146
21
-8.461599
0
LINE
8
layer1
10
-3.6746146
20
-8.461599
11
-3.6597655
21
-8.3671904
0
LINE
8
layer1
10
-3.6597655
20
-8.3671904
11
-3.6575683
21
-8.3251901
0
LINE
8
layer1
10
-3.6575683
20
-8.3251901
11
-3.6586634
21
-8.2868098
0
LINE
8
layer1
10
-3.6586634
20
-8.2868098
11
-3.6628951
21
-8.2521847
0
LINE
8
layer1
10
-3.6628951
20
-8.2521847
11
-3.6700945
21
-8.2214235
0
LINE
8
layer1
10
-3.6700945
20
-8.2214235
11
-3.6801191
21
-8.1946211
0
LINE
8
layer1
10
-3.6801191
20
-8.1946211
11
-3.6927909
21
-8.1718908
0
LINE
8
layer1
10
-3.6927909
20
-8.1718908
11
-3.7079451
21
-8.1533277
0
LINE
8
layer1
10
-3.7079451
20
-8.1533277
11
-3.725417
21
-8.1390269
0
LINE
8
layer1
10
-3.725417
20
-8.1390269
11
-3.7399412
21
-8.1311438
0
LINE
8
layer1
10
-3.7399412
20
-8.1311438
11
-3.8746306
21
-8.0678585
0
LINE
8
layer1
10
-3.8746306
20
-8.0678585
11
-4.063215
21
-7.9745084
0
LINE
8
layer1
10
-4.063215
20
-7.9745084
11
-4.2495839
21
-7.8768102
0
LINE
8
layer1
10
-4.2495839
20
-7.8768102
11
-4.3799512
21
-7.8050425
0
LINE
8
layer1
10
-4.3799512
20
-7.8050425
11
-4.3948659
21
-7.7979257
0
LINE
8
layer1
10
-4.3948659
20
-7.7979257
11
-4.4167052
21
-7.7921964
0
LINE
8
layer1
10
-4.4167052
20
-7.7921964
11
-4.4406305
21
-7.7908475
0
LINE
8
layer1
10
-4.4406305
20
-7.7908475
11
-4.466468
21
-7.7939563
0
LINE
8
layer1
10
-4.466468
20
-7.7939563
11
-4.4940439
21
-7.8016003
0
LINE
8
layer1
10
-4.4940439
20
-7.8016003
11
-4.5231619
21
-7.8138569
0
LINE
8
layer1
10
-4.5231619
20
-7.8138569
11
-4.5536616
21
-7.8307854
0
LINE
8
layer1
10
-4.5536616
20
-7.8307854
11
-4.5853556
21
-7.8524589
0
LINE
8
layer1
10
-4.5853556
20
-7.8524589
11
-4.618043
21
-7.8789236
0
LINE
8
layer1
10
-4.618043
20
-7.8789236
11
-4.6856931
21
-7.9464287
0
LINE
8
layer1
10
-4.6856931
20
-7.9464287
11
-4.755076
21
-8.0336344
0
LINE
8
layer1
10
-4.755076
20
-8.0336344
11
-4.8222501
21
-8.1309329
0
LINE
8
layer1
10
-4.8222501
20
-8.1309329
11
-4.8994796
21
-8.2243313
0
LINE
8
layer1
10
-4.8994796
20
-8.2243313
11
-4.9566215
21
-8.2855745
0
LINE
8
layer1
10
-4.9566215
20
-8.2855745
11
-5.0281273
21
-8.3561094
0
LINE
8
layer1
10
-5.0281273
20
-8.3561094
11
-5.1143115
21
-8.4343503
0
LINE
8
layer1
10
-5.1143115
20
-8.4343503
11
-5.2178112
21
-8.5206933
0
LINE
8
layer1
10
-5.2178112
20
-8.5206933
11
-5.336974
21
-8.6119173
0
LINE
8
layer1
10
-5.336974
20
-8.6119173
11
-5.4746654
21
-8.7084479
0
LINE
8
layer1
10
-5.4746654
20
-8.7084479
11
-5.6289795
21
-8.8072271
0
LINE
8
layer1
10
-5.6289795
20
-8.8072271
11
-5.8011094
21
-8.9075571
0
LINE
8
layer1
10
-5.8011094
20
-8.9075571
11
-5.9929738
21
-9.0088642
0
LINE
8
layer1
10
-5.9929738
20
-9.0088642
11
-6.1814657
21
-9.098854
0
ARC
8
layer1
10
0.0000096
20
0.000012
40
11
50
232.1909135
51
235.8090798
0
LINE
8
layer1
10
-6.7433464
20
-8.6906238
11
-6.7160083
21
-8.483549
0
LINE
8
layer1
10
-6.7160083
20
-8.483549
11
-6.6789488
21
-8.2697694
0
LINE
8
layer1
10
-6.6789488
20
-8.2697694
11
-6.6367204
21
-8.0750604
0
LINE
8
layer1
10
-6.6367204
20
-8.0750604
11
-6.5904615
21
-7.8977746
0
LINE
8
layer1
10
-6.5904615
20
-7.8977746
11
-6.5412044
21
-7.7369927
0
LINE
8
layer1
10
-6.5412044
20
-7.7369927
11
-6.4912685
21
-7.5954723
0
LINE
8
layer1
10
-6.4912685
20
-7.5954723
11
-6.4411347
21
-7.4703569
0
LINE
8
layer1
10
-6.4411347
20
-7.4703569
11
-6.3933555
21
-7.3642131
0
LINE
8
layer1
10
-6.3933555
20
-7.3642131
11
-6.3483693
21
-7.2744105
0
LINE
8
layer1
10
-6.3483693
20
-7.2744105
11
-6.3077814
21
-7.2011401
0
LINE
8
layer1
10
-6.3077814
20
-7.2011401
11
-6.2428195
21
-7.0988288
0
LINE
8
layer1
10
-6.2428195
20
-7.0988288
11
-6.1710411
21
-7.0048755
0
LINE
8
layer1
10
-6.1710411
20
-7.0048755
11
-6.109544
21
-6.9119405
0
LINE
8
layer1
10
-6.109544
20
-6.9119405
11
-6.0662479
21
-6.8267412
0
LINE
8
layer1
10
-6.0662479
20
-6.8267412
11
-6.0511794
21
-6.7874756
0
LINE
8
layer1
10
-6.0511794
20
-6.7874756
11
-6.0403607
21
-6.7506353
0
LINE
8
layer1
10
-6.0403607
20
-6.7506353
11
-6.0336856
21
-6.7163972
0
LINE
8
layer1
10
-6.0336856
20
-6.7163972
11
-6.0310269
21
-6.6849168
0
LINE
8
layer1
10
-6.0310269
20
-6.6849168
11
-6.0322785
21
-6.6563285
0
LINE
8
layer1
10
-6.0322785
20
-6.6563285
11
-6.037306
21
-6.6307948
0
LINE
8
layer1
10
-6.037306
20
-6.6307948
11
-6.0459822
21
-6.6084573
0
LINE
8
layer1
10
-6.0459822
20
-6.6084573
11
-6.0581798
21
-6.5894574
0
LINE
8
layer1
10
-6.0581798
20
-6.5894574
11
-6.0695571
21
-6.5774719
0
LINE
8
layer1
10
-6.0695571
20
-6.5774719
11
-6.178098
21
-6.4756627
0
LINE
8
layer1
10
-6.178098
20
-6.4756627
11
-6.3286057
21
-6.3286057
0
LINE
8
layer1
10
-6.3286057
20
-6.3286057
11
-6.4756627
21
-6.178098
0
LINE
8
layer1
10
-6.4756627
20
-6.178098
11
-6.5774719
21
-6.0695571
0
LINE
8
layer1
10
-6.5774719
20
-6.0695571
11
-6.5894574
21
-6.0581798
0
LINE
8
layer1
10
-6.5894574
20
-6.0581798
11
-6.6084573
21
-6.0459822
0
LINE
8
layer1
10
-6.6084573
20
-6.0459822
11
-6.6307948
21
-6.037306
0
LINE
8
layer1
10
-6.6307948
20
-6.037306
11
-6.6563285
21
-6.0322785
0
LINE
8
layer1
10
-6.6563285
20
-6.0322785
11
-6.6849168
21
-6.0310269
0
LINE
8
layer1
10
-6.6849168
20
-6.0310269
11
-6.7163972
21
-6.0336856
0
LINE
8
layer1
10
-6.7163972
20
-6.0336856
11
-6.7506353
21
-6.0403607
0
LINE
8
layer1
10
-6.7506353
20
-6.0403607
11
-6.7874756
21
-6.0511794
0
LINE
8
layer1
10
-6.7874756
20
-6.0511794
11
-6.8267412
21
-6.0662479
0
LINE
8
layer1
10
-6.8267412
20
-6.0662479
11
-6.9119405
21
-6.109544
0
LINE
8
layer1
10
-6.9119405
20
-6.109544
11
-7.0048755
21
-6.1710411
0
LINE
8
layer1
10
-7.0048755
20
-6.1710411
11
-7.0988288
21
-6.2428195
0
LINE
8
layer1
10
-7.0988288
20
-6.2428195
11
-7.2011401
21
-6.3077814
0
LINE
8
layer1
10
-7.2011401
20
-6.3077814
11
-7.2744105
21
-6.3483693
0
LINE
8
layer1
10
-7.2744105
20
-6.3483693
11
-7.3642131
21
-6.3933555
0
LINE
8
layer1
10
-7.3642131
20
-6.3933555
11
-7.4703569
21
-6.4411347
0
LINE
8
layer1
10
-7.4703569
20
-6.4411347
11
-7.5954723
21
-6.4912685
0
LINE
8
layer1
10
-7.5954723
20
-6.4912685
11
-7.7369927
21
-6.5412044
0
LINE
8
layer1
10
-7.7369927
20
-6.5412044
11
-7.8977746
21
-6.5904615
0
LINE
8
layer1
10
-7.8977746
20
-6.5904615
11
-8.0750604
21
-6.6367204
0
LINE
8
layer1
10
-8.0750604
20
-6.6367204
11
-8.2697694
21
-6.6789488
0
LINE
8
layer1
10
-8.2697694
20
-6.6789488
11
-8.483549
21
-6.7160083
0
LINE
8
layer1
10
-8.483549
20
-6.7160083
11
-8.6906238
21
-6.7433464
0
ARC
8
layer1
10
0.000012
20
0.0000095
40
11
50
214.1909202
51
217.8090865
0
LINE
8
layer1
10
-9.098854
20
-6.1814657
11
-9.0088642
21
-5.9929738
0
LINE
8
layer1
10
-9.0088642
20
-5.9929738
11
-8.9075571
21
-5.8011094
0
LINE
8
layer1
10
-8.9075571
20
-5.8011094
11
-8.8072271
21
-5.6289795
0
LINE
8
layer1
10
-8.8072271
20
-5.6289795
11
-8.7084479
21
-5.4746654
0
LINE
8
layer1
10
-8.7084479
20
-5.4746654
11
-8.6119173
21
-5.336974
0
LINE
8
layer1
10
-8.6119173
20
-5.336974
11
-8.5206933
21
-5.2178112
0
LINE
8
layer1
10
-8.5206933
20
-5.2178112
11
-8.4343503
21
-5.1143115
0
LINE
8
layer1
10
-8.4343503
20
-5.1143115
11
-8.3561094
21
-5.0281273
0
LINE
8
layer1
10
-8.3561094
20
-5.0281273
11
-8.2855745
21
-4.9566215
0
LINE
8
layer1
10
-8.2855745
20
-4.9566215
11
-8.2243313
21
-4.8994796
0
LINE
8
layer1
10
-8.2243313
20
-4.8994796
11
-8.1309329
21
-4.8222501
0
LINE
8
layer1
10
-8.1309329
20
-4.8222501
11
-8.0336344
21
-4.755076
0
LINE
8
layer1
10
-8.0336344
20
-4.755076
11
-7.9464287
21
-4.6856931
0
LINE
8
layer1
10
-7.9464287
20
-4.6856931
11
-7.8789236
21
-4.618043
0
LINE
8
layer1
10
-7.8789236
20
-4.618043
11
-7.8524589
21
-4.5853556
0
LINE
8
layer1
10
-7.8524589
20
-4.5853556
11
-7.8307854
21
-4.5536616
0
LINE
8
layer1
10
-7.8307854
20
-4.5536616
11
-7.8138569
21
-4.5231619
0
LINE
8
layer1
10
-7.8138569
20
-4.5231619
11
-7.8016003
21
-4.4940439
0
LINE
8
layer1
10
-7.8016003
20
-4.4940439
11
-7.7939563
21
-4.466468
0
LINE
8
layer1
10
-7.7939563
20
-4.466468
11
-7.7908475
21
-4.4406305
0
LINE
8
layer1
10
-7.7908475
20
-4.4406305
11
-7.7921964
21
-4.4167052
0
LINE
8
layer1
10
-7.7921964
20
-4.4167052
11
-7.7979257
21
-4.3948659
0
LINE
8
layer1
10
-7.7979257
20
-4.3948659
11
-7.8050425
21
-4.3799512
0
LINE
8
layer1
10
-7.8050425
20
-4.3799512
11
-7.8768102
21
-4.2495839
0
LINE
8
layer1
10
-7.8768102
20
-4.2495839
11
-7.9745084
21
-4.063215
0
LINE
8
layer1
10
-7.9745084
20
-4.063215
11
-8.0678585
21
-3.8746306
0
LINE
8
layer1
10
-8.0678585
20
-3.8746306
11
-8.1311438
21
-3.7399412
0
LINE
8
layer1
10
-8.1311438
20
-3.7399412
11
-8.1390269
21
-3.725417
0
LINE
8
layer1
10
-8.1390269
20
-3.725417
11
-8.1533277
21
-3.7079451
0
LINE
8
layer1
10
-8.1533277
20
-3.7079451
11
-8.1718908
21
-3.6927909
0
LINE
8
layer1
10
-8.1718908
20
-3.6927909
11
-8.1946211
21
-3.6801191
0
LINE
8
layer1
10
-8.1946211
20
-3.6801191
11
-8.2214235
21
-3.6700945
0
LINE
8
layer1
10
-8.2214235
20
-3.6700945
11
-8.2521847
21
-3.6628951
0
LINE
8
layer1
10
-8.2521847
20
-3.6628951
11
-8.2868098
21
-3.6586634
0
LINE
8
layer1
10
-8.2868098
20
-3.6586634
11
-8.3251901
21
-3.6575683
0
LINE
8
layer1
10
-8.3251901
20
-3.6575683
11
-8.3671904
21
-3.6597655
0
LINE
8
layer1
10
-8.3671904
20
-3.6597655
11
-8.461599
21
-3.6746146
0
LINE
8
layer1
10
-8.461599
20
-3.6746146
11
-8.5689891
21
-3.7043833
0
LINE
8
layer1
10
-8.5689891
20
-3.7043833
11
-8.6805247
21
-3.7436154
0
LINE
8
layer1
10
-8.6805247
20
-3.7436154
11
-8.7979029
21
-3.7737819
0
LINE
8
layer1
10
-8.7979029
20
-3.7737819
11
-8.8801295
21
-3.7897415
0
LINE
8
layer1
10
-8.8801295
20
-3.7897415
11
-8.9794383
21
-3.8047754
0
LINE
8
layer1
10
-8.9794383
20
-3.8047754
11
-9.0951517
21
-3.8174159
0
LINE
8
layer1
10
-9.0951517
20
-3.8174159
11
-9.2296358
21
-3.8264332
0
LINE
8
layer1
10
-9.2296358
20
-3.8264332
11
-9.3796606
21
-3.8301929
0
LINE
8
layer1
10
-9.3796606
20
-3.8301929
11
-9.5477946
21
-3.8273548
0
LINE
8
layer1
10
-9.5477946
20
-3.8273548
11
-9.7306982
21
-3.8165653
0
LINE
8
layer1
10
-9.7306982
20
-3.8165653
11
-9.9289267
21
-3.7965585
0
LINE
8
layer1
10
-9.9289267
20
-3.7965585
11
-10.1436952
21
-3.7657426
0
LINE
8
layer1
10
-10.1436952
20
-3.7657426
11
-10.349083
21
-3.7277531
0
ARC
8
layer1
10
0.0000146
20
0.0000047
40
11
50
196.1909167
51
199.8090831
0
LINE
8
layer1
10
-10.5637023
20
-3.0672228
11
-10.4198698
21
-2.9157647
0
LINE
8
layer1
10
-10.4198698
20
-2.9157647
11
-10.2642316
21
-2.7645963
0
LINE
8
layer1
10
-10.2642316
20
-2.7645963
11
-10.115621
21
-2.6318948
0
LINE
8
layer1
10
-10.115621
20
-2.6318948
11
-9.9739908
21
-2.5156578
0
LINE
8
layer1
10
-9.9739908
20
-2.5156578
11
-9.8396357
21
-2.4145351
0
LINE
8
layer1
10
-9.8396357
20
-2.4145351
11
-9.7160532
21
-2.3293943
0
LINE
8
layer1
10
-9.7160532
20
-2.3293943
11
-9.601953
21
-2.2576417
0
LINE
8
layer1
10
-9.601953
20
-2.2576417
11
-9.5009091
21
-2.1998535
0
LINE
8
layer1
10
-9.5009091
20
-2.1998535
11
-9.4117299
21
-2.1536439
0
LINE
8
layer1
10
-9.4117299
20
-2.1536439
11
-9.3358263
21
-2.1182238
0
LINE
8
layer1
10
-9.3358263
20
-2.1182238
11
-9.223134
21
-2.0736359
0
LINE
8
layer1
10
-9.223134
20
-2.0736359
11
-9.1098397
21
-2.0398164
0
LINE
8
layer1
10
-9.1098397
20
-2.0398164
11
-9.0054616
21
-2.0007775
0
LINE
8
layer1
10
-9.0054616
20
-2.0007775
11
-8.9203554
21
-1.9572986
0
LINE
8
layer1
10
-8.9203554
20
-1.9572986
11
-8.885085
21
-1.9343891
0
LINE
8
layer1
10
-8.885085
20
-1.9343891
11
-8.8546783
21
-1.9109438
0
LINE
8
layer1
10
-8.8546783
20
-1.9109438
11
-8.8291534
21
-1.8871681
0
LINE
8
layer1
10
-8.8291534
20
-1.8871681
11
-8.8084987
21
-1.8632626
0
LINE
8
layer1
10
-8.8084987
20
-1.8632626
11
-8.7927075
21
-1.8393985
0
LINE
8
layer1
10
-8.7927075
20
-1.8393985
11
-8.7817666
21
-1.8157863
0
LINE
8
layer1
10
-8.7817666
20
-1.8157863
11
-8.7756561
21
-1.7926151
0
LINE
8
layer1
10
-8.7756561
20
-1.7926151
11
-8.7743563
21
-1.7700743
0
LINE
8
layer1
10
-8.7743563
20
-1.7700743
11
-8.7765159
21
-1.7536904
0
LINE
8
layer1
10
-8.7765159
20
-1.7536904
11
-8.8044853
21
-1.6075263
0
LINE
8
layer1
10
-8.8044853
20
-1.6075263
11
-8.8398106
21
-1.4000885
0
LINE
8
layer1
10
-8.8398106
20
-1.4000885
11
-8.8703161
21
-1.1918873
0
LINE
8
layer1
10
-8.8703161
20
-1.1918873
11
-8.8888827
21
-1.0442339
0
LINE
8
layer1
10
-8.8888827
20
-1.0442339
11
-8.8918917
21
-1.0279845
0
LINE
8
layer1
10
-8.8918917
20
-1.0279845
11
-8.9000935
21
-1.0069486
0
LINE
8
layer1
10
-8.9000935
20
-1.0069486
11
-8.9130651
21
-0.9867997
0
LINE
8
layer1
10
-8.9130651
20
-0.9867997
11
-8.9307672
21
-0.9677241
0
LINE
8
layer1
10
-8.9307672
20
-0.9677241
11
-8.9531599
21
-0.9499077
0
LINE
8
layer1
10
-8.9531599
20
-0.9499077
11
-8.9801909
21
-0.933555
0
LINE
8
layer1
10
-8.9801909
20
-0.933555
11
-9.0118136
21
-0.9188306
0
LINE
8
layer1
10
-9.0118136
20
-0.9188306
11
-9.0479771
21
-0.9059289
0
LINE
8
layer1
10
-9.0479771
20
-0.9059289
11
-9.0886007
21
-0.8950398
0
LINE
8
layer1
10
-9.0886007
20
-0.8950398
11
-9.1829772
21
-0.8799882
0
LINE
8
layer1
10
-9.1829772
20
-0.8799882
11
-9.2943103
21
-0.8751146
0
LINE
8
layer1
10
-9.2943103
20
-0.8751146
11
-9.4125104
21
-0.8779602
0
LINE
8
layer1
10
-9.4125104
20
-0.8779602
11
-9.5334656
21
-0.8703784
0
LINE
8
layer1
10
-9.5334656
20
-0.8703784
11
-9.6165996
21
-0.8601475
0
LINE
8
layer1
10
-9.6165996
20
-0.8601475
11
-9.7156936
21
-0.8437574
0
LINE
8
layer1
10
-9.7156936
20
-0.8437574
11
-9.8296496
21
-0.8200218
0
LINE
8
layer1
10
-9.8296496
20
-0.8200218
11
-9.9603381
21
-0.7870399
0
LINE
8
layer1
10
-9.9603381
20
-0.7870399
11
-10.1041821
21
-0.7442553
0
LINE
8
layer1
10
-10.1041821
20
-0.7442553
11
-10.26321
21
-0.6895999
0
LINE
8
layer1
10
-10.26321
20
-0.6895999
11
-10.4338275
21
-0.6228181
0
LINE
8
layer1
10
-10.4338275
20
-0.6228181
11
-10.6161716
21
-0.5425346
0
LINE
8
layer1
10
-10.6161716
20
-0.5425346
11
-10.8109059
21
-0.4468599
0
LINE
8
layer1
10
-10.8109059
20
-0.4468599
11
-10.9945019
21
-0.3472613
0
ARC
8
layer1
10
0.0000153
20
0
40
11
50
178.1909164
51
181.809083
0
LINE
8
layer1
10
-10.9945019
20
0.3472613
11
-10.8109059
21
0.4468599
0
LINE
8
layer1
10
-10.8109059
20
0.4468599
11
-10.6161716
21
0.5425346
0
LINE
8
layer1
10
-10.6161716
20
0.5425346
11
-10.4338275
21
0.6228181
0
LINE
8
layer1
10
-10.4338275
20
0.6228181
11
-10.26321
21
0.6895999
0
LINE
8
layer1
10
-10.26321
20
0.6895999
11
-10.1041821
21
0.7442553
0
LINE
8
layer1
10
-10.1041821
20
0.7442553
11
-9.9603381
21
0.7870399
0
LINE
8
layer1
10
-9.9603381
20
0.7870399
11
-9.8296496
21
0.8200218
0
LINE
8
layer1
10
-9.8296496
20
0.8200218
11
-9.7156936
21
0.8437574
0
LINE
8
layer1
10
-9.7156936
20
0.8437574
11
-9.6165996
21
0.8601475
0
LINE
8
layer1
10
-9.6165996
20
0.8601475
11
-9.5334656
21
0.8703784
0
LINE
8
layer1
10
-9.5334656
20
0.8703784
11
-9.4125104
21
0.8779602
0
LINE
8
layer1
10
-9.4125104
20
0.8779602
11
-9.2943103
21
0.8751146
0
LINE
8
layer1
10
-9.2943103
20
0.8751146
11
-9.1829772
21
0.8799882
0
LINE
8
layer1
10
-9.1829772
20
0.8799882
11
-9.0886007
21
0.8950398
0
LINE
8
layer1
10
-9.0886007
20
0.8950398
11
-9.0479771
21
0.9059289
0
LINE
8
layer1
10
-9.0479771
20
0.9059289
11
-9.0118136
21
0.9188306
0
LINE
8
layer1
10
-9.0118136
20
0.9188306
11
-8.9801909
21
0.933555
0
LINE
8
layer1
10
-8.9801909
20
0.933555
11
-8.9531599
21
0.9499077
0
LINE
8
layer1
10
-8.9531599
20
0.9499077
11
-8.9307672
21
0.9677241
0
LINE
8
layer1
10
-8.9307672
20
0.9677241
11
-8.9130651
21
0.9867997
0
LINE
8
layer1
10
-8.9130651
20
0.9867997
11
-8.9000935
21
1.0069486
0
LINE
8
layer1
10
-8.9000935
20
1.0069486
11
-8.8918917
21
1.0279845
0
LINE
8
layer1
10
-8.8918917
20
1.0279845
11
-8.8888827
21
1.0442339
0
LINE
8
layer1
10
-8.8888827
20
1.0442339
11
-8.8703161
21
1.1918873
0
LINE
8
layer1
10
-8.8703161
20
1.1918873
11
-8.8398106
21
1.4000885
0
LINE
8
layer1
10
-8.8398106
20
1.4000885
11
-8.8044853
21
1.6075263
0
LINE
8
layer1
10
-8.8044853
20
1.6075263
11
-8.7765159
21
1.7536904
0
LINE
8
layer1
10
-8.7765159
20
1.7536904
11
-8.7743563
21
1.7700743
0
LINE
8
layer1
10
-8.7743563
20
1.7700743
11
-8.7756561
21
1.7926151
0
LINE
8
layer1
10
-8.7756561
20
1.7926151
11
-8.7817666
21
1.8157863
0
LINE
8
layer1
10
-8.7817666
20
1.8157863
11
-8.7927075
21
1.8393985
0
LINE
8
layer1
10
-8.7927075
20
1.8393985
11
-8.8084987
21
1.8632626
0
LINE
8
layer1
10
-8.8084987
20
1.8632626
11
-8.8291534
21
1.8871681
0
LINE
8
layer1
10
-8.8291534
20
1.8871681
11
-8.8546783
21
1.9109438
0
LINE
8
layer1
10
-8.8546783
20
1.9109438
11
-8.885085
21
1.9343891
0
LINE
8
layer1
10
-8.885085
20
1.9343891
11
-8.9203554
21
1.9572986
0
LINE
8
layer1
10
-8.9203554
20
1.9572986
11
-9.0054616
21
2.0007775
0
LINE
8
layer1
10
-9.0054616
20
2.0007775
11
-9.1098397
21
2.0398164
0
LINE
8
layer1
10
-9.1098397
20
2.0398164
11
-9.223134
21
2.0736359
0
LINE
8
layer1
10
-9.223134
20
2.0736359
11
-9.3358263
21
2.1182238
0
LINE
8
layer1
10
-9.3358263
20
2.1182238
11
-9.4117299
21
2.1536439
0
LINE
8
layer1
10
-9.4117299
20
2.1536439
11
-9.5009091
21
2.1998535
0
LINE
8
layer1
10
-9.5009091
20
2.1998535
11
-9.601953
21
2.2576417
0
LINE
8
layer1
10
-9.601953
20
2.2576417
11
-9.7160532
21
2.3293943
0
LINE
8
layer1
10
-9.7160532
20
2.3293943
11
-9.8396357
21
2.4145351
0
LINE
8
layer1
10
-9.8396357
20
2.4145351
11
-9.9739908
21
2.5156578
0
LINE
8
layer1
10
-9.9739908
20
2.5156578
11
-10.115621
21
2.6318948
0
LINE
8
layer1
10
-10.115621
20
2.6318948
11
-10.2642316
21
2.7645963
0
LINE
8
layer1
10
-10.2642316
20
2.7645963
11
-10.4198698
21
2.9157647
0
LINE
8
layer1
10
-10.4198698
20
2.9157647
11
-10.5637023
21
3.0672228
0
ARC
8
layer1
10
0.0000147
20
-0.0000046
40
11
50
160.1909176
51
163.8090839
0
LINE
8
layer1
10
-10.349083
20
3.7277531
11
-10.1436952
21
3.7657426
0
LINE
8
layer1
10
-10.1436952
20
3.7657426
11
-9.9289267
21
3.7965585
0
LINE
8
layer1
10
-9.9289267
20
3.7965585
11
-9.7306982
21
3.8165653
0
LINE
8
layer1
10
-9.7306982
20
3.8165653
11
-9.5477946
21
3.8273548
0
LINE
8
layer1
10
-9.5477946
20
3.8273548
11
-9.3796606
21
3.8301929
0
LINE
8
layer1
10
-9.3796606
20
3.8301929
11
-9.2296358
21
3.8264332
0
LINE
8
layer1
10
-9.2296358
20
3.8264332
11
-9.0951517
21
3.8174159
0
LINE
8
layer1
10
-9.0951517
20
3.8174159
11
-8.9794383
21
3.8047754
0
LINE
8
layer1
10
-8.9794383
20
3.8047754
11
-8.8801295
21
3.7897415
0
LINE
8
layer1
10
-8.8801295
20
3.7897415
11
-8.7979029
21
3.7737819
0
LINE
8
layer1
10
-8.7979029
20
3.7737819
11
-8.6805247
21
3.7436154
0
LINE
8
layer1
10
-8.6805247
20
3.7436154
11
-8.5689891
21
3.7043833
0
LINE
8
layer1
10
-8.5689891
20
3.7043833
11
-8.461599
21
3.6746146
0
LINE
8
layer1
10
-8.461599
20
3.6746146
11
-8.3671904
21
3.6597655
0
LINE
8
layer1
10
-8.3671904
20
3.6597655
11
-8.3251901
21
3.6575683
0
LINE
8
layer1
10
-8.3251901
20
3.6575683
11
-8.2868098
21
3.6586634
0
LINE
8
layer1
10
-8.2868098
20
3.6586634
11
-8.2521847
21
3.6628951
0
LINE
8
layer1
10
-8.2521847
20
3.6628951
11
-8.2214235
21
3.6700945
0
LINE
8
layer1
10
-8.2214235
20
3.6700945
11
-8.1946211
21
3.6801191
0
LINE
8
layer1
10
-8.1946211
20
3.6801191
11
-8.1718908
21
3.6927909
0
LINE
8
layer1
10
-8.1718908
20
3.6927909
11
-8.1533277
21
3.7079451
0
LINE
8
layer1
10
-8.1533277
20
3.7079451
11
-8.1390269
21
3.725417
0
LINE
8
layer1
10
-8.1390269
20
3.725417
11
-8.1311438
21
3.7399412
0
LINE
8
layer1
10
-8.1311438
20
3.7399412
11
-8.0678585
21
3.8746306
0
LINE
8
layer1
10
-8.0678585
20
3.8746306
11
-7.9745084
21
4.063215
0
LINE
8
layer1
10
-7.9745084
20
4.063215
11
-7.8768102
21
4.2495839
0
LINE
8
layer1
10
-7.8768102
20
4.2495839
11
-7.8050425
21
4.3799512
0
LINE
8
layer1
10
-7.8050425
20
4.3799512
11
-7.7979257
21
4.3948659
0
LINE
8
layer1
10
-7.7979257
20
4.3948659
11
-7.7921964
21
4.4167052
0
LINE
8
layer1
10
-7.7921964
20
4.4167052
11
-7.7908475
21
4.4406305
0
LINE
8
layer1
10
-7.7908475
20
4.4406305
11
-7.7939563
21
4.466468
0
LINE
8
layer1
10
-7.7939563
20
4.466468
11
-7.8016003
21
4.4940439
0
LINE
8
layer1
10
-7.8016003
20
4.4940439
11
-7.8138569
21
4.5231619
0
LINE
8
layer1
10
-7.8138569
20
4.5231619
11
-7.8307854
21
4.5536616
0
LINE
8
layer1
10
-7.8307854
20
4.5536616
11
-7.8524589
21
4.5853556
0
LINE
8
layer1
10
-7.8524589
20
4.5853556
11
-7.8789236
21
4.618043
0
LINE
8
layer1
10
-7.8789236
20
4.618043
11
-7.9464287
21
4.6856931
0
LINE
8
layer1
10
-7.9464287
20
4.6856931
11
-8.0336344
21
4.755076
0
LINE
8
layer1
10
-8.0336344
20
4.755076
11
-8.1309329
21
4.8222501
0
LINE
8
layer1
10
-8.1309329
20
4.8222501
11
-8.2243313
21
4.8994796
0
LINE
8
layer1
10
-8.2243313
20
4.8994796
11
-8.2855745
21
4.9566215
0
LINE
8
layer1
10
-8.2855745
20
4.9566215
11
-8.3561094
21
5.0281273
0
LINE
8
layer1
10
-8.3561094
20
5.0281273
11
-8.4343503
21
5.1143115
0
LINE
8
layer1
10
-8.4343503
20
5.1143115
11
-8.5206933
21
5.2178112
0
LINE
8
layer1
10
-8.5206933
20
5.2178112
11
-8.6119173
21
5.336974
0
LINE
8
layer1
10
-8.6119173
20
5.336974
11
-8.7084479
21
5.4746654
0
LINE
8
layer1
10
-8.7084479
20
5.4746654
11
-8.8072271
21
5.6289795
0
LINE
8
layer1
10
-8.8072271
20
5.6289795
11
-8.9075571
21
5.8011094
0
LINE
8
layer1
10
-8.9075571
20
5.8011094
11
-9.0088642
21
5.9929738
0
LINE
8
layer1
10
-9.0088642
20
5.9929738
11
-9.098854
21
6.1814657
0
ARC
8
layer1
10
0.000012
20
-0.0000096
40
11
50
142.1909135
51
145.8090798
0
LINE
8
layer1
10
-8.6906238
20
6.7433464
11
-8.483549
21
6.7160083
0
LINE
8
layer1
10
-8.483549
20
6.7160083
11
-8.2697694
21
6.6789488
0
LINE
8
layer1
10
-8.2697694
20
6.6789488
11
-8.0750604
21
6.6367204
0
LINE
8
layer1
10
-8.0750604
20
6.6367204
11
-7.8977746
21
6.5904615
0
LINE
8
layer1
10
-7.8977746
20
6.5904615
11
-7.7369927
21
6.5412044
0
LINE
8
layer1
10
-7.7369927
20
6.5412044
11
-7.5954723
21
6.4912685
0
LINE
8
layer1
10
-7.5954723
20
6.4912685
11
-7.4703569
21
6.4411347
0
LINE
8
layer1
10
-7.4703569
20
6.4411347
11
-7.3642131
21
6.3933555
0
LINE
8
layer1
10
-7.3642131
20
6.3933555
11
-7.2744105
21
6.3483693
0
LINE
8
layer1
10
-7.2744105
20
6.3483693
11
-7.2011401
21
6.3077814
0
LINE
8
layer1
10
-7.2011401
20
6.3077814
11
-7.0988288
21
6.2428195
0
LINE
8
layer1
10
-7.0988288
20
6.2428195
11
-7.0048755
21
6.1710411
0
LINE
8
layer1
10
-7.0048755
20
6.1710411
11
-6.9119405
21
6.109544
0
LINE
8
layer1
10
-6.9119405
20
6.109544
11
-6.8267412
21
6.0662479
0
LINE
8
layer1
10
-6.8267412
20
6.0662479
11
-6.7874756
21
6.0511794
0
LINE
8
layer1
10
-6.7874756
20
6.0511794
11
-6.7506353
21
6.0403607
0
LINE
8
layer1
10
-6.7506353
20
6.0403607
11
-6.7163972
21
6.0336856
0
LINE
8
layer1
10
-6.7163972
20
6.0336856
11
-6.6849168
21
6.0310269
0
LINE
8
layer1
10
-6.6849168
20
6.0310269
11
-6.6563285
21
6.0322785
0
LINE
8
layer1
10
-6.6563285
20
6.0322785
11
-6.6307948
21
6.037306
0
LINE
8
layer1
10
-6.6307948
20
6.037306
11
-6.6084573
21
6.0459822
0
LINE
8
layer1
10
-6.6084573
20
6.0459822
11
-6.5894574
21
6.0581798
0
LINE
8
layer1
10
-6.5894574
20
6.0581798
11
-6.5774719
21
6.0695571
0
LINE
8
layer1
10
-6.5774719
20
6.0695571
11
-6.4756627
21
6.178098
0
LINE
8
layer1
10
-6.4756627
20
6.178098
11
-6.3286057
21
6.3286057
0
LINE
8
layer1
10
-6.3286057
20
6.3286057
11
-6.178098
21
6.4756627
0
LINE
8
layer1
10
-6.178098
20
6.4756627
11
-6.0695571
21
6.5774719
0
LINE
8
layer1
10
-6.0695571
20
6.5774719
11
-6.0581798
21
6.5894574
0
LINE
8
layer1
10
-6.0581798
20
6.5894574
11
-6.0459822
21
6.6084573
0
LINE
8
layer1
10
-6.0459822
20
6.6084573
11
-6.037306
21
6.6307948
0
LINE
8
layer1
10
-6.037306
20
6.6307948
11
-6.0322785
21
6.6563285
0
LINE
8
layer1
10
-6.0322785
20
6.6563285
11
-6.0310269
21
6.6849168
0
LINE
8
layer1
10
-6.0310269
20
6.6849168
11
-6.0336856
21
6.7163972
0
LINE
8
layer1
10
-6.0336856
20
6.7163972
11
-6.0403607
21
6.7506353
0
LINE
8
layer1
10
-6.0403607
20
6.7506353
11
-6.0511794
21
6.7874756
0
LINE
8
layer1
10
-6.0511794
20
6.7874756
11
-6.0662479
21
6.8267412
0
LINE
8
layer1
10
-6.0662479
20
6.8267412
11
-6.109544
21
6.9119405
0
LINE
8
layer1
10
-6.109544
20
6.9119405
11
-6.1710411
21
7.0048755
0
LINE
8
layer1
10
-6.1710411
20
7.0048755
11
-6.2428195
21
7.0988288
0
LINE
8
layer1
10
-6.2428195
20
7.0988288
11
-6.3077814
21
7.2011401
0
LINE
8
layer1
10
-6.3077814
20
7.2011401
11
-6.3483693
21
7.2744105
0
LINE
8
layer1
10
-6.3483693
20
7.2744105
11
-6.3933555
21
7.3642131
0
LINE
8
layer1
10
-6.3933555
20
7.3642131
11
-6.4411347
21
7.4703569
0
LINE
8
layer1
10
-6.4411347
20
7.4703569
11
-6.4912685
21
7.5954723
0
LINE
8
layer1
10
-6.4912685
20
7.5954723
11
-6.5412044
21
7.7369927
0
LINE
8
layer1
10
-6.5412044
20
7.7369927
11
-6.5904615
21
7.8977746
0
LINE
8
layer1
10
-6.5904615
20
7.8977746
11
-6.6367204
21
8.0750604
0
LINE
8
layer1
10
-6.6367204
20
8.0750604
11
-6.6789488
21
8.2697694
0
LINE
8
layer1
10
-6.6789488
20
8.2697694
11
-6.7160083
21
8.483549
0
LINE
8
layer1
10
-6.7160083
20
8.483549
11
-6.7433464
21
8.6906238
0
ARC
8
layer1
10
0.0000095
20
-0.000012
40
11
50
124.1909202
51
127.8090865
0
LINE
8
layer1
10
-6.1814657
20
9.098854
11
-5.9929738
21
9.0088642
0
LINE
8
layer1
10
-5.9929738
20
9.0088642
11
-5.8011094
21
8.9075571
0
LINE
8
layer1
10
-5.8011094
20
8.9075571
11
-5.6289795
21
8.8072271
0
LINE
8
layer1
10
-5.6289795
20
8.8072271
11
-5.4746654
21
8.7084479
0
LINE
8
layer1
10
-5.4746654
20
8.7084479
11
-5.336974
21
8.6119173
0
LINE
8
layer1
10
-5.336974
20
8.6119173
11
-5.2178112
21
8.5206933
0
LINE
8
layer1
10
-5.2178112
20
8.5206933
11
-5.1143115
21
8.4343503
0
LINE
8
layer1
10
-5.1143115
20
8.4343503
11
-5.0281273
21
8.3561094
0
LINE
8
layer1
10
-5.0281273
20
8.3561094
11
-4.9566215
21
8.2855745
0
LINE
8
layer1
10
-4.9566215
20
8.2855745
11
-4.8994796
21
8.2243313
0
LINE
8
layer1
10
-4.8994796
20
8.2243313
11
-4.8222501
21
8.1309329
0
LINE
8
layer1
10
-4.8222501
20
8.1309329
11
-4.755076
21
8.0336344
0
LINE
8
layer1
10
-4.755076
20
8.0336344
11
-4.6856931
21
7.9464287
0
LINE
8
layer1
10
-4.6856931
20
7.9464287
11
-4.618043
21
7.8789236
0
LINE
8
layer1
10
-4.618043
20
7.8789236
11
-4.5853556
21
7.8524589
0
LINE
8
layer1
10
-4.5853556
20
7.8524589
11
-4.5536616
21
7.8307854
0
LINE
8
layer1
10
-4.5536616
20
7.8307854
11
-4.5231619
21
7.8138569
0
LINE
8
layer1
10
-4.5231619
20
7.8138569
11
-4.4940439
21
7.8016003
0
LINE
8
layer1
10
-4.4940439
20
7.8016003
11
-4.466468
21
7.7939563
0
LINE
8
layer1
10
-4.466468
20
7.7939563
11
-4.4406305
21
7.7908475
0
LINE
8
layer1
10
-4.4406305
20
7.7908475
11
-4.4167052
21
7.7921964
0
LINE
8
layer1
10
-4.4167052
20
7.7921964
11
-4.3948659
21
7.7979257
0
LINE
8
layer1
10
-4.3948659
20
7.7979257
11
-4.3799512
21
7.8050425
0
LINE
8
layer1
10
-4.3799512
20
7.8050425
11
-4.2495839
21
7.8768102
0
LINE
8
layer1
10
-4.2495839
20
7.8768102
11
-4.063215
21
7.9745084
0
LINE
8
layer1
10
-4.063215
20
7.9745084
11
-3.8746306
21
8.0678585
0
LINE
8
layer1
10
-3.8746306
20
8.0678585
11
-3.7399412
21
8.1311438
0
LINE
8
layer1
10
-3.7399412
20
8.1311438
11
-3.725417
21
8.1390269
0
LINE
8
layer1
10
-3.725417
20
8.1390269
11
-3.7079451
21
8.1533277
0
LINE
8
layer1
10
-3.7079451
20
8.1533277
11
-3.6927909
21
8.1718908
0
LINE
8
layer1
10
-3.6927909
20
8.1718908
11
-3.6801191
21
8.1946211
0
LINE
8
layer1
10
-3.6801191
20
8.1946211
11
-3.6700945
21
8.2214235
0
LINE
8
layer1
10
-3.6700945
20
8.2214235
11
-3.6628951
21
8.2521847
0
LINE
8
layer1
10
-3.6628951
20
8.2521847
11
-3.6586634
21
8.2868098
0
LINE
8
layer1
10
-3.6586634
20
8.2868098
11
-3.6575683
21
8.3251901
0
LINE
8
layer1
10
-3.6575683
20
8.3251901
11
-3.6597655
21
8.3671904
0
LINE
8
layer1
10
-3.6597655
20
8.3671904
11
-3.6746146
21
8.461599
0
LINE
8
layer1
10
-3.6746146
20
8.461599
11
-3.7043833
21
8.5689891
0
LINE
8
layer1
10
-3.7043833
20
8.5689891
11
-3.7436154
21
8.6805247
0
LINE
8
layer1
10
-3.7436154
20
8.6805247
11
-3.7737819
21
8.7979029
0
LINE
8
layer1
10
-3.7737819
20
8.7979029
11
-3.7897415
21
8.8801295
0
LINE
8
layer1
10
-3.7897415
20
8.8801295
11
-3.8047754
21
8.9794383
0
LINE
8
layer1
10
-3.8047754
20
8.9794383
11
-3.8174159
21
9.0951517
0
LINE
8
layer1
10
-3.8174159
20
9.0951517
11
-3.8264332
21
9.2296358
0
LINE
8
layer1
10
-3.8264332
20
9.2296358
11
-3.8301929
21
9.3796606
0
LINE
8
layer1
10
-3.8301929
20
9.3796606
11
-3.8273548
21
9.5477946
0
LINE
8
layer1
10
-3.8273548
20
9.5477946
11
-3.8165653
21
9.7306982
0
LINE
8
layer1
10
-3.8165653
20
9.7306982
11
-3.7965585
21
9.9289267
0
LINE
8
layer1
10
-3.7965585
20
9.9289267
11
-3.7657426
21
10.1436952
0
LINE
8
layer1
10
-3.7657426
20
10.1436952
11
-3.7277531
21
10.349083
0
ARC
8
layer1
10
0.0000047
20
-0.0000146
40
11
50
106.1909167
51
109.8090831
0
LINE
8
layer1
10
-3.0672228
20
10.5637023
11
-2.9157647
21
10.4198698
0
LINE
8
layer1
10
-2.9157647
20
10.4198698
11
-2.7645963
21
10.2642316
0
LINE
8
layer1
10
-2.7645963
20
10.2642316
11
-2.6318948
21
10.115621
0
LINE
8
layer1
10
-2.6318948
20
10.115621
11
-2.5156578
21
9.9739908
0
LINE
8
layer1
10
-2.5156578
20
9.9739908
11
-2.4145351
21
9.8396357
0
LINE
8
layer1
10
-2.4145351
20
9.8396357
11
-2.3293943
21
9.7160532
0
LINE
8
layer1
10
-2.3293943
20
9.7160532
11
-2.2576417
21
9.601953
0
LINE
8
layer1
10
-2.2576417
20
9.601953
11
-2.1998535
21
9.5009091
0
LINE
8
layer1
10
-2.1998535
20
9.5009091
11
-2.1536439
21
9.4117299
0
LINE
8
layer1
10
-2.1536439
20
9.4117299
11
-2.1182238
21
9.3358263
0
LINE
8
layer1
10
-2.1182238
20
9.3358263
11
-2.0736359
21
9.223134
0
LINE
8
layer1
10
-2.0736359
20
9.223134
11
-2.0398164
21
9.1098397
0
LINE
8
layer1
10
-2.0398164
20
9.1098397
11
-2.0007775
21
9.0054616
0
LINE
8
layer1
10
-2.0007775
20
9.0054616
11
-1.9572986
21
8.9203554
0
LINE
8
layer1
10
-1.9572986
20
8.9203554
11
-1.9343891
21
8.885085
0
LINE
8
layer1
10
-1.9343891
20
8.885085
11
-1.9109438
21
8.8546783
0
LINE
8
layer1
10
-1.9109438
20
8.8546783
11
-1.8871681
21
8.8291534
0
LINE
8
layer1
10
-1.8871681
20
8.8291534
11
-1.8632626
21
8.8084987
0
LINE
8
layer1
10
-1.8632626
20
8.8084987
11
-1.8393985
21
8.7927075
0
LINE
8
layer1
10
-1.8393985
20
8.7927075
11
-1.8157863
21
8.7817666
0
LINE
8
layer1
10
-1.8157863
20
8.7817666
11
-1.7926151
21
8.7756561
0
LINE
8
layer1
10
-1.7926151
20
8.7756561
11
-1.7700743
21
8.7743563
0
LINE
8
layer1
10
-1.7700743
20
8.7743563
11
-1.7536904
21
8.7765159
0
LINE
8
layer1
10
-1.7536904
20
8.7765159
11
-1.6075263
21
8.8044853
0
LINE
8
layer1
10
-1.6075263
20
8.8044853
11
-1.4000885
21
8.8398106
0
LINE
8
layer1
10
-1.4000885
20
8.8398106
11
-1.1918873
21
8.8703161
0
LINE
8
layer1
10
-1.1918873
20
8.8703161
11
-1.0442339
21
8.8888827
0
LINE
8
layer1
10
-1.0442339
20
8.8888827
11
-1.0279845
21
8.8918917
0
LINE
8
layer1
10
-1.0279845
20
8.8918917
11
-1.0069486
21
8.9000935
0
LINE
8
layer1
10
-1.0069486
20
8.9000935
11
-0.9867997
21
8.9130651
0
LINE
8
layer1
10
-0.9867997
20
8.9130651
11
-0.9677241
21
8.9307672
0
LINE
8
layer1
10
-0.9677241
20
8.9307672
11
-0.9499077
21
8.9531599
0
LINE
8
layer1
10
-0.9499077
20
8.9531599
11
-0.933555
21
8.9801909
0
LINE
8
layer1
10
-0.933555
20
8.9801909
11
-0.9188306
21
9.0118136
0
LINE
8
layer1
10
-0.9188306
20
9.0118136
11
-0.9059289
21
9.0479771
0
LINE
8
layer1
10
-0.9059289
20
9.0479771
11
-0.8950398
21
9.0886007
0
LINE
8
layer1
10
-0.8950398
20
9.0886007
11
-0.8799882
21
9.1829772
0
LINE
8
layer1
10
-0.8799882
20
9.1829772
11
-0.8751146
21
9.2943103
0
LINE
8
layer1
10
-0.8751146
20
9.2943103
11
-0.8779602
21
9.4125104
0
LINE
8
layer1
10
-0.8779602
20
9.4125104
11
-0.8703784
21
9.5334656
0
LINE
8
layer1
10
-0.8703784
20
9.5334656
11
-0.8601475
21
9.6165996
0
LINE
8
layer1
10
-0.8601475
20
9.6165996
11
-0.8437574
21
9.7156936
0
LINE
8
layer1
10
-0.8437574
20
9.7156936
11
-0.8200218
21
9.8296496
0
LINE
8
layer1
10
-0.8200218
20
9.8296496
11
-0.7870399
21
9.9603381
0
LINE
8
layer1
10
-0.7870399
20
9.9603381
11
-0.7442553
21
10.1041821
0
LINE
8
layer1
10
-0.7442553
20
10.1041821
11
-0.6895999
21
10.26321
0
LINE
8
layer1
10
-0.6895999
20
10.26321
11
-0.6228181
21
10.4338275
0
LINE
8
layer1
10
-0.6228181
20
10.4338275
11
-0.5425346
21
10.6161716
0
LINE
8
layer1
10
-0.5425346
20
10.6161716
11
-0.4468599
21
10.8109059
0
LINE
8
layer1
10
-0.4468599
20
10.8109059
11
-0.3472613
21
10.9945019
0
ARC
8
layer1
10
1e-7
20
-0.0000153
40
11
50
88.190917
51
91.8090836
0
LINE
8
layer1
10
0.3472613
20
10.9945019
11
0.4468599
21
10.8109059
0
LINE
8
layer1
10
0.4468599
20
10.8109059
11
0.5425346
21
10.6161716
0
LINE
8
layer1
10
0.5425346
20
10.6161716
11
0.6228181
21
10.4338275
0
LINE
8
layer1
10
0.6228181
20
10.4338275
11
0.6895999
21
10.26321
0
LINE
8
layer1
10
0.6895999
20
10.26321
11
0.7442553
21
10.1041821
0
LINE
8
layer1
10
0.7442553
20
10.1041821
11
0.7870399
21
9.9603381
0
LINE
8
layer1
10
0.7870399
20
9.9603381
11
0.8200218
21
9.8296496
0
LINE
8
layer1
10
0.8200218
20
9.8296496
11
0.8437574
21
9.7156936
0
LINE
8
layer1
10
0.8437574
20
9.7156936
11
0.8601475
21
9.6165996
0
LINE
8
layer1
10
0.8601475
20
9.6165996
11
0.8703784
21
9.5334656
0
LINE
8
layer1
10
0.8703784
20
9.5334656
11
0.8779602
21
9.4125104
0
LINE
8
layer1
10
0.8779602
20
9.4125104
11
0.8751146
21
9.2943103
0
LINE
8
layer1
10
0.8751146
20
9.2943103
11
0.8799882
21
9.1829772
0
LINE
8
layer1
10
0.8799882
20
9.1829772
11
0.8950398
21
9.0886007
0
LINE
8
layer1
10
0.8950398
20
9.0886007
11
0.9059289
21
9.0479771
0
LINE
8
layer1
10
0.9059289
20
9.0479771
11
0.9188306
21
9.0118136
0
LINE
8
layer1
10
0.9188306
20
9.0118136
11
0.933555
21
8.9801909
0
LINE
8
layer1
10
0.933555
20
8.9801909
11
0.9499077
21
8.9531599
0
LINE
8
layer1
10
0.9499077
20
8.9531599
11
0.9677241
21
8.9307672
0
LINE
8
layer1
10
0.9677241
20
8.9307672
11
0.9867997
21
8.9130651
0
LINE
8
layer1
10
0.9867997
20
8.9130651
11
1.0069486
21
8.9000935
0
LINE
8
layer1
10
1.0069486
20
8.9000935
11
1.0279845
21
8.8918917
0
LINE
8
layer1
10
1.0279845
20
8.8918917
11
1.0442339
21
8.8888827
0
LINE
8
layer1
10
1.0442339
20
8.8888827
11
1.1918873
21
8.8703161
0
LINE
8
layer1
10
1.1918873
20
8.8703161
11
1.4000885
21
8.8398106
0
LINE
8
layer1
10
1.4000885
20
8.8398106
11
1.6075263
21
8.8044853
0
LINE
8
layer1
10
1.6075263
20
8.8044853
11
1.7536904
21
8.7765159
0
LINE
8
layer1
10
1.7536904
20
8.7765159
11
1.7700743
21
8.7743563
0
LINE
8
layer1
10
1.7700743
20
8.7743563
11
1.7926151
21
8.7756561
0
LINE
8
layer1
10
1.7926151
20
8.7756561
11
1.8157863
21
8.7817666
0
LINE
8
layer1
10
1.8157863
20
8.7817666
11
1.8393985
21
8.7927075
0
LINE
8
layer1
10
1.8393985
20
8.7927075
11
1.8632626
21
8.8084987
0
LINE
8
layer1
10
1.8632626
20
8.8084987
11
1.8871681
21
8.8291534
0
LINE
8
layer1
10
1.8871681
20
8.8291534
11
1.9109438
21
8.8546783
0
LINE
8
layer1
10
1.9109438
20
8.8546783
11
1.9343891
21
8.885085
0
LINE
8
layer1
10
1.9343891
20
8.885085
11
1.9572986
21
8.9203554
0
LINE
8
layer1
10
1.9572986
20
8.9203554
11
2.0007775
21
9.0054616
0
LINE
8
layer1
10
2.0007775
20
9.0054616
11
2.0398164
21
9.1098397
0
LINE
8
layer1
10
2.0398164
20
9.1098397
11
2.0736359
21
9.223134
0
LINE
8
layer1
10
2.0736359
20
9.223134
11
2.1182238
21
9.3358263
0
LINE
8
layer1
10
2.1182238
20
9.3358263
11
2.1536439
21
9.4117299
0
LINE
8
layer1
10
2.1536439
20
9.4117299
11
2.1998535
21
9.5009091
0
LINE
8
layer1
10
2.1998535
20
9.5009091
11
2.2576417
21
9.601953
0
LINE
8
layer1
10
2.2576417
20
9.601953
11
2.3293943
21
9.7160532
0
LINE
8
layer1
10
2.3293943
20
9.7160532
11
2.4145351
21
9.8396357
0
LINE
8
layer1
10
2.4145351
20
9.8396357
11
2.5156578
21
9.9739908
0
LINE
8
layer1
10
2.5156578
20
9.9739908
11
2.6318948
21
10.115621
0
LINE
8
layer1
10
2.6318948
20
10.115621
11
2.7645963
21
10.2642316
0
LINE
8
layer1
10
2.7645963
20
10.2642316
11
2.9157647
21
10.4198698
0
LINE
8
layer1
10
2.9157647
20
10.4198698
11
3.0672228
21
10.5637023
0
ARC
8
layer1
10
-0.0000046
20
-0.0000147
40
11
50
70.1909176
51
73.8090839
0
LINE
8
layer1
10
3.7277531
20
10.349083
11
3.7657426
21
10.1436952
0
LINE
8
layer1
10
3.7657426
20
10.1436952
11
3.7965585
21
9.9289267
0
LINE
8
layer1
10
3.7965585
20
9.9289267
11
3.8165653
21
9.7306982
0
LINE
8
layer1
10
3.8165653
20
9.7306982
11
3.8273548
21
9.5477946
0
LINE
8
layer1
10
3.8273548
20
9.5477946
11
3.8301929
21
9.3796606
0
LINE
8
layer1
10
3.8301929
20
9.3796606
11
3.8264332
21
9.2296358
0
LINE
8
layer1
10
3.8264332
20
9.2296358
11
3.8174159
21
9.0951517
0
LINE
8
layer1
10
3.8174159
20
9.0951517
11
3.8047754
21
8.9794383
0
LINE
8
layer1
10
3.8047754
20
8.9794383
11
3.7897415
21
8.8801295
0
LINE
8
layer1
10
3.7897415
20
8.8801295
11
3.7737819
21
8.7979029
0
LINE
8
layer1
10
3.7737819
20
8.7979029
11
3.7436154
21
8.6805247
0
LINE
8
layer1
10
3.7436154
20
8.6805247
11
3.7043833
21
8.5689891
0
LINE
8
layer1
10
3.7043833
20
8.5689891
11
3.6746146
21
8.461599
0
LINE
8
layer1
10
3.6746146
20
8.461599
11
3.6597655
21
8.3671904
0
LINE
8
layer1
10
3.6597655
20
8.3671904
11
3.6575683
21
8.3251901
0
LINE
8
layer1
10
3.6575683
20
8.3251901
11
3.6586634
21
8.2868098
0
LINE
8
layer1
10
3.6586634
20
8.2868098
11
3.6628951
21
8.2521847
0
LINE
8
layer1
10
3.6628951
20
8.2521847
11
3.6700945
21
8.2214235
0
LINE
8
layer1
10
3.6700945
20
8.2214235
11
3.6801191
21
8.1946211
0
LINE
8
layer1
10
3.6801191
20
8.1946211
11
3.6927909
21
8.1718908
0
LINE
8
layer1
10
3.6927909
20
8.1718908
11
3.7079451
21
8.1533277
0
LINE
8
layer1
10
3.7079451
20
8.1533277
11
3.725417
21
8.1390269
0
LINE
8
layer1
10
3.725417
20
8.1390269
11
3.7399412
21
8.1311438
0
LINE
8
layer1
10
3.7399412
20
8.1311438
11
3.8746306
21
8.0678585
0
LINE
8
layer1
10
3.8746306
20
8.0678585
11
4.063215
21
7.9745084
0
LINE
8
layer1
10
4.063215
20
7.9745084
11
4.2495839
21
7.8768102
0
LINE
8
layer1
10
4.2495839
20
7.8768102
11
4.3799512
21
7.8050425
0
LINE
8
layer1
10
4.3799512
20
7.8050425
11
4.3948659
21
7.7979257
0
LINE
8
layer1
10
4.3948659
20
7.7979257
11
4.4167052
21
7.7921964
0
LINE
8
layer1
10
4.4167052
20
7.7921964
11
4.4406305
21
7.7908475
0
LINE
8
layer1
10
4.4406305
20
7.7908475
11
4.466468
21
7.7939563
0
LINE
8
layer1
10
4.466468
20
7.7939563
11
4.4940439
21
7.8016003
0
LINE
8
layer1
10
4.4940439
20
7.8016003
11
4.5231619
21
7.8138569
0
LINE
8
layer1
10
4.5231619
20
7.8138569
11
4.5536616
21
7.8307854
0
LINE
8
layer1
10
4.5536616
20
7.8307854
11
4.5853556
21
7.8524589
0
LINE
8
layer1
10
4.5853556
20
7.8524589
11
4.618043
21
7.8789236
0
LINE
8
layer1
10
4.618043
20
7.8789236
11
4.6856931
21
7.9464287
0
LINE
8
layer1
10
4.6856931
20
7.9464287
11
4.755076
21
8.0336344
0
LINE
8
layer1
10
4.755076
20
8.0336344
11
4.8222501
21
8.1309329
0
LINE
8
layer1
10
4.8222501
20
8.1309329
11
4.8994796
21
8.2243313
0
LINE
8
layer1
10
4.8994796
20
8.2243313
11
4.9566215
21
8.2855745
0
LINE
8
layer1
10
4.9566215
20
8.2855745
11
5.0281273
21
8.3561094
0
LINE
8
layer1
10
5.0281273
20
8.3561094
11
5.1143115
21
8.4343503
0
LINE
8
layer1
10
5.1143115
20
8.4343503
11
5.2178112
21
8.5206933
0
LINE
8
layer1
10
5.2178112
20
8.5206933
11
5.336974
21
8.6119173
0
LINE
8
layer1
10
5.336974
20
8.6119173
11
5.4746654
21
8.7084479
0
LINE
8
layer1
10
5.4746654
20
8.7084479
11
5.6289795
21
8.8072271
0
LINE
8
layer1
10
5.6289795
20
8.8072271
11
5.8011094
21
8.9075571
0
LINE
8
layer1
10
5.8011094
20
8.9075571
11
5.9929738
21
9.0088642
0
LINE
8
layer1
10
5.9929738
20
9.0088642
11
6.1814657
21
9.098854
0
ARC
8
layer1
10
-0.0000096
20
-0.000012
40
11
50
52.1909135
51
55.8090798
0
LINE
8
layer1
10
6.7433464
20
8.6906238
11
6.7160083
21
8.483549
0
LINE
8
layer1
10
6.7160083
20
8.483549
11
6.6789488
21
8.2697694
0
LINE
8
layer1
10
6.6789488
20
8.2697694
11
6.6367204
21
8.0750604
0
LINE
8
layer1
10
6.6367204
20
8.0750604
11
6.5904615
21
7.8977746
0
LINE
8
layer1
10
6.5904615
20
7.8977746
11
6.5412044
21
7.7369927
0
LINE
8
layer1
10
6.5412044
20
7.7369927
11
6.4912685
21
7.5954723
0
LINE
8
layer1
10
6.4912685
20
7.5954723
11
6.4411347
21
7.4703569
0
LINE
8
layer1
10
6.4411347
20
7.4703569
11
6.3933555
21
7.3642131
0
LINE
8
layer1
10
6.3933555
20
7.3642131
11
6.3483693
21
7.2744105
0
LINE
8
layer1
10
6.3483693
20
7.2744105
11
6.3077814
21
7.2011401
0
LINE
8
layer1
10
6.3077814
20
7.2011401
11
6.2428195
21
7.0988288
0
LINE
8
layer1
10
6.2428195
20
7.0988288
11
6.1710411
21
7.0048755
0
LINE
8
layer1
10
6.1710411
20
7.0048755
11
6.109544
21
6.9119405
0
LINE
8
layer1
10
6.109544
20
6.9119405
11
6.0662479
21
6.8267412
0
LINE
8
layer1
10
6.0662479
20
6.8267412
11
6.0511794
21
6.7874756
0
LINE
8
layer1
10
6.0511794
20
6.7874756
11
6.0403607
21
6.7506353
0
LINE
8
layer1
10
6.0403607
20
6.7506353
11
6.0336856
21
6.7163972
0
LINE
8
layer1
10
6.0336856
20
6.7163972
11
6.0310269
21
6.6849168
0
LINE
8
layer1
10
6.0310269
20
6.6849168
11
6.0322785
21
6.6563285
0
LINE
8
layer1
10
6.0322785
20
6.6563285
11
6.037306
21
6.6307948
0
LINE
8
layer1
10
6.037306
20
6.6307948
11
6.0459822
21
6.6084573
0
LINE
8
layer1
10
6.0459822
20
6.6084573
11
6.0581798
21
6.5894574
0
LINE
8
layer1
10
6.0581798
20
6.5894574
11
6.0695571
21
6.5774719
0
LINE
8
layer1
10
6.0695571
20
6.5774719
11
6.178098
21
6.4756627
0
LINE
8
layer1
10
6.178098
20
6.4756627
11
6.3286057
21
6.3286057
0
LINE
8
layer1
10
6.3286057
20
6.3286057
11
6.4756627
21
6.178098
0
LINE
8
layer1
10
6.4756627
20
6.178098
11
6.5774719
21
6.0695571
0
LINE
8
layer1
10
6.5774719
20
6.0695571
11
6.5894574
21
6.0581798
0
LINE
8
layer1
10
6.5894574
20
6.0581798
11
6.6084573
21
6.0459822
0
LINE
8
layer1
10
6.6084573
20
6.0459822
11
6.6307948
21
6.037306
0
LINE
8
layer1
10
6.6307948
20
6.037306
11
6.6563285
21
6.0322785
0
LINE
8
layer1
10
6.6563285
20
6.0322785
11
6.6849168
21
6.0310269
0
LINE
8
layer1
10
6.6849168
20
6.0310269
11
6.7163972
21
6.0336856
0
LINE
8
layer1
10
6.7163972
20
6.0336856
11
6.7506353
21
6.0403607
0
LINE
8
layer1
10
6.7506353
20
6.0403607
11
6.7874756
21
6.0511794
0
LINE
8
layer1
10
6.7874756
20
6.0511794
11
6.8267412
21
6.0662479
0
LINE
8
layer1
10
6.8267412
20
6.0662479
11
6.9119405
21
6.109544
0
LINE
8
layer1
10
6.9119405
20
6.109544
11
7.0048755
21
6.1710411
0
LINE
8
layer1
10
7.0048755
20
6.1710411
11
7.0988288
21
6.2428195
0
LINE
8
layer1
10
7.0988288
20
6.2428195
11
7.2011401
21
6.3077814
0
LINE
8
layer1
10
7.2011401
20
6.3077814
11
7.2744105
21
6.3483693
0
LINE
8
layer1
10
7.2744105
20
6.3483693
11
7.3642131
21
6.3933555
0
LINE
8
layer1
10
7.3642131
20
6.3933555
11
7.4703569
21
6.4411347
0
LINE
8
layer1
10
7.4703569
20
6.4411347
11
7.5954723
21
6.4912685
0
LINE
8
layer1
10
7.5954723
20
6.4912685
11
7.7369927
21
6.5412044
0
LINE
8
layer1
10
7.7369927
20
6.5412044
11
7.8977746
21
6.5904615
0
LINE
8
layer1
10
7.8977746
20
6.5904615
11
8.0750604
21
6.6367204
0
LINE
8
layer1
10
8.0750604
20
6.6367204
11
8.2697694
21
6.6789488
0
LINE
8
layer1
10
8.2697694
20
6.6789488
11
8.483549
21
6.7160083
0
LINE
8
layer1
10
8.483549
20
6.7160083
11
8.6906238
21
6.7433464
0
ARC
8
layer1
10
-0.000012
20
-0.0000095
40
11
50
34.1909202
51
37.8090865
0
LINE
8
layer1
10
9.098854
20
6.1814657
11
9.0088642
21
5.9929738
0
LINE
8
layer1
10
9.0088642
20
5.9929738
11
8.9075571
21
5.8011094
0
LINE
8
layer1
10
8.9075571
20
5.8011094
11
8.8072271
21
5.6289795
0
LINE
8
layer1
10
8.8072271
20
5.6289795
11
8.7084479
21
5.4746654
0
LINE
8
layer1
10
8.7084479
20
5.4746654
11
8.6119173
21
5.336974
0
LINE
8
layer1
10
8.6119173
20
5.336974
11
8.5206933
21
5.2178112
0
LINE
8
layer1
10
8.5206933
20
5.2178112
11
8.4343503
21
5.1143115
0
LINE
8
layer1
10
8.4343503
20
5.1143115
11
8.3561094
21
5.0281273
0
LINE
8
layer1
10
8.3561094
20
5.0281273
11
8.2855745
21
4.9566215
0
LINE
8
layer1
10
8.2855745
20
4.9566215
11
8.2243313
21
4.8994796
0
LINE
8
layer1
10
8.2243313
20
4.8994796
11
8.1309329
21
4.8222501
0
LINE
8
layer1
10
8.1309329
20
4.8222501
11
8.0336344
21
4.755076
0
LINE
8
layer1
10
8.0336344
20
4.755076
11
7.9464287
21
4.6856931
0
LINE
8
layer1
10
7.9464287
20
4.6856931
11
7.8789236
21
4.618043
0
LINE
8
layer1
10
7.8789236
20
4.618043
11
7.8524589
21
4.5853556
0
LINE
8
layer1
10
7.8524589
20
4.5853556
11
7.8307854
21
4.5536616
0
LINE
8
layer1
10
7.8307854
20
4.5536616
11
7.8138569
21
4.5231619
0
LINE
8
layer1
10
7.8138569
20
4.5231619
11
7.8016003
21
4.4940439
0
LINE
8
layer1
10
7.8016003
20
4.4940439
11
7.7939563
21
4.466468
0
LINE
8
layer1
10
7.7939563
20
4.466468
11
7.7908475
21
4.4406305
0
LINE
8
layer1
10
7.7908475
20
4.4406305
11
7.7921964
21
4.4167052
0
LINE
8
layer1
10
7.7921964
20
4.4167052
11
7.7979257
21
4.3948659
0
LINE
8
layer1
10
7.7979257
20
4.3948659
11
7.8050425
21
4.3799512
0
LINE
8
layer1
10
7.8050425
20
4.3799512
11
7.8768102
21
4.2495839
0
LINE
8
layer1
10
7.8768102
20
4.2495839
11
7.9745084
21
4.063215
0
LINE
8
layer1
10
7.9745084
20
4.063215
11
8.0678585
21
3.8746306
0
LINE
8
layer1
10
8.0678585
20
3.8746306
11
8.1311438
21
3.7399412
0
LINE
8
layer1
10
8.1311438
20
3.7399412
11
8.1390269
21
3.725417
0
LINE
8
layer1
10
8.1390269
20
3.725417
11
8.1533277
21
3.7079451
0
LINE
8
layer1
10
8.1533277
20
3.7079451
11
8.1718908
21
3.6927909
0
LINE
8
layer1
10
8.1718908
20
3.6927909
11
8.1946211
21
3.6801191
0
LINE
8
layer1
10
8.1946211
20
3.6801191
11
8.2214235
21
3.6700945
0
LINE
8
layer1
10
8.2214235
20
3.6700945
11
8.2521847
21
3.6628951
0
LINE
8
layer1
10
8.2521847
20
3.6628951
11
8.2868098
21
3.6586634
0
LINE
8
layer1
10
8.2868098
20
3.6586634
11
8.3251901
21
3.6575683
0
LINE
8
layer1
10
8.3251901
20
3.6575683
11
8.3671904
21
3.6597655
0
LINE
8
layer1
10
8.3671904
20
3.6597655
11
8.461599
21
3.6746146
0
LINE
8
layer1
10
8.461599
20
3.6746146
11
8.5689891
21
3.7043833
0
LINE
8
layer1
10
8.5689891
20
3.7043833
11
8.6805247
21
3.7436154
0
LINE
8
layer1
10
8.6805247
20
3.7436154
11
8.7979029
21
3.7737819
0
LINE
8
layer1
10
8.7979029
20
3.7737819
11
8.8801295
21
3.7897415
0
LINE
8
layer1
10
8.8801295
20
3.7897415
11
8.9794383
21
3.8047754
0
LINE
8
layer1
10
8.9794383
20
3.8047754
11
9.0951517
21
3.8174159
0
LINE
8
layer1
10
9.0951517
20
3.8174159
11
9.2296358
21
3.8264332
0
LINE
8
layer1
10
9.2296358
20
3.8264332
11
9.3796606
21
3.8301929
0
LINE
8
layer1
10
9.3796606
20
3.8301929
11
9.5477946
21
3.8273548
0
LINE
8
layer1
10
9.5477946
20
3.8273548
11
9.7306982
21
3.8165653
0
LINE
8
layer1
10
9.7306982
20
3.8165653
11
9.9289267
21
3.7965585
0
LINE
8
layer1
10
9.9289267
20
3.7965585
11
10.1436952
21
3.7657426
0
LINE
8
layer1
10
10.1436952
20
3.7657426
11
10.349083
21
3.7277531
0
ARC
8
layer1
10
-0.0000146
20
-0.0000047
40
11
50
16.1909167
51
19.8090831
0
LINE
8
layer1
10
10.5637023
20
3.0672228
11
10.4198698
21
2.9157647
0
ENDSEC
0
EOF