999
"DXF R12 Output" (www.mydxf.blogspot.com)
 0 
SECTION
 2 
HEADER
 9 
$ACADVER
 1 
AC1009
 9 
$EXTMIN
 10 
 0 
 20 
 0 
 9 
$EXTMAX
 10 
 8.5 
 20 
 11 
 0 
ENDSEC
 0 
SECTION
 2 
ENTITIES
0
LINE
8
圖層 1
10
130.792000
20
92.163100
11
130.742000
21
92.124100
0
LINE
8
圖層 1
10
130.742000
20
92.124100
11
130.517000
21
91.947100
0
LINE
8
圖層 1
10
130.517000
20
91.947100
11
130.371440
21
91.719570
0
LINE
8
圖層 1
10
130.371440
20
91.719570
11
130.327040
21
91.650070
0
LINE
8
圖層 1
10
130.327040
20
91.650070
11
130.252040
21
91.307070
0
LINE
8
圖層 1
10
130.252040
20
91.307070
11
130.257040
21
91.271070
0
LINE
8
圖層 1
10
130.257040
20
91.271070
11
130.298340
21
90.957070
0
LINE
8
圖層 1
10
130.298340
20
90.957070
11
130.460340
21
90.646070
0
LINE
8
圖層 1
10
130.460340
20
90.646070
11
130.719340
21
90.408070
0
LINE
8
圖層 1
10
130.719340
20
90.408070
11
130.926340
21
90.322370
0
LINE
8
圖層 1
10
130.926340
20
90.322370
11
131.044640
21
90.273370
0
LINE
8
圖層 1
10
131.044640
20
90.273370
11
131.044670
21
90.273360
0
LINE
8
圖層 1
10
131.044670
20
90.273360
11
131.045340
21
90.273080
0
LINE
8
圖層 1
10
131.045340
20
90.273080
11
131.052000
21
90.273100
0
LINE
8
圖層 1
10
131.052000
20
90.273100
11
131.062700
21
90.272700
0
LINE
8
圖層 1
10
131.062700
20
90.272700
11
131.342220
21
90.260500
0
LINE
8
圖層 1
10
131.342220
20
90.260500
11
131.396220
21
90.258500
0
LINE
8
圖層 1
10
131.396220
20
90.258500
11
131.396500
21
90.258590
0
LINE
8
圖層 1
10
131.396500
20
90.258590
11
131.401500
21
90.260590
0
LINE
8
圖層 1
10
131.401500
20
90.260590
11
131.585760
21
90.315990
0
LINE
8
圖層 1
10
131.585760
20
90.315990
11
131.731780
21
90.359890
0
LINE
8
圖層 1
10
131.731780
20
90.359890
11
132.060780
21
90.408890
0
LINE
8
圖層 1
10
132.060780
20
90.408890
11
132.087680
21
90.406890
0
LINE
8
圖層 1
10
132.087680
20
90.406890
11
132.089680
21
90.407250
0
LINE
8
圖層 1
10
132.089680
20
90.407250
11
132.093680
21
90.406520
0
LINE
8
圖層 1
10
132.093680
20
90.406520
11
132.409680
21
90.341520
0
LINE
8
圖層 1
10
132.409680
20
90.341520
11
132.568680
21
90.244520
0
LINE
8
圖層 1
10
132.568680
20
90.244520
11
132.618280
21
90.214020
0
LINE
8
圖層 1
10
132.618280
20
90.214020
11
132.633280
21
90.205020
0
LINE
8
圖層 1
10
132.633280
20
90.205020
11
132.640280
21
90.201020
0
LINE
8
圖層 1
10
132.640280
20
90.201020
11
132.704080
21
90.161820
0
LINE
8
圖層 1
10
132.704080
20
90.161820
11
132.920080
21
89.892810
0
LINE
8
圖層 1
10
132.920080
20
89.892810
11
132.974080
21
89.730320
0
LINE
8
圖層 1
10
132.974080
20
89.730320
11
133.029080
21
89.564820
0
LINE
8
圖層 1
10
133.029080
20
89.564820
11
133.019080
21
89.219810
0
LINE
8
圖層 1
10
133.019080
20
89.219810
11
132.974080
21
89.104260
0
LINE
8
圖層 1
10
132.974080
20
89.104260
11
132.894080
21
88.898820
0
LINE
8
圖層 1
10
132.894080
20
88.898820
11
132.666080
21
88.640820
0
LINE
8
圖層 1
10
132.666080
20
88.640820
11
132.362080
21
88.476810
0
LINE
8
圖層 1
10
132.362080
20
88.476810
11
132.302080
21
88.454810
0
LINE
8
圖層 1
10
132.302080
20
88.454810
11
132.033080
21
88.355810
0
LINE
8
圖層 1
10
132.033080
20
88.355810
11
131.834220
21
88.192050
0
LINE
8
圖層 1
10
131.834220
20
88.192050
11
131.761120
21
88.131850
0
LINE
8
圖層 1
10
131.761120
20
88.131850
11
131.583120
21
87.828850
0
LINE
8
圖層 1
10
131.583120
20
87.828850
11
131.519120
21
87.482850
0
LINE
8
圖層 1
10
131.519120
20
87.482850
11
131.570420
21
87.175850
0
LINE
8
圖層 1
10
131.570420
20
87.175850
11
131.577420
21
87.135850
0
LINE
8
圖層 1
10
131.577420
20
87.135850
11
131.750430
21
86.829850
0
LINE
8
圖層 1
10
131.750430
20
86.829850
11
132.016150
21
86.601940
0
LINE
8
圖層 1
10
132.016150
20
86.601940
11
132.016210
21
86.601890
0
LINE
8
圖層 1
10
132.016210
20
86.601890
11
132.017210
21
86.600890
0
LINE
8
圖層 1
10
132.017210
20
86.600890
11
132.024210
21
86.598890
0
LINE
8
圖層 1
10
132.024210
20
86.598890
11
132.024400
21
86.598840
0
LINE
8
圖層 1
10
132.024400
20
86.598840
11
132.034500
21
86.594840
0
LINE
8
圖層 1
10
132.034500
20
86.594840
11
132.087900
21
86.574840
0
LINE
8
圖層 1
10
132.087900
20
86.574840
11
132.296990
21
86.496540
0
LINE
8
圖層 1
10
132.296990
20
86.496540
11
132.347690
21
86.477640
0
LINE
8
圖層 1
10
132.347690
20
86.477640
11
132.698690
21
86.470640
0
LINE
8
圖層 1
10
132.698690
20
86.470640
11
132.974690
21
86.423540
0
LINE
8
圖層 1
10
132.974690
20
86.423540
11
133.026690
21
86.414540
0
LINE
8
圖層 1
10
133.026690
20
86.414540
11
133.038690
21
86.413540
0
LINE
8
圖層 1
10
133.038690
20
86.413540
11
133.312690
21
86.257530
0
LINE
8
圖層 1
10
133.312690
20
86.257530
11
133.338690
21
86.243530
0
LINE
8
圖層 1
10
133.338690
20
86.243530
11
133.339690
21
86.241530
0
LINE
8
圖層 1
10
133.339690
20
86.241530
11
133.561360
21
85.981090
0
LINE
8
圖層 1
10
133.561360
20
85.981090
11
133.643360
21
85.762090
0
LINE
8
圖層 1
10
133.643360
20
85.762090
11
133.682360
21
85.658090
0
LINE
8
圖層 1
10
133.682360
20
85.658090
11
133.682000
21
85.657900
0
LINE
8
圖層 1
10
133.682000
20
85.657900
11
133.686000
21
85.313060
0
LINE
8
圖層 1
10
133.686000
20
85.313060
11
133.570000
21
84.988060
0
LINE
8
圖層 1
10
133.570000
20
84.988060
11
133.519000
21
84.925060
0
LINE
8
圖層 1
10
133.519000
20
84.925060
11
133.351000
21
84.721060
0
LINE
8
圖層 1
10
133.351000
20
84.721060
11
133.054000
21
84.547060
0
LINE
8
圖層 1
10
133.054000
20
84.547060
11
132.974000
21
84.532160
0
LINE
8
圖層 1
10
132.974000
20
84.532160
11
132.715000
21
84.484060
0
LINE
8
圖層 1
10
132.715000
20
84.484060
11
132.365000
21
84.470060
0
LINE
8
圖層 1
10
132.365000
20
84.470060
11
132.037000
21
84.341060
0
LINE
8
圖層 1
10
132.037000
20
84.341060
11
131.774000
21
84.108050
0
LINE
8
圖層 1
10
131.774000
20
84.108050
11
131.606000
21
83.799060
0
LINE
8
圖層 1
10
131.606000
20
83.799060
11
131.554000
21
83.451060
0
LINE
8
圖層 1
10
131.554000
20
83.451060
11
131.574000
21
83.355060
0
LINE
8
圖層 1
10
131.574000
20
83.355060
11
131.624000
21
83.106060
0
LINE
8
圖層 1
10
131.624000
20
83.106060
11
131.627000
21
83.101060
0
LINE
8
圖層 1
10
131.627000
20
83.101060
11
131.640600
21
83.078760
0
LINE
8
圖層 1
10
131.640600
20
83.078760
11
131.806260
21
82.807190
0
LINE
8
圖層 1
10
131.806260
20
82.807190
11
131.807130
21
82.806190
0
LINE
8
圖層 1
10
131.807130
20
82.806190
11
131.813130
21
82.802190
0
LINE
8
圖層 1
10
131.813130
20
82.802190
11
131.821130
21
82.795190
0
LINE
8
圖層 1
10
131.821130
20
82.795190
11
132.040520
21
82.620520
0
LINE
8
圖層 1
10
132.040520
20
82.620520
11
132.082920
21
82.586720
0
LINE
8
圖層 1
10
132.082920
20
82.586720
11
132.083100
21
82.586660
0
LINE
8
圖層 1
10
132.083100
20
82.586660
11
132.087100
21
82.585660
0
LINE
8
圖層 1
10
132.087100
20
82.585660
11
132.414460
21
82.471930
0
LINE
8
圖層 1
10
132.414460
20
82.471930
11
132.710460
21
82.317930
0
LINE
8
圖層 1
10
132.710460
20
82.317930
11
132.721460
21
82.312930
0
LINE
8
圖層 1
10
132.721460
20
82.312930
11
132.722460
21
82.311930
0
LINE
8
圖層 1
10
132.722460
20
82.311930
11
132.953210
21
82.058310
0
LINE
8
圖層 1
10
132.953210
20
82.058310
11
132.974210
21
82.007710
0
LINE
8
圖層 1
10
132.974210
20
82.007710
11
133.024210
21
81.887280
0
LINE
8
圖層 1
10
133.024210
20
81.887280
11
133.035110
21
81.861880
0
LINE
8
圖層 1
10
133.035110
20
81.861880
11
133.075710
21
81.763180
0
LINE
8
圖層 1
10
133.075710
20
81.763180
11
133.079710
21
81.754180
0
LINE
8
圖層 1
10
133.079710
20
81.754180
11
133.081710
21
81.750180
0
LINE
8
圖層 1
10
133.081710
20
81.750180
11
133.085710
21
81.740180
0
LINE
8
圖層 1
10
133.085710
20
81.740180
11
133.100710
21
81.395180
0
LINE
8
圖層 1
10
133.100710
20
81.395180
11
132.997710
21
81.066180
0
LINE
8
圖層 1
10
132.997710
20
81.066180
11
132.974710
21
81.036280
0
LINE
8
圖層 1
10
132.974710
20
81.036280
11
132.970710
21
81.031280
0
LINE
8
圖層 1
10
132.970710
20
81.031280
11
132.787640
21
80.793280
0
LINE
8
圖層 1
10
132.787640
20
80.793280
11
132.496640
21
80.608280
0
LINE
8
圖層 1
10
132.496640
20
80.608280
11
132.159640
21
80.532280
0
LINE
8
圖層 1
10
132.159640
20
80.532280
11
131.817640
21
80.578280
0
LINE
8
圖層 1
10
131.817640
20
80.578280
11
131.755640
21
80.595280
0
LINE
8
圖層 1
10
131.755640
20
80.595280
11
131.480630
21
80.673280
0
LINE
8
圖層 1
10
131.480630
20
80.673280
11
131.472630
21
80.672810
0
LINE
8
圖層 1
10
131.472630
20
80.672810
11
131.224580
21
80.658010
0
LINE
8
圖層 1
10
131.224580
20
80.658010
11
131.128380
21
80.652010
0
LINE
8
圖層 1
10
131.128380
20
80.652010
11
130.926380
21
80.564210
0
LINE
8
圖層 1
10
130.926380
20
80.564210
11
130.806380
21
80.512010
0
LINE
8
圖層 1
10
130.806380
20
80.512010
11
130.551380
21
80.269010
0
LINE
8
圖層 1
10
130.551380
20
80.269010
11
130.394380
21
79.955000
0
LINE
8
圖層 1
10
130.394380
20
79.955000
11
130.354380
21
79.605010
0
LINE
8
圖層 1
10
130.354380
20
79.605010
11
130.435980
21
79.264700
0
LINE
8
圖層 1
10
130.435980
20
79.264700
11
130.436390
21
79.262700
0
LINE
8
圖層 1
10
130.436390
20
79.262700
11
130.440390
21
79.257700
0
LINE
8
圖層 1
10
130.440390
20
79.257700
11
130.446390
21
79.248700
0
LINE
8
圖層 1
10
130.446390
20
79.248700
11
130.600800
21
79.013820
0
LINE
8
圖層 1
10
130.600800
20
79.013820
11
130.621300
21
78.982620
0
LINE
8
圖層 1
10
130.621300
20
78.982620
11
130.630300
21
78.968620
0
LINE
8
圖層 1
10
130.630300
20
78.968620
11
130.909300
21
78.757630
0
LINE
8
圖層 1
10
130.909300
20
78.757630
11
130.926300
21
78.740330
0
LINE
8
圖層 1
10
130.926300
20
78.740330
11
131.143300
21
78.519620
0
LINE
8
圖層 1
10
131.143300
20
78.519620
11
131.151300
21
78.510620
0
LINE
8
圖層 1
10
131.151300
20
78.510620
11
131.294300
21
78.196610
0
LINE
8
圖層 1
10
131.294300
20
78.196610
11
131.322300
21
77.853610
0
LINE
8
圖層 1
10
131.322300
20
77.853610
11
131.294300
21
77.753610
0
LINE
8
圖層 1
10
131.294300
20
77.753610
11
131.265100
21
77.650230
0
LINE
8
圖層 1
10
131.265100
20
77.650230
11
131.240100
21
77.560230
0
LINE
8
圖層 1
10
131.240100
20
77.560230
11
131.231100
21
77.529630
0
LINE
8
圖層 1
10
131.231100
20
77.529630
11
131.229100
21
77.521630
0
LINE
8
圖層 1
10
131.229100
20
77.521630
11
131.228300
21
77.520630
0
LINE
8
圖層 1
10
131.228300
20
77.520630
11
131.029100
21
77.240750
0
LINE
8
圖層 1
10
131.029100
20
77.240750
11
130.926100
21
77.170050
0
LINE
8
圖層 1
10
130.926100
20
77.170050
11
130.745100
21
77.045780
0
LINE
8
圖層 1
10
130.745100
20
77.045780
11
130.666100
21
77.024780
0
LINE
8
圖層 1
10
130.666100
20
77.024780
11
130.411100
21
76.959780
0
LINE
8
圖層 1
10
130.411100
20
76.959780
11
130.068100
21
76.992780
0
LINE
8
圖層 1
10
130.068100
20
76.992780
11
129.756100
21
77.140780
0
LINE
8
圖層 1
10
129.756100
20
77.140780
11
129.465100
21
77.335780
0
LINE
8
圖層 1
10
129.465100
20
77.335780
11
129.124100
21
77.423780
0
LINE
8
圖層 1
10
129.124100
20
77.423780
11
128.878100
21
77.399880
0
LINE
8
圖層 1
10
128.878100
20
77.399880
11
128.774100
21
77.389780
0
LINE
8
圖層 1
10
128.774100
20
77.389780
11
128.457100
21
77.238780
0
LINE
8
圖層 1
10
128.457100
20
77.238780
11
128.423100
21
77.204780
0
LINE
8
圖層 1
10
128.423100
20
77.204780
11
128.210100
21
76.987780
0
LINE
8
圖層 1
10
128.210100
20
76.987780
11
128.186000
21
76.934780
0
LINE
8
圖層 1
10
128.186000
20
76.934780
11
128.064100
21
76.666790
0
LINE
8
圖層 1
10
128.064100
20
76.666790
11
128.036100
21
76.317790
0
LINE
8
圖層 1
10
128.036100
20
76.317790
11
128.059100
21
76.233790
0
LINE
8
圖層 1
10
128.059100
20
76.233790
11
128.131100
21
75.977780
0
LINE
8
圖層 1
10
128.131100
20
75.977780
11
128.331100
21
75.689780
0
LINE
8
圖層 1
10
128.331100
20
75.689780
11
128.479100
21
75.391790
0
LINE
8
圖層 1
10
128.479100
20
75.391790
11
128.485100
21
75.381790
0
LINE
8
圖層 1
10
128.485100
20
75.381790
11
128.485410
21
75.378790
0
LINE
8
圖層 1
10
128.485410
20
75.378790
11
128.524110
21
75.038490
0
LINE
8
圖層 1
10
128.524110
20
75.038490
11
128.487510
21
74.886490
0
LINE
8
圖層 1
10
128.487510
20
74.886490
11
128.443110
21
74.702490
0
LINE
8
圖層 1
10
128.443110
20
74.702490
11
128.315110
21
74.508490
0
LINE
8
圖層 1
10
128.315110
20
74.508490
11
128.253110
21
74.415490
0
LINE
8
圖層 1
10
128.253110
20
74.415490
11
127.975110
21
74.210480
0
LINE
8
圖層 1
10
127.975110
20
74.210480
11
127.645110
21
74.112480
0
LINE
8
圖層 1
10
127.645110
20
74.112480
11
127.564110
21
74.117480
0
LINE
8
圖層 1
10
127.564110
20
74.117480
11
127.301110
21
74.133480
0
LINE
8
圖層 1
10
127.301110
20
74.133480
11
127.300480
21
74.133760
0
LINE
8
圖層 1
10
127.300480
20
74.133760
11
126.985110
21
74.270480
0
LINE
8
圖層 1
10
126.985110
20
74.270480
11
126.830110
21
74.417460
0
LINE
8
圖層 1
10
126.830110
20
74.417460
11
126.734110
21
74.508460
0
LINE
8
圖層 1
10
126.734110
20
74.508460
11
126.518110
21
74.783460
0
LINE
8
圖層 1
10
126.518110
20
74.783460
11
126.356570
21
74.886460
0
LINE
8
圖層 1
10
126.356570
20
74.886460
11
126.220110
21
74.973460
0
LINE
8
圖層 1
10
126.220110
20
74.973460
11
125.878110
21
75.049460
0
LINE
8
圖層 1
10
125.878110
20
75.049460
11
125.626110
21
75.015460
0
LINE
8
圖層 1
10
125.626110
20
75.015460
11
125.528110
21
75.002460
0
LINE
8
圖層 1
10
125.528110
20
75.002460
11
125.527540
21
75.002170
0
LINE
8
圖層 1
10
125.527540
20
75.002170
11
125.305420
21
74.886470
0
LINE
8
圖層 1
10
125.305420
20
74.886470
11
125.217120
21
74.840470
0
LINE
8
圖層 1
10
125.217120
20
74.840470
11
124.979120
21
74.581470
0
LINE
8
圖層 1
10
124.979120
20
74.581470
11
124.844530
21
74.257440
0
LINE
8
圖層 1
10
124.844530
20
74.257440
11
124.844120
21
74.256470
0
LINE
8
圖層 1
10
124.844120
20
74.256470
11
124.844000
21
74.249500
0
LINE
8
圖層 1
10
124.844000
20
74.249500
11
124.843470
21
74.238800
0
LINE
8
圖層 1
10
124.843470
20
74.238800
11
124.831270
21
73.958480
0
LINE
8
圖層 1
10
124.831270
20
73.958480
11
124.829270
21
73.904280
0
LINE
8
圖層 1
10
124.829270
20
73.904280
11
124.930270
21
73.568290
0
LINE
8
圖層 1
10
124.930270
20
73.568290
11
124.979270
21
73.239280
0
LINE
8
圖層 1
10
124.979270
20
73.239280
11
124.981270
21
73.228280
0
LINE
8
圖層 1
10
124.981270
20
73.228280
11
124.981070
21
73.227280
0
LINE
8
圖層 1
10
124.981070
20
73.227280
11
124.912270
21
72.890310
0
LINE
8
圖層 1
10
124.912270
20
72.890310
11
124.782270
21
72.677970
0
LINE
8
圖層 1
10
124.782270
20
72.677970
11
124.732270
21
72.596270
0
LINE
8
圖層 1
10
124.732270
20
72.596270
11
124.549270
21
72.450270
0
LINE
8
圖層 1
10
124.549270
20
72.450270
11
124.466070
21
72.382570
0
LINE
8
圖層 1
10
124.466070
20
72.382570
11
124.463070
21
72.380570
0
LINE
8
圖層 1
10
124.463070
20
72.380570
11
124.264070
21
72.315570
0
LINE
8
圖層 1
10
124.264070
20
72.315570
11
124.135070
21
72.272570
0
LINE
8
圖層 1
10
124.135070
20
72.272570
11
123.790070
21
72.281570
0
LINE
8
圖層 1
10
123.790070
20
72.281570
11
123.715070
21
72.310570
0
LINE
8
圖層 1
10
123.715070
20
72.310570
11
123.469070
21
72.406570
0
LINE
8
圖層 1
10
123.469070
20
72.406570
11
123.211070
21
72.635570
0
LINE
8
圖層 1
10
123.211070
20
72.635570
11
123.047070
21
72.938570
0
LINE
8
圖層 1
10
123.047070
20
72.938570
11
122.926070
21
73.267570
0
LINE
8
圖層 1
10
122.926070
20
73.267570
11
122.734070
21
73.500720
0
LINE
8
圖層 1
10
122.734070
20
73.500720
11
122.702070
21
73.539620
0
LINE
8
圖層 1
10
122.702070
20
73.539620
11
122.399070
21
73.717610
0
LINE
8
圖層 1
10
122.399070
20
73.717610
11
122.053070
21
73.781610
0
LINE
8
圖層 1
10
122.053070
20
73.781610
11
121.706070
21
73.723610
0
LINE
8
圖層 1
10
121.706070
20
73.723610
11
121.400540
21
73.550870
0
LINE
8
圖層 1
10
121.400540
20
73.550870
11
121.400070
21
73.550610
0
LINE
8
圖層 1
10
121.400070
20
73.550610
11
121.341070
21
73.481610
0
LINE
8
圖層 1
10
121.341070
20
73.481610
11
121.172160
21
73.284880
0
LINE
8
圖層 1
10
121.172160
20
73.284880
11
121.172110
21
73.284820
0
LINE
8
圖層 1
10
121.172110
20
73.284820
11
121.171110
21
73.283820
0
LINE
8
圖層 1
10
121.171110
20
73.283820
11
121.169110
21
73.276820
0
LINE
8
圖層 1
10
121.169110
20
73.276820
11
121.169050
21
73.276630
0
LINE
8
圖層 1
10
121.169050
20
73.276630
11
121.165050
21
73.266530
0
LINE
8
圖層 1
10
121.165050
20
73.266530
11
121.145650
21
73.214730
0
LINE
8
圖層 1
10
121.145650
20
73.214730
11
121.066750
21
73.004080
0
LINE
8
圖層 1
10
121.066750
20
73.004080
11
121.047850
21
72.953380
0
LINE
8
圖層 1
10
121.047850
20
72.953380
11
121.040850
21
72.602380
0
LINE
8
圖層 1
10
121.040850
20
72.602380
11
120.984850
21
72.275380
0
LINE
8
圖層 1
10
120.984850
20
72.275380
11
120.983850
21
72.262380
0
LINE
8
圖層 1
10
120.983850
20
72.262380
11
120.981850
21
72.259380
0
LINE
8
圖層 1
10
120.981850
20
72.259380
11
120.813610
21
71.962480
0
LINE
8
圖層 1
10
120.813610
20
71.962480
11
120.685610
21
71.853540
0
LINE
8
圖層 1
10
120.685610
20
71.853540
11
120.551870
21
71.739710
0
LINE
8
圖層 1
10
120.551870
20
71.739710
11
120.551610
21
71.739490
0
LINE
8
圖層 1
10
120.551610
20
71.739490
11
120.332610
21
71.657490
0
LINE
8
圖層 1
10
120.332610
20
71.657490
11
120.228610
21
71.618490
0
LINE
8
圖層 1
10
120.228610
20
71.618490
11
119.888060
21
71.614490
0
LINE
8
圖層 1
10
119.888060
20
71.614490
11
119.884060
21
71.614430
0
LINE
8
圖層 1
10
119.884060
20
71.614430
11
119.786060
21
71.650430
0
LINE
8
圖層 1
10
119.786060
20
71.650430
11
119.558060
21
71.730430
0
LINE
8
圖層 1
10
119.558060
20
71.730430
11
119.496060
21
71.781430
0
LINE
8
圖層 1
10
119.496060
20
71.781430
11
119.292060
21
71.950430
0
LINE
8
圖層 1
10
119.292060
20
71.950430
11
119.118060
21
72.247440
0
LINE
8
圖層 1
10
119.118060
20
72.247440
11
119.054060
21
72.585430
0
LINE
8
圖層 1
10
119.054060
20
72.585430
11
119.041060
21
72.936430
0
LINE
8
圖層 1
10
119.041060
20
72.936430
11
118.912060
21
73.263430
0
LINE
8
圖層 1
10
118.912060
20
73.263430
11
118.679060
21
73.527430
0
LINE
8
圖層 1
10
118.679060
20
73.527430
11
118.638060
21
73.549630
0
LINE
8
圖層 1
10
118.638060
20
73.549630
11
118.370060
21
73.694480
0
LINE
8
圖層 1
10
118.370060
20
73.694480
11
118.140740
21
73.728780
0
LINE
8
圖層 1
10
118.140740
20
73.728780
11
118.022060
21
73.746480
0
LINE
8
圖層 1
10
118.022060
20
73.746480
11
117.677060
21
73.676480
0
LINE
8
圖層 1
10
117.677060
20
73.676480
11
117.377060
21
73.493480
0
LINE
8
圖層 1
10
117.377060
20
73.493480
11
117.324960
21
73.426480
0
LINE
8
圖層 1
10
117.324960
20
73.426480
11
117.300060
21
73.394480
0
LINE
8
圖層 1
10
117.300060
20
73.394480
11
117.158060
21
73.217480
0
LINE
8
圖層 1
10
117.158060
20
73.217480
11
117.043060
21
72.886480
0
LINE
8
圖層 1
10
117.043060
20
72.886480
11
116.889060
21
72.591480
0
LINE
8
圖層 1
10
116.889060
20
72.591480
11
116.884060
21
72.580480
0
LINE
8
圖層 1
10
116.884060
20
72.580480
11
116.883060
21
72.579480
0
LINE
8
圖層 1
10
116.883060
20
72.579480
11
116.629480
21
72.347770
0
LINE
8
圖層 1
10
116.629480
20
72.347770
11
116.590480
21
72.331570
0
LINE
8
圖層 1
10
116.590480
20
72.331570
11
116.458480
21
72.276770
0
LINE
8
圖層 1
10
116.458480
20
72.276770
11
116.310480
21
72.215770
0
LINE
8
圖層 1
10
116.310480
20
72.215770
11
115.966480
21
72.201770
0
LINE
8
圖層 1
10
115.966480
20
72.201770
11
115.637480
21
72.304780
0
LINE
8
圖層 1
10
115.637480
20
72.304780
11
115.364480
21
72.513780
0
LINE
8
圖層 1
10
115.364480
20
72.513780
11
115.352480
21
72.533780
0
LINE
8
圖層 1
10
115.352480
20
72.533780
11
115.318380
21
72.587280
0
LINE
8
圖層 1
10
115.318380
20
72.587280
11
115.179520
21
72.804800
0
LINE
8
圖層 1
10
115.179520
20
72.804800
11
115.103520
21
73.141800
0
LINE
8
圖層 1
10
115.103520
20
73.141800
11
115.149520
21
73.483800
0
LINE
8
圖層 1
10
115.149520
20
73.483800
11
115.166520
21
73.545800
0
LINE
8
圖層 1
10
115.166520
20
73.545800
11
115.244520
21
73.821800
0
LINE
8
圖層 1
10
115.244520
20
73.821800
11
115.223520
21
74.172800
0
LINE
8
圖層 1
10
115.223520
20
74.172800
11
115.083520
21
74.494800
0
LINE
8
圖層 1
10
115.083520
20
74.494800
11
114.840520
21
74.750800
0
LINE
8
圖層 1
10
114.840520
20
74.750800
11
114.565900
21
74.886800
0
LINE
8
圖層 1
10
114.565900
20
74.886800
11
114.525500
21
74.906800
0
LINE
8
圖層 1
10
114.525500
20
74.906800
11
114.176500
21
74.946800
0
LINE
8
圖層 1
10
114.176500
20
74.946800
11
113.923170
21
74.886800
0
LINE
8
圖層 1
10
113.923170
20
74.886800
11
113.836970
21
74.866400
0
LINE
8
圖層 1
10
113.836970
20
74.866400
11
113.834970
21
74.866000
0
LINE
8
圖層 1
10
113.834970
20
74.866000
11
113.834200
21
74.865820
0
LINE
8
圖層 1
10
113.834200
20
74.865820
11
113.832200
21
74.863820
0
LINE
8
圖層 1
10
113.832200
20
74.863820
11
113.828200
21
74.860820
0
LINE
8
圖層 1
10
113.828200
20
74.860820
11
113.819200
21
74.854820
0
LINE
8
圖層 1
10
113.819200
20
74.854820
11
113.767100
21
74.820420
0
LINE
8
圖層 1
10
113.767100
20
74.820420
11
113.725400
21
74.792920
0
LINE
8
圖層 1
10
113.725400
20
74.792920
11
113.585220
21
74.700420
0
LINE
8
圖層 1
10
113.585220
20
74.700420
11
113.540020
21
74.670520
0
LINE
8
圖層 1
10
113.540020
20
74.670520
11
113.344540
21
74.412030
0
LINE
8
圖層 1
10
113.344540
20
74.412030
11
113.329040
21
74.391530
0
LINE
8
圖層 1
10
113.329040
20
74.391530
11
113.091040
21
74.158530
0
LINE
8
圖層 1
10
113.091040
20
74.158530
11
113.082040
21
74.149530
0
LINE
8
圖層 1
10
113.082040
20
74.149530
11
112.768040
21
74.006530
0
LINE
8
圖層 1
10
112.768040
20
74.006530
11
112.506130
21
73.985930
0
LINE
8
圖層 1
10
112.506130
20
73.985930
11
112.494030
21
73.984970
0
LINE
8
圖層 1
10
112.494030
20
73.984970
11
112.425030
21
73.979970
0
LINE
8
圖層 1
10
112.425030
20
73.979970
11
112.201030
21
74.041970
0
LINE
8
圖層 1
10
112.201030
20
74.041970
11
112.093030
21
74.071970
0
LINE
8
圖層 1
10
112.093030
20
74.071970
11
111.812030
21
74.272970
0
LINE
8
圖層 1
10
111.812030
20
74.272970
11
111.616750
21
74.554950
0
LINE
8
圖層 1
10
111.616750
20
74.554950
11
111.616030
21
74.555950
0
LINE
8
圖層 1
10
111.616030
20
74.555950
11
111.596030
21
74.634950
0
LINE
8
圖層 1
10
111.596030
20
74.634950
11
111.530830
21
74.886950
0
LINE
8
圖層 1
10
111.530830
20
74.886950
11
111.530050
21
74.889950
0
LINE
8
圖層 1
10
111.530050
20
74.889950
11
111.533050
21
74.920950
0
LINE
8
圖層 1
10
111.533050
20
74.920950
11
111.564050
21
75.233960
0
LINE
8
圖層 1
10
111.564050
20
75.233960
11
111.712050
21
75.544950
0
LINE
8
圖層 1
10
111.712050
20
75.544950
11
111.907050
21
75.835950
0
LINE
8
圖層 1
10
111.907050
20
75.835950
11
111.995050
21
76.176950
0
LINE
8
圖層 1
10
111.995050
20
76.176950
11
111.961050
21
76.526960
0
LINE
8
圖層 1
10
111.961050
20
76.526960
11
111.810050
21
76.844960
0
LINE
8
圖層 1
10
111.810050
20
76.844960
11
111.718250
21
76.934960
0
LINE
8
圖層 1
10
111.718250
20
76.934960
11
111.559080
21
77.090960
0
LINE
8
圖層 1
10
111.559080
20
77.090960
11
111.238080
21
77.236960
0
LINE
8
圖層 1
10
111.238080
20
77.236960
11
110.889080
21
77.264960
0
LINE
8
圖層 1
10
110.889080
20
77.264960
11
110.805080
21
77.241960
0
LINE
8
圖層 1
10
110.805080
20
77.241960
11
110.801080
21
77.240960
0
LINE
8
圖層 1
10
110.801080
20
77.240960
11
110.549570
21
77.171160
0
LINE
8
圖層 1
10
110.549570
20
77.171160
11
110.261570
21
76.971160
0
LINE
8
圖層 1
10
110.261570
20
76.971160
11
110.189570
21
76.935160
0
LINE
8
圖層 1
10
110.189570
20
76.935160
11
109.963570
21
76.822160
0
LINE
8
圖層 1
10
109.963570
20
76.822160
11
109.953570
21
76.816160
0
LINE
8
圖層 1
10
109.953570
20
76.816160
11
109.950570
21
76.815910
0
LINE
8
圖層 1
10
109.950570
20
76.815910
11
109.816090
21
76.802210
0
LINE
8
圖層 1
10
109.816090
20
76.802210
11
109.615710
21
76.778910
0
LINE
8
圖層 1
10
109.615710
20
76.778910
11
109.609710
21
76.778260
0
LINE
8
圖層 1
10
109.609710
20
76.778260
11
109.428710
21
76.822260
0
LINE
8
圖層 1
10
109.428710
20
76.822260
11
109.273710
21
76.858260
0
LINE
8
圖層 1
10
109.273710
20
76.858260
11
109.157400
21
76.935260
0
LINE
8
圖層 1
10
109.157400
20
76.935260
11
108.986710
21
77.048250
0
LINE
8
圖層 1
10
108.986710
20
77.048250
11
108.781710
21
77.326250
0
LINE
8
圖層 1
10
108.781710
20
77.326250
11
108.683710
21
77.656260
0
LINE
8
圖層 1
10
108.683710
20
77.656260
11
108.704710
21
78.001260
0
LINE
8
圖層 1
10
108.704710
20
78.001260
11
108.841710
21
78.317260
0
LINE
8
圖層 1
10
108.841710
20
78.317260
11
109.079710
21
78.567260
0
LINE
8
圖層 1
10
109.079710
20
78.567260
11
109.129710
21
78.607260
0
LINE
8
圖層 1
10
109.129710
20
78.607260
11
109.354710
21
78.784260
0
LINE
8
圖層 1
10
109.354710
20
78.784260
11
109.482020
21
78.983260
0
LINE
8
圖層 1
10
109.482020
20
78.983260
11
109.544720
21
79.081260
0
LINE
8
圖層 1
10
109.544720
20
79.081260
11
109.611720
21
79.388260
0
LINE
8
圖層 1
10
109.611720
20
79.388260
11
109.620720
21
79.424260
0
LINE
8
圖層 1
10
109.620720
20
79.424260
11
109.620280
21
79.427260
0
LINE
8
圖層 1
10
109.620280
20
79.427260
11
109.592680
21
79.629030
0
LINE
8
圖層 1
10
109.592680
20
79.629030
11
109.573680
21
79.773030
0
LINE
8
圖層 1
10
109.573680
20
79.773030
11
109.572770
21
79.775030
0
LINE
8
圖層 1
10
109.572770
20
79.775030
11
109.411680
21
80.085290
0
LINE
8
圖層 1
10
109.411680
20
80.085290
11
109.152680
21
80.323290
0
LINE
8
圖層 1
10
109.152680
20
80.323290
11
108.857260
21
80.445090
0
LINE
8
圖層 1
10
108.857260
20
80.445090
11
108.827660
21
80.457290
0
LINE
8
圖層 1
10
108.827660
20
80.457290
11
108.819660
21
80.458260
0
LINE
8
圖層 1
10
108.819660
20
80.458260
11
108.809060
21
80.458690
0
LINE
8
圖層 1
10
108.809060
20
80.458690
11
108.529610
21
80.470790
0
LINE
8
圖層 1
10
108.529610
20
80.470790
11
108.475410
21
80.472790
0
LINE
8
圖層 1
10
108.475410
20
80.472790
11
108.475150
21
80.472710
0
LINE
8
圖層 1
10
108.475150
20
80.472710
11
108.470150
21
80.471710
0
LINE
8
圖層 1
10
108.470150
20
80.471710
11
108.397350
21
80.449610
0
LINE
8
圖層 1
10
108.397350
20
80.449610
11
108.139350
21
80.371310
0
LINE
8
圖層 1
10
108.139350
20
80.371310
11
107.810350
21
80.322310
0
LINE
8
圖層 1
10
107.810350
20
80.322310
11
107.799350
21
80.321310
0
LINE
8
圖層 1
10
107.799350
20
80.321310
11
107.461350
21
80.389310
0
LINE
8
圖層 1
10
107.461350
20
80.389310
11
107.302350
21
80.486310
0
LINE
8
圖層 1
10
107.302350
20
80.486310
11
107.167350
21
80.569310
0
LINE
8
圖層 1
10
107.167350
20
80.569310
11
106.951350
21
80.839310
0
LINE
8
圖層 1
10
106.951350
20
80.839310
11
106.888150
21
81.031310
0
LINE
8
圖層 1
10
106.888150
20
81.031310
11
106.843350
21
81.167310
0
LINE
8
圖層 1
10
106.843350
20
81.167310
11
106.852350
21
81.511310
0
LINE
8
圖層 1
10
106.852350
20
81.511310
11
106.882750
21
81.589310
0
LINE
8
圖層 1
10
106.882750
20
81.589310
11
106.977350
21
81.832290
0
LINE
8
圖層 1
10
106.977350
20
81.832290
11
107.206350
21
82.090290
0
LINE
8
圖層 1
10
107.206350
20
82.090290
11
107.508880
21
82.255040
0
LINE
8
圖層 1
10
107.508880
20
82.255040
11
107.509350
21
82.255290
0
LINE
8
圖層 1
10
107.509350
20
82.255290
11
107.569350
21
82.277290
0
LINE
8
圖層 1
10
107.569350
20
82.277290
11
107.838350
21
82.376290
0
LINE
8
圖層 1
10
107.838350
20
82.376290
11
108.110350
21
82.600290
0
LINE
8
圖層 1
10
108.110350
20
82.600290
11
108.288350
21
82.903290
0
LINE
8
圖層 1
10
108.288350
20
82.903290
11
108.320950
21
83.079280
0
LINE
8
圖層 1
10
108.320950
20
83.079280
11
108.352450
21
83.249290
0
LINE
8
圖層 1
10
108.352450
20
83.249290
11
108.294450
21
83.596290
0
LINE
8
圖層 1
10
108.294450
20
83.596290
11
108.121450
21
83.902290
0
LINE
8
圖層 1
10
108.121450
20
83.902290
11
107.854450
21
84.130290
0
LINE
8
圖層 1
10
107.854450
20
84.130290
11
107.847450
21
84.133290
0
LINE
8
圖層 1
10
107.847450
20
84.133290
11
107.837350
21
84.137290
0
LINE
8
圖層 1
10
107.837350
20
84.137290
11
107.574910
21
84.234790
0
LINE
8
圖層 1
10
107.574910
20
84.234790
11
107.524210
21
84.253490
0
LINE
8
圖層 1
10
107.524210
20
84.253490
11
107.173210
21
84.261490
0
LINE
8
圖層 1
10
107.173210
20
84.261490
11
106.846210
21
84.316490
0
LINE
8
圖層 1
10
106.846210
20
84.316490
11
106.833210
21
84.317490
0
LINE
8
圖層 1
10
106.833210
20
84.317490
11
106.533210
21
84.487480
0
LINE
8
圖層 1
10
106.533210
20
84.487480
11
106.310210
21
84.750480
0
LINE
8
圖層 1
10
106.310210
20
84.750480
11
106.302210
21
84.770480
0
LINE
8
圖層 1
10
106.302210
20
84.770480
11
106.189210
21
85.073480
0
LINE
8
圖層 1
10
106.189210
20
85.073480
11
106.188590
21
85.127480
0
LINE
8
圖層 1
10
106.188590
20
85.127480
11
106.185590
21
85.418480
0
LINE
8
圖層 1
10
106.185590
20
85.418480
11
106.301590
21
85.743480
0
LINE
8
圖層 1
10
106.301590
20
85.743480
11
106.521590
21
86.009480
0
LINE
8
圖層 1
10
106.521590
20
86.009480
11
106.670590
21
86.097480
0
LINE
8
圖層 1
10
106.670590
20
86.097480
11
106.818590
21
86.184480
0
LINE
8
圖層 1
10
106.818590
20
86.184480
11
107.156590
21
86.247480
0
LINE
8
圖層 1
10
107.156590
20
86.247480
11
107.507590
21
86.260480
0
LINE
8
圖層 1
10
107.507590
20
86.260480
11
107.759490
21
86.359880
0
LINE
8
圖層 1
10
107.759490
20
86.359880
11
107.834590
21
86.389480
0
LINE
8
圖層 1
10
107.834590
20
86.389480
11
108.098590
21
86.622480
0
LINE
8
圖層 1
10
108.098590
20
86.622480
11
108.265590
21
86.932490
0
LINE
8
圖層 1
10
108.265590
20
86.932490
11
108.282490
21
87.045000
0
LINE
8
圖層 1
10
108.282490
20
87.045000
11
108.302090
21
87.175490
0
LINE
8
圖層 1
10
108.302090
20
87.175490
11
108.317690
21
87.279490
0
LINE
8
圖層 1
10
108.317690
20
87.279490
11
108.247690
21
87.625480
0
LINE
8
圖層 1
10
108.247690
20
87.625480
11
108.066210
21
87.922000
0
LINE
8
圖層 1
10
108.066210
20
87.922000
11
108.064210
21
87.924000
0
LINE
8
圖層 1
10
108.064210
20
87.924000
11
107.996210
21
87.977000
0
LINE
8
圖層 1
10
107.996210
20
87.977000
11
107.788210
21
88.143000
0
LINE
8
圖層 1
10
107.788210
20
88.143000
11
107.460290
21
88.256930
0
LINE
8
圖層 1
10
107.460290
20
88.256930
11
107.457290
21
88.257930
0
LINE
8
圖層 1
10
107.457290
20
88.257930
11
107.293290
21
88.343930
0
LINE
8
圖層 1
10
107.293290
20
88.343930
11
107.151290
21
88.417930
0
LINE
8
圖層 1
10
107.151290
20
88.417930
11
106.918290
21
88.671930
0
LINE
8
圖層 1
10
106.918290
20
88.671930
11
106.816140
21
88.918780
0
LINE
8
圖層 1
10
106.816140
20
88.918780
11
106.786240
21
88.990980
0
LINE
8
圖層 1
10
106.786240
20
88.990980
11
106.777240
21
89.222980
0
LINE
8
圖層 1
10
106.777240
20
89.222980
11
106.772240
21
89.334980
0
LINE
8
圖層 1
10
106.772240
20
89.334980
11
106.875240
21
89.663980
0
LINE
8
圖層 1
10
106.875240
20
89.663980
11
107.084240
21
89.937980
0
LINE
8
圖層 1
10
107.084240
20
89.937980
11
107.375240
21
90.122980
0
LINE
8
圖層 1
10
107.375240
20
90.122980
11
107.712240
21
90.197980
0
LINE
8
圖層 1
10
107.712240
20
90.197980
11
107.803240
21
90.185980
0
LINE
8
圖層 1
10
107.803240
20
90.185980
11
108.054240
21
90.151980
0
LINE
8
圖層 1
10
108.054240
20
90.151980
11
108.392240
21
90.056980
0
LINE
8
圖層 1
10
108.392240
20
90.056980
11
108.397240
21
90.057290
0
LINE
8
圖層 1
10
108.397240
20
90.057290
11
108.743240
21
90.078990
0
LINE
8
圖層 1
10
108.743240
20
90.078990
11
108.769240
21
90.089990
0
LINE
8
圖層 1
10
108.769240
20
90.089990
11
109.065240
21
90.218990
0
LINE
8
圖層 1
10
109.065240
20
90.218990
11
109.321240
21
90.460990
0
LINE
8
圖層 1
10
109.321240
20
90.460990
11
109.426240
21
90.670990
0
LINE
8
圖層 1
10
109.426240
20
90.670990
11
109.477240
21
90.775990
0
LINE
8
圖層 1
10
109.477240
20
90.775990
11
109.517240
21
91.125990
0
LINE
8
圖層 1
10
109.517240
20
91.125990
11
109.482840
21
91.270990
0
LINE
8
圖層 1
10
109.482840
20
91.270990
11
109.436340
21
91.466990
0
LINE
8
圖層 1
10
109.436340
20
91.466990
11
109.388440
21
91.539890
0
LINE
8
圖層 1
10
109.388440
20
91.539890
11
109.388360
21
91.540010
0
LINE
8
圖層 1
10
109.388360
20
91.540010
11
109.241360
21
91.761010
0
LINE
8
圖層 1
10
109.241360
20
91.761010
11
108.962360
21
91.973020
0
LINE
8
圖層 1
10
108.962360
20
91.973020
11
108.720360
21
92.219010
0
LINE
8
圖層 1
10
108.720360
20
92.219010
11
108.577360
21
92.533010
0
LINE
8
圖層 1
10
108.577360
20
92.533010
11
108.557260
21
92.789540
0
LINE
8
圖層 1
10
108.557260
20
92.789540
11
108.556260
21
92.806040
0
LINE
8
圖層 1
10
108.556260
20
92.806040
11
108.550260
21
92.877040
0
LINE
8
圖層 1
10
108.550260
20
92.877040
11
108.614760
21
93.109260
0
LINE
8
圖層 1
10
108.614760
20
93.109260
11
108.642160
21
93.208060
0
LINE
8
圖層 1
10
108.642160
20
93.208060
11
108.721560
21
93.319060
0
LINE
8
圖層 1
10
108.721560
20
93.319060
11
108.843160
21
93.489060
0
LINE
8
圖層 1
10
108.843160
20
93.489060
11
109.126160
21
93.685060
0
LINE
8
圖層 1
10
109.126160
20
93.685060
11
109.460160
21
93.771060
0
LINE
8
圖層 1
10
109.460160
20
93.771060
11
109.804160
21
93.738060
0
LINE
8
圖層 1
10
109.804160
20
93.738060
11
110.445160
21
93.432690
0
LINE
8
圖層 1
10
110.445160
20
93.432690
11
110.524160
21
93.395090
0
LINE
8
圖層 1
10
110.524160
20
93.395090
11
110.505360
21
93.369390
0
LINE
8
圖層 1
10
110.505360
20
93.369390
11
110.505120
21
93.369070
0
LINE
8
圖層 1
10
110.505120
20
93.369070
11
110.663120
21
93.328070
0
LINE
8
圖層 1
10
110.663120
20
93.328070
11
110.667120
21
93.327120
0
LINE
8
圖層 1
10
110.667120
20
93.327120
11
110.697820
21
93.319120
0
LINE
8
圖層 1
10
110.697820
20
93.319120
11
110.747420
21
93.306120
0
LINE
8
圖層 1
10
110.747420
20
93.306120
11
110.833620
21
93.314120
0
LINE
8
圖層 1
10
110.833620
20
93.314120
11
110.833580
21
93.319120
0
LINE
8
圖層 1
10
110.833580
20
93.319120
11
110.814180
21
95.367120
0
LINE
8
圖層 1
10
110.814180
20
95.367120
11
110.778580
21
99.115120
0
LINE
8
圖層 1
10
110.778580
20
99.115120
11
109.935400
21
187.973120
0
LINE
8
圖層 1
10
109.935400
20
187.973120
11
129.035400
21
188.127120
0
LINE
8
圖層 1
10
129.035400
20
188.127120
11
129.880030
21
99.115120
0
LINE
8
圖層 1
10
129.880030
20
99.115120
11
129.915630
21
95.367120
0
LINE
8
圖層 1
10
129.915630
20
95.367120
11
129.929430
21
93.918520
0
LINE
8
圖層 1
10
129.929430
20
93.918520
11
129.929460
21
93.915520
0
LINE
8
圖層 1
10
129.929460
20
93.915520
11
130.262490
21
93.953420
0
LINE
8
圖層 1
10
130.262490
20
93.953420
11
130.442490
21
93.909420
0
LINE
8
圖層 1
10
130.442490
20
93.909420
11
130.510190
21
93.893220
0
LINE
8
圖層 1
10
130.510190
20
93.893220
11
130.597490
21
93.872420
0
LINE
8
圖層 1
10
130.597490
20
93.872420
11
130.884490
21
93.682420
0
LINE
8
圖層 1
10
130.884490
20
93.682420
11
131.089490
21
93.404420
0
LINE
8
圖層 1
10
131.089490
20
93.404420
11
131.114990
21
93.319420
0
LINE
8
圖層 1
10
131.114990
20
93.319420
11
131.123990
21
93.289920
0
LINE
8
圖層 1
10
131.123990
20
93.289920
11
131.188690
21
93.074400
0
LINE
8
圖層 1
10
131.188690
20
93.074400
11
131.166690
21
92.730400
0
LINE
8
圖層 1
10
131.166690
20
92.730400
11
131.029690
21
92.414400
0
LINE
8
圖層 1
10
131.029690
20
92.414400
11
130.792930
21
92.164710
0
LINE
8
圖層 1
10
130.792930
20
92.164710
11
130.791930
21
92.163710
0
LINE
8
圖層 1
10
120.911930
20
90.404720
11
120.685930
21
90.438220
0
LINE
8
圖層 1
10
120.685930
20
90.438220
11
120.425930
21
90.476720
0
LINE
8
圖層 1
10
120.425930
20
90.476720
11
119.935930
21
90.500720
0
LINE
8
圖層 1
10
119.935930
20
90.500720
11
119.445930
21
90.476720
0
LINE
8
圖層 1
10
119.445930
20
90.476720
11
118.959930
21
90.404720
0
LINE
8
圖層 1
10
118.959930
20
90.404720
11
118.483930
21
90.285710
0
LINE
8
圖層 1
10
118.483930
20
90.285710
11
118.021930
21
90.119720
0
LINE
8
圖層 1
10
118.021930
20
90.119720
11
117.577930
21
89.909710
0
LINE
8
圖層 1
10
117.577930
20
89.909710
11
117.156930
21
89.657710
0
LINE
8
圖層 1
10
117.156930
20
89.657710
11
116.762930
21
89.364710
0
LINE
8
圖層 1
10
116.762930
20
89.364710
11
116.589930
21
89.208350
0
LINE
8
圖層 1
10
116.589930
20
89.208350
11
116.398930
21
89.035710
0
LINE
8
圖層 1
10
116.398930
20
89.035710
11
116.068930
21
88.671710
0
LINE
8
圖層 1
10
116.068930
20
88.671710
11
115.776930
21
88.277710
0
LINE
8
圖層 1
10
115.776930
20
88.277710
11
115.523930
21
87.856720
0
LINE
8
圖層 1
10
115.523930
20
87.856720
11
115.313930
21
87.412720
0
LINE
8
圖層 1
10
115.313930
20
87.412720
11
115.229330
21
87.175720
0
LINE
8
圖層 1
10
115.229330
20
87.175720
11
115.148930
21
86.950710
0
LINE
8
圖層 1
10
115.148930
20
86.950710
11
115.029930
21
86.473720
0
LINE
8
圖層 1
10
115.029930
20
86.473720
11
114.957930
21
85.988720
0
LINE
8
圖層 1
10
114.957930
20
85.988720
11
114.933930
21
85.497710
0
LINE
8
圖層 1
10
114.933930
20
85.497710
11
114.957930
21
85.007710
0
LINE
8
圖層 1
10
114.957930
20
85.007710
11
115.029930
21
84.522710
0
LINE
8
圖層 1
10
115.029930
20
84.522710
11
115.148930
21
84.045710
0
LINE
8
圖層 1
10
115.148930
20
84.045710
11
115.313930
21
83.583720
0
LINE
8
圖層 1
10
115.313930
20
83.583720
11
115.523930
21
83.139720
0
LINE
8
圖層 1
10
115.523930
20
83.139720
11
115.560030
21
83.079720
0
LINE
8
圖層 1
10
115.560030
20
83.079720
11
115.776970
21
82.718720
0
LINE
8
圖層 1
10
115.776970
20
82.718720
11
115.884670
21
82.573400
0
LINE
8
圖層 1
10
115.884670
20
82.573400
11
115.889670
21
82.566400
0
LINE
8
圖層 1
10
115.889670
20
82.566400
11
116.027490
21
82.380430
0
LINE
8
圖層 1
10
116.027490
20
82.380430
11
116.068990
21
82.324430
0
LINE
8
圖層 1
10
116.068990
20
82.324430
11
116.398990
21
81.960430
0
LINE
8
圖層 1
10
116.398990
20
81.960430
11
116.762990
21
81.631430
0
LINE
8
圖層 1
10
116.762990
20
81.631430
11
117.156990
21
81.338430
0
LINE
8
圖層 1
10
117.156990
20
81.338430
11
117.577990
21
81.086430
0
LINE
8
圖層 1
10
117.577990
20
81.086430
11
118.021990
21
80.876430
0
LINE
8
圖層 1
10
118.021990
20
80.876430
11
118.483990
21
80.710430
0
LINE
8
圖層 1
10
118.483990
20
80.710430
11
118.959990
21
80.591430
0
LINE
8
圖層 1
10
118.959990
20
80.591430
11
119.445990
21
80.519430
0
LINE
8
圖層 1
10
119.445990
20
80.519430
11
119.935990
21
80.495430
0
LINE
8
圖層 1
10
119.935990
20
80.495430
11
120.425990
21
80.519430
0
LINE
8
圖層 1
10
120.425990
20
80.519430
11
120.685990
21
80.557930
0
LINE
8
圖層 1
10
120.685990
20
80.557930
11
120.911990
21
80.591430
0
LINE
8
圖層 1
10
120.911990
20
80.591430
11
121.387990
21
80.710430
0
LINE
8
圖層 1
10
121.387990
20
80.710430
11
121.850990
21
80.876430
0
LINE
8
圖層 1
10
121.850990
20
80.876430
11
122.293990
21
81.086430
0
LINE
8
圖層 1
10
122.293990
20
81.086430
11
122.714990
21
81.338430
0
LINE
8
圖層 1
10
122.714990
20
81.338430
11
123.109990
21
81.631430
0
LINE
8
圖層 1
10
123.109990
20
81.631430
11
123.472990
21
81.960430
0
LINE
8
圖層 1
10
123.472990
20
81.960430
11
123.802990
21
82.324430
0
LINE
8
圖層 1
10
123.802990
20
82.324430
11
124.095990
21
82.718430
0
LINE
8
圖層 1
10
124.095990
20
82.718430
11
124.312080
21
83.079430
0
LINE
8
圖層 1
10
124.312080
20
83.079430
11
124.347980
21
83.139430
0
LINE
8
圖層 1
10
124.347980
20
83.139430
11
124.557980
21
83.583430
0
LINE
8
圖層 1
10
124.557980
20
83.583430
11
124.722980
21
84.045430
0
LINE
8
圖層 1
10
124.722980
20
84.045430
11
124.781980
21
84.279960
0
LINE
8
圖層 1
10
124.781980
20
84.279960
11
124.842980
21
84.522420
0
LINE
8
圖層 1
10
124.842980
20
84.522420
11
124.914980
21
85.007430
0
LINE
8
圖層 1
10
124.914980
20
85.007430
11
124.938980
21
85.497430
0
LINE
8
圖層 1
10
124.938980
20
85.497430
11
124.914980
21
85.988430
0
LINE
8
圖層 1
10
124.914980
20
85.988430
11
124.842980
21
86.473430
0
LINE
8
圖層 1
10
124.842980
20
86.473430
11
124.781980
21
86.715900
0
LINE
8
圖層 1
10
124.781980
20
86.715900
11
124.722980
21
86.950430
0
LINE
8
圖層 1
10
124.722980
20
86.950430
11
124.642580
21
87.175430
0
LINE
8
圖層 1
10
124.642580
20
87.175430
11
124.595380
21
87.307560
0
LINE
8
圖層 1
10
124.595380
20
87.307560
11
124.557880
21
87.412430
0
LINE
8
圖層 1
10
124.557880
20
87.412430
11
124.347880
21
87.856430
0
LINE
8
圖層 1
10
124.347880
20
87.856430
11
124.095880
21
88.277430
0
LINE
8
圖層 1
10
124.095880
20
88.277430
11
123.802880
21
88.671430
0
LINE
8
圖層 1
10
123.802880
20
88.671430
11
123.472880
21
89.035430
0
LINE
8
圖層 1
10
123.472880
20
89.035430
11
123.109880
21
89.364430
0
LINE
8
圖層 1
10
123.109880
20
89.364430
11
122.714880
21
89.657430
0
LINE
8
圖層 1
10
122.714880
20
89.657430
11
122.293880
21
89.909430
0
LINE
8
圖層 1
10
122.293880
20
89.909430
11
121.850880
21
90.119430
0
LINE
8
圖層 1
10
121.850880
20
90.119430
11
121.387880
21
90.285430
0
LINE
8
圖層 1
10
121.387880
20
90.285430
11
120.911930
21
90.404720
 0 
ENDSEC
 0 
EOF